<?xml version="1.0" encoding="utf-8"?>
<!-- Generator: Adobe Illustrator 19.0.0, SVG Export Plug-In . SVG Version: 6.00 Build 0)  -->
<svg version="1.1" xmlns="http://www.w3.org/2000/svg" xmlns:xlink="http://www.w3.org/1999/xlink" x="0px" y="0px"
	 viewBox="0 0 960 560" style="enable-background:new 0 0 960 560;" xml:space="preserve">
<style type="text/css">
	.st0{fill:#191817;}
	.st1{fill:#999999;stroke:#666666;stroke-miterlimit:10;}
	.st2{opacity:0.48;stroke:#666666;stroke-miterlimit:10;}
	.st3{stroke:#666666;stroke-miterlimit:10;}
	.st4{opacity:0.51;stroke:#666666;stroke-miterlimit:10;}
	.st5{opacity:0.46;fill:#FFFFFF;stroke:#666666;stroke-miterlimit:10;}
	.st6{fill:#FFFFFF;stroke:#666666;stroke-miterlimit:10;}
	.st7{fill:#9E2323;stroke:#666666;stroke-miterlimit:10;}
	.st8{opacity:0.45;fill:#FFFFFF;}
	.st9{display:none;fill:#246617;stroke:#000000;stroke-miterlimit:10;}
	.st10{fill:#1A3F12;stroke:#000000;stroke-miterlimit:10;}
	.st11{fill:#5E493B;stroke:#000000;stroke-miterlimit:10;}
	.st12{opacity:0.3;fill:#FFFFFF;}
	.st13{fill:#662514;stroke:#000000;stroke-miterlimit:10;}
	.st14{fill:#4C4211;stroke:#000000;stroke-miterlimit:10;}
	.st15{fill:#332613;}
	.st16{fill:#544429;}
	.st17{fill:#917E7E;stroke:#000000;stroke-miterlimit:10;}
	.st18{fill:#382213;}
	.st19{fill:#191414;}
	.st20{fill:#7F422D;stroke:#000000;stroke-miterlimit:10;}
	.st21{opacity:0.5;fill:none;stroke:#000000;stroke-miterlimit:10;}
	.st22{fill:#443939;stroke:#000000;stroke-miterlimit:10;}
	.st23{fill:#262121;stroke:#000000;stroke-miterlimit:10;}
	.st24{fill:#3F3737;stroke:#000000;stroke-miterlimit:10;}
	.st25{fill:#332313;stroke:#000000;stroke-miterlimit:10;}
	.st26{fill:#4F3E2F;stroke:#000000;stroke-miterlimit:10;}
	.st27{fill:#161414;}
	.st28{fill:#59381F;stroke:#000000;stroke-miterlimit:10;}
	.st29{stroke:#000000;stroke-miterlimit:10;}
	.st30{display:none;stroke:#000000;stroke-miterlimit:10;}
	.st31{fill:#9B918E;stroke:#000000;stroke-miterlimit:10;}
	.st32{opacity:0.77;fill:#FFFFFF;stroke:#000000;stroke-miterlimit:10;}
	.st33{opacity:0.65;fill:#FFFFFF;stroke:#000000;stroke-miterlimit:10;}
	.st34{opacity:0.75;fill:#FFFFFF;stroke:#000000;stroke-miterlimit:10;}
	.st35{opacity:0.74;fill:#FFFFFF;stroke:#000000;stroke-miterlimit:10;}
	.st36{fill:#3F160D;stroke:#000000;stroke-miterlimit:10;}
	.st37{fill:#0F470E;stroke:#000000;stroke-miterlimit:10;}
	.st38{fill:#382F2F;stroke:#000000;stroke-miterlimit:10;}
	.st39{opacity:0.34;fill:#FFFFFF;}
	.st40{opacity:0.29;fill:#FFFFFF;}
	.st41{opacity:0.44;fill:#FFFFFF;}
	.st42{opacity:0.51;fill:#FFFFFF;}
	.st43{opacity:0.37;fill:#FFFFFF;}
	.st44{opacity:0.25;fill:#FFFFFF;}
	.st45{opacity:0.27;fill:#FFFFFF;}
	.st46{opacity:0.28;fill:#FFFFFF;}
	.st47{opacity:0.49;}
	.st48{opacity:0.44;}
	.st49{opacity:0.47;}
	.st50{opacity:0.29;}
	.st51{opacity:0.36;}
	.st52{opacity:0.45;}
	.st53{opacity:0.4;}
	.st54{opacity:0.42;}
	.st55{opacity:0.37;}
	.st56{opacity:0.41;}
	.st57{opacity:0.52;}
	.st58{opacity:0.59;}
	.st59{opacity:0.48;}
	.st60{opacity:0.3;}
	.st61{opacity:0.53;}
	.st62{opacity:0.6;fill:#FFFFFF;}
	.st63{opacity:0.46;}
	.st64{opacity:0.43;}
	.st65{opacity:0.56;}
	.st66{opacity:0.33;}
	.st67{opacity:0.39;}
	.st68{opacity:0.5;}
	.st69{opacity:0.54;}
	.st70{opacity:0.58;}
	.st71{opacity:0.61;}
	.st72{opacity:0.57;}
	.st73{opacity:0.68;}
	.st74{opacity:0.67;}
	.st75{opacity:0.72;}
	.st76{opacity:0.6;}
	.st77{opacity:0.66;}
	.st78{opacity:0.55;fill:#FFFFFF;}
	.st79{opacity:0.51;}
	.st80{opacity:0.65;}
	.st81{fill:#938C8C;stroke:#000000;stroke-miterlimit:10;}
	.st82{fill:#FFFFFF;stroke:#000000;stroke-miterlimit:10;}
	.st83{opacity:0.4;fill:#FFFFFF;}
	.st84{fill:#999292;stroke:#000000;stroke-miterlimit:10;}
	.st85{stroke:#4D4D4D;stroke-miterlimit:10;}
	.st86{fill:#5B1313;stroke:#000000;stroke-width:2;stroke-miterlimit:10;}
	.st87{opacity:0.32;}
</style>
<g id="background">
	<rect id="XMLID_351_" class="st0" width="960" height="560"/>
</g>
<g id="ACTIVE_x5F_TOSHIOHEADBACK">
	<g id="XMLID_457_">
		<g id="XMLID_460_">
			<g id="XMLID_464_">
				<path id="XMLID_477_" class="st1" d="M903.4,426.4c0,0-1,30.8-4.1,35.2s-22,23.9-29.5,24.1l-2.5,0c-7.5,0.8-28.8-16-32.4-19.9
					c-3.6-3.9-8.8-34.3-8.8-34.3s-0.3-34.6,29.6-41.3S898.3,399.1,903.4,426.4z"/>
				<path id="XMLID_476_" class="st2" d="M854,468c0,0,1.9-6.1,13.7-3.7c0,0,6.8-4.1,11.9,2.7C879.7,467,868,468.3,854,468z"/>
				<path id="XMLID_475_" class="st3" d="M864.3,456.1c0,0,6.9-2.4,7.8-5.5c1-3.1-4.3-8.4-5-12.8c0,0,3.9,8.8,7.6,11.8
					C878.4,452.5,862.5,458.9,864.3,456.1z"/>
				<path id="XMLID_474_" class="st4" d="M856.6,470c0,0,1.5,4.4,9.8,2.1c0,0,3.3,2,8.2-0.9c4.9-2.9,1.7-2.8,1.7-2.8
					S856.4,467.9,856.6,470z"/>
				<path id="XMLID_473_" class="st3" d="M834.5,429.4c0,0,7.3-6.1,16.3-2.1c9.1,4,0.6,7-1.1,7.6C848.1,435.4,836.8,435,834.5,429.4
					z"/>
				<path id="XMLID_472_" class="st3" d="M895.3,425.9c0,0-8.2-4.7-16.4,0.9c-8.2,5.6,0.7,6.9,2.4,7.2
					C883.1,434.3,894.1,431.9,895.3,425.9z"/>
				<path id="XMLID_471_" class="st3" d="M829.9,451.2c0,0-23.5-26.4-11.7-55.1c11.8-28.6,40.5-29.8,40.5-29.8s30.1-7.5,50.8,14
					s-8,71.7-8,71.7s4.3-30.6-4.3-42.8c0,0-4.3-2.4-10.4-0.9c0,0-2.1,3.5,5,7c0,0-7.7-0.5-12.7-6.3c0,0-2.8,3.9,2.1,7.4
					c4.8,3.5-0.9,0.4-0.9,0.4s-9.1-3.3-11.3-7.7c0,0-2.4,7.2,0,12.3c0,0-5.3-4.1-7.6-12.4c0,0-2.5,3.7,0.4,11.1c0,0-7.2-3-8.2-10.8
					c0,0-3.9,1.1-2.2,10.1c0,0-7.3-5.3-7.7-10.9c0,0-8.1,3.8-5.1,10.2c0,0-5.9-5-4-10.3c0,0-6.3,1.1-5.6,10.1
					C829.8,427.5,830.3,428.3,829.9,451.2z"/>
				<path id="XMLID_470_" class="st5" d="M862.4,377.7c0,0-1.4,4.5,7.6,13.6C870,391.4,864.1,384.4,862.4,377.7z"/>
				<path id="XMLID_469_" class="st5" d="M842.4,386c0,0,1.3,6,8.2,12.7C850.6,398.8,843.7,389.5,842.4,386z"/>
				<path id="XMLID_468_" class="st5" d="M882.4,385.7c0,0,1.9,7,9.8,14C892.2,399.7,884.7,389.2,882.4,385.7z"/>
				<path id="XMLID_467_" class="st5" d="M822.3,431.5c0,0-5.3-12.7-3.8-15.4L822.3,431.5z"/>
				<path id="XMLID_466_" class="st5" d="M906.6,422.3c0,0,4.1-10.1,3-15.5C909.6,406.7,908.5,416,906.6,422.3z"/>
				<path id="XMLID_465_" class="st5" d="M836.5,407.9c0,0,4.1-3.6,4.4-6.5L836.5,407.9z"/>
			</g>
			<polygon id="XMLID_463_" class="st3" points="860.3,368.1 858.5,258.4 861.3,258 863.4,369.3 			"/>
			<polygon id="XMLID_462_" class="st6" points="861.9,369 860.4,261.5 859.4,261.5 			"/>
			<path id="XMLID_461_" class="st7" d="M860.6,261.3c-1.5,0-2.7-0.1-5-0.5c-3.6-0.5-6.6-1.2-8.5-1.7c0,0,0.1-15.9,4.7-19.9
				c-53.1-53.9-64.4-114-36.1-144c5.7-6,17.7-15.9,42.7-20.6c0.2,0,0.4,0,0.6,0c32,7.6,45.9,19.6,52.1,30.6
				c26.4,46.5-48.5,134.6-48.5,134.6c1.3,4,2.9,8.1,4.6,12.4c0.9,2.1,1.8,4.2,2.8,6.2C866,260.9,862.5,261.3,860.6,261.3z"/>
		</g>
		
			<ellipse id="XMLID_459_" transform="matrix(0.9544 -0.2985 0.2985 0.9544 9.4055 269.3805)" class="st8" cx="886.5" cy="103.9" rx="6.7" ry="10.4"/>
		
			<ellipse id="XMLID_458_" transform="matrix(0.9445 -0.3284 0.3284 0.9445 -13.6276 281.278)" class="st8" cx="825.8" cy="181" rx="5.1" ry="13.5"/>
	</g>
</g>
<g id="ground">
	<polygon id="XMLID_16_" class="st9" points="538.8,529 99,317.3 472.6,130.9 905.5,349.3 	"/>
	<polygon id="XMLID_15_" class="st10" points="538.8,517 99,305.3 472.6,118.9 905.5,337.3 	"/>
</g>
<g id="wall">
	<polygon id="XMLID_6_" class="st11" points="472.4,151.1 164.8,304.1 164.8,271.4 472.6,118.9 	"/>
	<path id="XMLID_167_" class="st12" d="M173.5,296.5l2.1-1c0.4-0.2,0.7-0.7,0.7-1.2v-24.5c0-1-1-1.6-1.9-1.1l-2.1,1.1
		c-0.4,0.2-0.7,0.7-0.7,1.1v24.5C171.6,296.3,172.6,296.9,173.5,296.5z"/>
	<path id="XMLID_166_" class="st12" d="M179.3,293.5l2.1-1c0.4-0.2,0.7-0.7,0.7-1.2v-24.5c0-1-1-1.6-1.9-1.1l-2.1,1.1
		c-0.4,0.2-0.7,0.7-0.7,1.1v24.5C177.4,293.3,178.4,294,179.3,293.5z"/>
	<path id="XMLID_165_" class="st12" d="M185.6,290.5l2.1-1c0.4-0.2,0.7-0.7,0.7-1.2v-24.5c0-1-1-1.6-1.9-1.1l-2.1,1.1
		c-0.4,0.2-0.7,0.7-0.7,1.1v24.5C183.7,290.3,184.8,291,185.6,290.5z"/>
	<path id="XMLID_164_" class="st12" d="M192.1,287.1l2.1-1c0.4-0.2,0.7-0.7,0.7-1.2v-24.5c0-1-1-1.6-1.9-1.1l-2.1,1.1
		c-0.4,0.2-0.7,0.7-0.7,1.1V286C190.2,286.9,191.3,287.6,192.1,287.1z"/>
	<polygon id="XMLID_7_" class="st13" points="472.6,151.3 846.6,337.3 846.6,304.7 472.6,119.3 	"/>
	<polygon id="XMLID_1_" class="st13" points="164.8,303.9 538.8,489.9 538.8,457.3 164.8,271.9 	"/>
	<path id="XMLID_227_" class="st12" d="M842.5,332.7l-2.1-1c-0.4-0.2-0.7-0.7-0.7-1.2v-24.5c0-1,1-1.6,1.9-1.1l2.1,1.1
		c0.4,0.2,0.7,0.7,0.7,1.1v24.5C844.3,332.5,843.3,333.1,842.5,332.7z"/>
	<path id="XMLID_226_" class="st12" d="M836.1,329.7l-2.1-1c-0.4-0.2-0.7-0.7-0.7-1.2v-24.5c0-1,1-1.6,1.9-1.1l2.1,1.1
		c0.4,0.2,0.7,0.7,0.7,1.1v24.5C838,329.5,837,330.1,836.1,329.7z"/>
	<path id="XMLID_225_" class="st12" d="M829.6,326.3l-2.1-1c-0.4-0.2-0.7-0.7-0.7-1.2v-24.5c0-1,1-1.6,1.9-1.1l2.1,1.1
		c0.4,0.2,0.7,0.7,0.7,1.1v24.5C831.5,326.1,830.5,326.7,829.6,326.3z"/>
	<path id="XMLID_224_" class="st12" d="M823.3,323.3l-2.1-1c-0.4-0.2-0.7-0.7-0.7-1.2v-24.5c0-1,1-1.6,1.9-1.1l2.1,1.1
		c0.4,0.2,0.7,0.7,0.7,1.1v24.5C825.2,323.1,824.2,323.7,823.3,323.3z"/>
	<path id="XMLID_223_" class="st12" d="M817.5,320.3l-2.1-1c-0.4-0.2-0.7-0.7-0.7-1.2v-24.5c0-1,1-1.6,1.9-1.1l2.1,1.1
		c0.4,0.2,0.7,0.7,0.7,1.1v24.5C819.3,320.1,818.3,320.7,817.5,320.3z"/>
	<polygon id="XMLID_5_" class="st11" points="845.3,305.3 538.8,457.3 538.8,489.9 845.1,337.6 	"/>
	<polyline id="XMLID_9_" class="st14" points="538.8,517 538.8,529 99,317.3 99,305.3 	"/>
	<polygon id="XMLID_8_" class="st14" points="905.5,337.3 905.5,349.3 538.8,529 538.8,517 	"/>
	<path id="XMLID_10_" class="st12" d="M169.9,276.9l2.1,1c0.4,0.2,0.7,0.7,0.7,1.2v24.5c0,1-1,1.6-1.9,1.1l-2.1-1.1
		c-0.4-0.2-0.7-0.7-0.7-1.1v-24.5C168,277.1,169,276.5,169.9,276.9z"/>
	<path id="XMLID_11_" class="st12" d="M176.2,279.9l2.1,1c0.4,0.2,0.7,0.7,0.7,1.2v24.5c0,1-1,1.6-1.9,1.1l-2.1-1.1
		c-0.4-0.2-0.7-0.7-0.7-1.1v-24.5C174.3,280.1,175.3,279.5,176.2,279.9z"/>
	<path id="XMLID_13_" class="st12" d="M182.7,283.4l2.1,1c0.4,0.2,0.7,0.7,0.7,1.2v24.5c0,1-1,1.6-1.9,1.1l-2.1-1.1
		c-0.4-0.2-0.7-0.7-0.7-1.1v-24.5C180.8,283.6,181.8,282.9,182.7,283.4z"/>
	<path id="XMLID_12_" class="st12" d="M189,286.4l2.1,1c0.4,0.2,0.7,0.7,0.7,1.2v24.5c0,1-1,1.6-1.9,1.1l-2.1-1.1
		c-0.4-0.2-0.7-0.7-0.7-1.1v-24.5C187.2,286.6,188.2,285.9,189,286.4z"/>
	<path id="XMLID_19_" class="st12" d="M194.9,289.3l2.1,1c0.4,0.2,0.7,0.7,0.7,1.2V316c0,1-1,1.6-1.9,1.1l-2.1-1.1
		c-0.4-0.2-0.7-0.7-0.7-1.1v-24.5C193,289.5,194,288.9,194.9,289.3z"/>
	<path id="XMLID_18_" class="st12" d="M201.2,292.3l2.1,1c0.4,0.2,0.7,0.7,0.7,1.2V319c0,1-1,1.6-1.9,1.1l-2.1-1.1
		c-0.4-0.2-0.7-0.7-0.7-1.1v-24.5C199.3,292.5,200.3,291.9,201.2,292.3z"/>
	<path id="XMLID_17_" class="st12" d="M207.7,295.7l2.1,1c0.4,0.2,0.7,0.7,0.7,1.2v24.5c0,1-1,1.6-1.9,1.1l-2.1-1.1
		c-0.4-0.2-0.7-0.7-0.7-1.1v-24.5C205.8,295.9,206.8,295.3,207.7,295.7z"/>
	<path id="XMLID_14_" class="st12" d="M214,298.7l2.1,1c0.4,0.2,0.7,0.7,0.7,1.2v24.5c0,1-1,1.6-1.9,1.1l-2.1-1.1
		c-0.4-0.2-0.7-0.7-0.7-1.1v-24.5C212.2,298.9,213.2,298.3,214,298.7z"/>
	<path id="XMLID_27_" class="st12" d="M220.4,301.9l2.1,1c0.4,0.2,0.7,0.7,0.7,1.2v24.5c0,1-1,1.6-1.9,1.1l-2.1-1.1
		c-0.4-0.2-0.7-0.7-0.7-1.1v-24.5C218.5,302.1,219.5,301.5,220.4,301.9z"/>
	<path id="XMLID_26_" class="st12" d="M226.7,304.9l2.1,1c0.4,0.2,0.7,0.7,0.7,1.2v24.5c0,1-1,1.6-1.9,1.1l-2.1-1.1
		c-0.4-0.2-0.7-0.7-0.7-1.1v-24.5C224.8,305.1,225.8,304.5,226.7,304.9z"/>
	<path id="XMLID_25_" class="st12" d="M233.2,308.3l2.1,1c0.4,0.2,0.7,0.7,0.7,1.2v24.5c0,1-1,1.6-1.9,1.1l-2.1-1.1
		c-0.4-0.2-0.7-0.7-0.7-1.1v-24.5C231.3,308.5,232.3,307.9,233.2,308.3z"/>
	<path id="XMLID_24_" class="st12" d="M239.5,311.3l2.1,1c0.4,0.2,0.7,0.7,0.7,1.2v24.5c0,1-1,1.6-1.9,1.1l-2.1-1.1
		c-0.4-0.2-0.7-0.7-0.7-1.1v-24.5C237.7,311.5,238.7,310.9,239.5,311.3z"/>
	<path id="XMLID_23_" class="st12" d="M245.4,314.3l2.1,1c0.4,0.2,0.7,0.7,0.7,1.2V341c0,1-1,1.6-1.9,1.1l-2.1-1.1
		c-0.4-0.2-0.7-0.7-0.7-1.1v-24.5C243.5,314.5,244.5,313.9,245.4,314.3z"/>
	<path id="XMLID_22_" class="st12" d="M251.7,317.3l2.1,1c0.4,0.2,0.7,0.7,0.7,1.2V344c0,1-1,1.6-1.9,1.1l-2.1-1.1
		c-0.4-0.2-0.7-0.7-0.7-1.1v-24.5C249.8,317.5,250.8,316.9,251.7,317.3z"/>
	<path id="XMLID_21_" class="st12" d="M258.2,320.7l2.1,1c0.4,0.2,0.7,0.7,0.7,1.2v24.5c0,1-1,1.6-1.9,1.1l-2.1-1.1
		c-0.4-0.2-0.7-0.7-0.7-1.1v-24.5C256.3,320.9,257.3,320.3,258.2,320.7z"/>
	<path id="XMLID_20_" class="st12" d="M264.5,323.7l2.1,1c0.4,0.2,0.7,0.7,0.7,1.2v24.5c0,1-1,1.6-1.9,1.1l-2.1-1.1
		c-0.4-0.2-0.7-0.7-0.7-1.1v-24.5C262.7,323.9,263.7,323.3,264.5,323.7z"/>
	<path id="XMLID_35_" class="st12" d="M271,326.9l2.1,1c0.4,0.2,0.7,0.7,0.7,1.2v24.5c0,1-1,1.6-1.9,1.1l-2.1-1.1
		c-0.4-0.2-0.7-0.7-0.7-1.1v-24.5C269.1,327.1,270.1,326.5,271,326.9z"/>
	<path id="XMLID_34_" class="st12" d="M277.3,329.9l2.1,1c0.4,0.2,0.7,0.7,0.7,1.2v24.5c0,1-1,1.6-1.9,1.1l-2.1-1.1
		c-0.4-0.2-0.7-0.7-0.7-1.1v-24.5C275.4,330.1,276.4,329.5,277.3,329.9z"/>
	<path id="XMLID_33_" class="st12" d="M283.8,333.3l2.1,1c0.4,0.2,0.7,0.7,0.7,1.2V360c0,1-1,1.6-1.9,1.1l-2.1-1.1
		c-0.4-0.2-0.7-0.7-0.7-1.1v-24.5C281.9,333.5,282.9,332.9,283.8,333.3z"/>
	<path id="XMLID_32_" class="st12" d="M290.1,336.3l2.1,1c0.4,0.2,0.7,0.7,0.7,1.2V363c0,1-1,1.6-1.9,1.1l-2.1-1.1
		c-0.4-0.2-0.7-0.7-0.7-1.1v-24.5C288.3,336.5,289.3,335.9,290.1,336.3z"/>
	<path id="XMLID_31_" class="st12" d="M296,339.3l2.1,1c0.4,0.2,0.7,0.7,0.7,1.2V366c0,1-1,1.6-1.9,1.1l-2.1-1.1
		c-0.4-0.2-0.7-0.7-0.7-1.1v-24.5C294.1,339.5,295.1,338.8,296,339.3z"/>
	<path id="XMLID_30_" class="st12" d="M302.3,342.3l2.1,1c0.4,0.2,0.7,0.7,0.7,1.2V369c0,1-1,1.6-1.9,1.1l-2.1-1.1
		c-0.4-0.2-0.7-0.7-0.7-1.1v-24.5C300.4,342.5,301.4,341.8,302.3,342.3z"/>
	<path id="XMLID_29_" class="st12" d="M308.8,345.7l2.1,1c0.4,0.2,0.7,0.7,0.7,1.2v24.5c0,1-1,1.6-1.9,1.1l-2.1-1.1
		c-0.4-0.2-0.7-0.7-0.7-1.1v-24.5C306.9,345.9,307.9,345.3,308.8,345.7z"/>
	<path id="XMLID_28_" class="st12" d="M315.1,348.7l2.1,1c0.4,0.2,0.7,0.7,0.7,1.2v24.5c0,1-1,1.6-1.9,1.1l-2.1-1.1
		c-0.4-0.2-0.7-0.7-0.7-1.1v-24.5C313.3,348.9,314.3,348.3,315.1,348.7z"/>
	<path id="XMLID_59_" class="st12" d="M321.5,351.9l2.1,1c0.4,0.2,0.7,0.7,0.7,1.2v24.5c0,1-1,1.6-1.9,1.1l-2.1-1.1
		c-0.4-0.2-0.7-0.7-0.7-1.1V353C319.6,352.1,320.6,351.4,321.5,351.9z"/>
	<path id="XMLID_58_" class="st12" d="M327.8,354.9l2.1,1c0.4,0.2,0.7,0.7,0.7,1.2v24.5c0,1-1,1.6-1.9,1.1l-2.1-1.1
		c-0.4-0.2-0.7-0.7-0.7-1.1V356C326,355.1,327,354.4,327.8,354.9z"/>
	<path id="XMLID_57_" class="st12" d="M334.3,358.3l2.1,1c0.4,0.2,0.7,0.7,0.7,1.2V385c0,1-1,1.6-1.9,1.1l-2.1-1.1
		c-0.4-0.2-0.7-0.7-0.7-1.1v-24.5C332.5,358.5,333.5,357.9,334.3,358.3z"/>
	<path id="XMLID_56_" class="st12" d="M340.7,361.3l2.1,1c0.4,0.2,0.7,0.7,0.7,1.2V388c0,1-1,1.6-1.9,1.1l-2.1-1.1
		c-0.4-0.2-0.7-0.7-0.7-1.1v-24.5C338.8,361.5,339.8,360.9,340.7,361.3z"/>
	<path id="XMLID_55_" class="st12" d="M346.5,364.2l2.1,1c0.4,0.2,0.7,0.7,0.7,1.2V391c0,1-1,1.6-1.9,1.1l-2.1-1.1
		c-0.4-0.2-0.7-0.7-0.7-1.1v-24.5C344.6,364.4,345.6,363.8,346.5,364.2z"/>
	<path id="XMLID_54_" class="st12" d="M352.8,367.2l2.1,1c0.4,0.2,0.7,0.7,0.7,1.2V394c0,1-1,1.6-1.9,1.1l-2.1-1.1
		c-0.4-0.2-0.7-0.7-0.7-1.1v-24.5C351,367.4,352,366.8,352.8,367.2z"/>
	<path id="XMLID_53_" class="st12" d="M359.3,370.7l2.1,1c0.4,0.2,0.7,0.7,0.7,1.2v24.5c0,1-1,1.6-1.9,1.1l-2.1-1.1
		c-0.4-0.2-0.7-0.7-0.7-1.1v-24.5C357.5,370.9,358.5,370.2,359.3,370.7z"/>
	<path id="XMLID_52_" class="st12" d="M365.7,373.7l2.1,1c0.4,0.2,0.7,0.7,0.7,1.2v24.5c0,1-1,1.6-1.9,1.1l-2.1-1.1
		c-0.4-0.2-0.7-0.7-0.7-1.1v-24.5C363.8,373.9,364.8,373.2,365.7,373.7z"/>
	<path id="XMLID_51_" class="st12" d="M372,376.8l2.1,1c0.4,0.2,0.7,0.7,0.7,1.2v24.5c0,1-1,1.6-1.9,1.1l-2.1-1.1
		c-0.4-0.2-0.7-0.7-0.7-1.1V378C370.1,377,371.1,376.4,372,376.8z"/>
	<path id="XMLID_50_" class="st12" d="M378.3,379.8l2.1,1c0.4,0.2,0.7,0.7,0.7,1.2v24.5c0,1-1,1.6-1.9,1.1l-2.1-1.1
		c-0.4-0.2-0.7-0.7-0.7-1.1V381C376.5,380,377.5,379.4,378.3,379.8z"/>
	<path id="XMLID_49_" class="st12" d="M384.8,383.3l2.1,1c0.4,0.2,0.7,0.7,0.7,1.2V410c0,1-1,1.6-1.9,1.1l-2.1-1.1
		c-0.4-0.2-0.7-0.7-0.7-1.1v-24.5C383,383.5,384,382.8,384.8,383.3z"/>
	<path id="XMLID_48_" class="st12" d="M391.2,386.3l2.1,1c0.4,0.2,0.7,0.7,0.7,1.2V413c0,1-1,1.6-1.9,1.1L390,413
		c-0.4-0.2-0.7-0.7-0.7-1.1v-24.5C389.3,386.5,390.3,385.8,391.2,386.3z"/>
	<path id="XMLID_47_" class="st12" d="M397,389.2l2.1,1c0.4,0.2,0.7,0.7,0.7,1.2v24.5c0,1-1,1.6-1.9,1.1l-2.1-1.1
		c-0.4-0.2-0.7-0.7-0.7-1.1v-24.5C395.1,389.4,396.1,388.8,397,389.2z"/>
	<path id="XMLID_46_" class="st12" d="M403.3,392.2l2.1,1c0.4,0.2,0.7,0.7,0.7,1.2v24.5c0,1-1,1.6-1.9,1.1l-2.1-1.1
		c-0.4-0.2-0.7-0.7-0.7-1.1v-24.5C401.5,392.4,402.5,391.8,403.3,392.2z"/>
	<path id="XMLID_45_" class="st12" d="M409.8,395.6l2.1,1c0.4,0.2,0.7,0.7,0.7,1.2v24.5c0,1-1,1.6-1.9,1.1l-2.1-1.1
		c-0.4-0.2-0.7-0.7-0.7-1.1v-24.5C408,395.8,409,395.2,409.8,395.6z"/>
	<path id="XMLID_44_" class="st12" d="M416.2,398.6l2.1,1c0.4,0.2,0.7,0.7,0.7,1.2v24.5c0,1-1,1.6-1.9,1.1l-2.1-1.1
		c-0.4-0.2-0.7-0.7-0.7-1.1v-24.5C414.3,398.8,415.3,398.2,416.2,398.6z"/>
	<path id="XMLID_43_" class="st12" d="M422.6,401.8l2.1,1c0.4,0.2,0.7,0.7,0.7,1.2v24.5c0,1-1,1.6-1.9,1.1l-2.1-1.1
		c-0.4-0.2-0.7-0.7-0.7-1.1V403C420.7,402,421.7,401.4,422.6,401.8z"/>
	<path id="XMLID_42_" class="st12" d="M428.9,404.8l2.1,1c0.4,0.2,0.7,0.7,0.7,1.2v24.5c0,1-1,1.6-1.9,1.1l-2.1-1.1
		c-0.4-0.2-0.7-0.7-0.7-1.1V406C427,405,428.1,404.4,428.9,404.8z"/>
	<path id="XMLID_41_" class="st12" d="M435.4,408.2l2.1,1c0.4,0.2,0.7,0.7,0.7,1.2V435c0,1-1,1.6-1.9,1.1l-2.1-1.1
		c-0.4-0.2-0.7-0.7-0.7-1.1v-24.5C433.5,408.4,434.6,407.8,435.4,408.2z"/>
	<path id="XMLID_40_" class="st12" d="M441.8,411.2l2.1,1c0.4,0.2,0.7,0.7,0.7,1.2V438c0,1-1,1.6-1.9,1.1l-2.1-1.1
		c-0.4-0.2-0.7-0.7-0.7-1.1v-24.5C439.9,411.4,440.9,410.8,441.8,411.2z"/>
	<path id="XMLID_39_" class="st12" d="M447.6,414.2l2.1,1c0.4,0.2,0.7,0.7,0.7,1.2v24.5c0,1-1,1.6-1.9,1.1l-2.1-1.1
		c-0.4-0.2-0.7-0.7-0.7-1.1v-24.5C445.7,414.4,446.7,413.8,447.6,414.2z"/>
	<path id="XMLID_38_" class="st12" d="M453.9,417.2l2.1,1c0.4,0.2,0.7,0.7,0.7,1.2v24.5c0,1-1,1.6-1.9,1.1l-2.1-1.1
		c-0.4-0.2-0.7-0.7-0.7-1.1v-24.5C452,417.4,453.1,416.8,453.9,417.2z"/>
	<path id="XMLID_37_" class="st12" d="M460.4,420.6l2.1,1c0.4,0.2,0.7,0.7,0.7,1.2v24.5c0,1-1,1.6-1.9,1.1l-2.1-1.1
		c-0.4-0.2-0.7-0.7-0.7-1.1v-24.5C458.5,420.8,459.6,420.2,460.4,420.6z"/>
	<path id="XMLID_36_" class="st12" d="M466.8,423.6l2.1,1c0.4,0.2,0.7,0.7,0.7,1.2v24.5c0,1-1,1.6-1.9,1.1l-2.1-1.1
		c-0.4-0.2-0.7-0.7-0.7-1.1v-24.5C464.9,423.8,465.9,423.2,466.8,423.6z"/>
	<path id="XMLID_65_" class="st12" d="M473.6,427l2.1,1c0.4,0.2,0.7,0.7,0.7,1.2v24.5c0,1-1,1.6-1.9,1.1l-2.1-1.1
		c-0.4-0.2-0.7-0.7-0.7-1.1v-24.5C471.7,427.2,472.7,426.6,473.6,427z"/>
	<path id="XMLID_64_" class="st12" d="M479.9,430l2.1,1c0.4,0.2,0.7,0.7,0.7,1.2v24.5c0,1-1,1.6-1.9,1.1l-2.1-1.1
		c-0.4-0.2-0.7-0.7-0.7-1.1v-24.5C478,430.2,479.1,429.6,479.9,430z"/>
	<path id="XMLID_63_" class="st12" d="M485.8,433l2.1,1c0.4,0.2,0.7,0.7,0.7,1.2v24.5c0,1-1,1.6-1.9,1.1l-2.1-1.1
		c-0.4-0.2-0.7-0.7-0.7-1.1v-24.5C483.9,433.2,484.9,432.5,485.8,433z"/>
	<path id="XMLID_62_" class="st12" d="M492.1,436l2.1,1c0.4,0.2,0.7,0.7,0.7,1.2v24.5c0,1-1,1.6-1.9,1.1l-2.1-1.1
		c-0.4-0.2-0.7-0.7-0.7-1.1v-24.5C490.2,436.2,491.2,435.5,492.1,436z"/>
	<path id="XMLID_61_" class="st12" d="M498.6,439.4l2.1,1c0.4,0.2,0.7,0.7,0.7,1.2v24.5c0,1-1,1.6-1.9,1.1l-2.1-1.1
		c-0.4-0.2-0.7-0.7-0.7-1.1v-24.5C496.7,439.6,497.7,438.9,498.6,439.4z"/>
	<path id="XMLID_60_" class="st12" d="M504.9,442.4l2.1,1c0.4,0.2,0.7,0.7,0.7,1.2v24.5c0,1-1,1.6-1.9,1.1l-2.1-1.1
		c-0.4-0.2-0.7-0.7-0.7-1.1v-24.5C503,442.6,504.1,441.9,504.9,442.4z"/>
	<path id="XMLID_70_" class="st12" d="M511,445.4l2.1,1c0.4,0.2,0.7,0.7,0.7,1.2v24.5c0,1-1,1.6-1.9,1.1l-2.1-1.1
		c-0.4-0.2-0.7-0.7-0.7-1.1v-24.5C509.1,445.6,510.1,444.9,511,445.4z"/>
	<path id="XMLID_69_" class="st12" d="M516.8,448.3l2.1,1c0.4,0.2,0.7,0.7,0.7,1.2V475c0,1-1,1.6-1.9,1.1l-2.1-1.1
		c-0.4-0.2-0.7-0.7-0.7-1.1v-24.5C514.9,448.5,515.9,447.9,516.8,448.3z"/>
	<path id="XMLID_68_" class="st12" d="M523.1,451.3l2.1,1c0.4,0.2,0.7,0.7,0.7,1.2V478c0,1-1,1.6-1.9,1.1l-2.1-1.1
		c-0.4-0.2-0.7-0.7-0.7-1.1v-24.5C521.3,451.5,522.3,450.9,523.1,451.3z"/>
	<path id="XMLID_67_" class="st12" d="M529.6,454.7l2.1,1c0.4,0.2,0.7,0.7,0.7,1.2v24.5c0,1-1,1.6-1.9,1.1l-2.1-1.1
		c-0.4-0.2-0.7-0.7-0.7-1.1v-24.5C527.8,454.9,528.8,454.3,529.6,454.7z"/>
	<path id="XMLID_66_" class="st12" d="M535.5,457.7l1.5,1c0.3,0.2,0.5,0.7,0.5,1.2v24.5c0,1-0.8,1.6-1.4,1.1l-1.5-1.1
		c-0.3-0.2-0.5-0.7-0.5-1.1v-24.5C534.1,457.9,534.8,457.3,535.5,457.7z"/>
	<path id="XMLID_119_" class="st12" d="M842.4,309.4l0.7,0.4c-0.4,0.2-0.7,0.7-0.7,1.2v24.5c0,1,1,1.6,1.9,1.1l-0.7-0.5
		c0.4-0.2,0.7-0.7,0.7-1.1v-24.5C844.3,309.6,843.3,309,842.4,309.4z"/>
	<path id="XMLID_118_" class="st12" d="M838.9,311.8l-2.1,1c-0.4,0.2-0.7,0.7-0.7,1.2v24.5c0,1,1,1.6,1.9,1.1l2.1-1.1
		c0.4-0.2,0.7-0.7,0.7-1.1v-24.5C840.8,312,839.7,311.3,838.9,311.8z"/>
	<path id="XMLID_117_" class="st12" d="M833,314.7l-2.1,1c-0.4,0.2-0.7,0.7-0.7,1.2v24.5c0,1,1,1.6,1.9,1.1l2.1-1.1
		c0.4-0.2,0.7-0.7,0.7-1.1v-24.5C834.9,314.9,833.9,314.3,833,314.7z"/>
	<path id="XMLID_116_" class="st12" d="M826.7,317.7l-2.1,1c-0.4,0.2-0.7,0.7-0.7,1.2v24.5c0,1,1,1.6,1.9,1.1l2.1-1.1
		c0.4-0.2,0.7-0.7,0.7-1.1v-24.5C828.6,317.9,827.6,317.3,826.7,317.7z"/>
	<path id="XMLID_115_" class="st12" d="M820.2,321.1l-2.1,1c-0.4,0.2-0.7,0.7-0.7,1.2v24.5c0,1,1,1.6,1.9,1.1l2.1-1.1
		c0.4-0.2,0.7-0.7,0.7-1.1v-24.5C822.1,321.3,821.1,320.7,820.2,321.1z"/>
	<path id="XMLID_114_" class="st12" d="M813.9,324.1l-2.1,1c-0.4,0.2-0.7,0.7-0.7,1.2v24.5c0,1,1,1.6,1.9,1.1l2.1-1.1
		c0.4-0.2,0.7-0.7,0.7-1.1v-24.5C815.8,324.3,814.7,323.7,813.9,324.1z"/>
	<path id="XMLID_113_" class="st12" d="M807.5,327.3l-2.1,1c-0.4,0.2-0.7,0.7-0.7,1.2V354c0,1,1,1.6,1.9,1.1l2.1-1.1
		c0.4-0.2,0.7-0.7,0.7-1.1v-24.5C809.3,327.5,808.3,326.9,807.5,327.3z"/>
	<path id="XMLID_112_" class="st12" d="M801.1,330.3l-2.1,1c-0.4,0.2-0.7,0.7-0.7,1.2V357c0,1,1,1.6,1.9,1.1l2.1-1.1
		c0.4-0.2,0.7-0.7,0.7-1.1v-24.5C803,330.5,802,329.9,801.1,330.3z"/>
	<path id="XMLID_111_" class="st12" d="M794.6,333.7l-2.1,1c-0.4,0.2-0.7,0.7-0.7,1.2v24.5c0,1,1,1.6,1.9,1.1l2.1-1.1
		c0.4-0.2,0.7-0.7,0.7-1.1v-24.5C796.5,333.9,795.5,333.3,794.6,333.7z"/>
	<path id="XMLID_110_" class="st12" d="M788.3,336.7l-2.1,1c-0.4,0.2-0.7,0.7-0.7,1.2v24.5c0,1,1,1.6,1.9,1.1l2.1-1.1
		c0.4-0.2,0.7-0.7,0.7-1.1v-24.5C790.2,336.9,789.2,336.3,788.3,336.7z"/>
	<path id="XMLID_109_" class="st12" d="M782.5,339.7l-2.1,1c-0.4,0.2-0.7,0.7-0.7,1.2v24.5c0,1,1,1.6,1.9,1.1l2.1-1.1
		c0.4-0.2,0.7-0.7,0.7-1.1v-24.5C784.3,339.9,783.3,339.3,782.5,339.7z"/>
	<path id="XMLID_108_" class="st12" d="M776.1,342.7l-2.1,1c-0.4,0.2-0.7,0.7-0.7,1.2v24.5c0,1,1,1.6,1.9,1.1l2.1-1.1
		c0.4-0.2,0.7-0.7,0.7-1.1v-24.5C778,342.9,777,342.3,776.1,342.7z"/>
	<path id="XMLID_107_" class="st12" d="M769.6,346.1l-2.1,1c-0.4,0.2-0.7,0.7-0.7,1.2v24.5c0,1,1,1.6,1.9,1.1l2.1-1.1
		c0.4-0.2,0.7-0.7,0.7-1.1v-24.5C771.5,346.3,770.5,345.7,769.6,346.1z"/>
	<path id="XMLID_106_" class="st12" d="M763.3,349.1l-2.1,1c-0.4,0.2-0.7,0.7-0.7,1.2v24.5c0,1,1,1.6,1.9,1.1l2.1-1.1
		c0.4-0.2,0.7-0.7,0.7-1.1v-24.5C765.2,349.3,764.2,348.7,763.3,349.1z"/>
	<path id="XMLID_105_" class="st12" d="M756.9,352.3l-2.1,1c-0.4,0.2-0.7,0.7-0.7,1.2V379c0,1,1,1.6,1.9,1.1l2.1-1.1
		c0.4-0.2,0.7-0.7,0.7-1.1v-24.5C758.8,352.5,757.8,351.9,756.9,352.3z"/>
	<path id="XMLID_104_" class="st12" d="M750.6,355.3l-2.1,1c-0.4,0.2-0.7,0.7-0.7,1.2V382c0,1,1,1.6,1.9,1.1l2.1-1.1
		c0.4-0.2,0.7-0.7,0.7-1.1v-24.5C752.5,355.5,751.4,354.9,750.6,355.3z"/>
	<path id="XMLID_103_" class="st12" d="M744.1,358.7l-2.1,1c-0.4,0.2-0.7,0.7-0.7,1.2v24.5c0,1,1,1.6,1.9,1.1l2.1-1.1
		c0.4-0.2,0.7-0.7,0.7-1.1v-24.5C746,358.9,744.9,358.3,744.1,358.7z"/>
	<path id="XMLID_102_" class="st12" d="M737.7,361.7l-2.1,1c-0.4,0.2-0.7,0.7-0.7,1.2v24.5c0,1,1,1.6,1.9,1.1l2.1-1.1
		c0.4-0.2,0.7-0.7,0.7-1.1v-24.5C739.6,361.9,738.6,361.3,737.7,361.7z"/>
	<path id="XMLID_101_" class="st12" d="M731.9,364.7l-2.1,1c-0.4,0.2-0.7,0.7-0.7,1.2v24.5c0,1,1,1.6,1.9,1.1l2.1-1.1
		c0.4-0.2,0.7-0.7,0.7-1.1v-24.5C733.8,364.9,732.8,364.2,731.9,364.7z"/>
	<path id="XMLID_100_" class="st12" d="M725.6,367.7l-2.1,1c-0.4,0.2-0.7,0.7-0.7,1.2v24.5c0,1,1,1.6,1.9,1.1l2.1-1.1
		c0.4-0.2,0.7-0.7,0.7-1.1v-24.5C727.5,367.9,726.4,367.2,725.6,367.7z"/>
	<path id="XMLID_99_" class="st12" d="M719.1,371.1l-2.1,1c-0.4,0.2-0.7,0.7-0.7,1.2v24.5c0,1,1,1.6,1.9,1.1l2.1-1.1
		c0.4-0.2,0.7-0.7,0.7-1.1v-24.5C721,371.3,719.9,370.7,719.1,371.1z"/>
	<path id="XMLID_98_" class="st12" d="M712.7,374.1l-2.1,1c-0.4,0.2-0.7,0.7-0.7,1.2v24.5c0,1,1,1.6,1.9,1.1l2.1-1.1
		c0.4-0.2,0.7-0.7,0.7-1.1v-24.5C714.6,374.3,713.6,373.7,712.7,374.1z"/>
	<path id="XMLID_97_" class="st12" d="M706.4,377.3l-2.1,1c-0.4,0.2-0.7,0.7-0.7,1.2V404c0,1,1,1.6,1.9,1.1l2.1-1.1
		c0.4-0.2,0.7-0.7,0.7-1.1v-24.5C708.3,377.5,707.3,376.8,706.4,377.3z"/>
	<path id="XMLID_96_" class="st12" d="M700.1,380.3l-2.1,1c-0.4,0.2-0.7,0.7-0.7,1.2V407c0,1,1,1.6,1.9,1.1l2.1-1.1
		c0.4-0.2,0.7-0.7,0.7-1.1v-24.5C702,380.5,700.9,379.8,700.1,380.3z"/>
	<path id="XMLID_95_" class="st12" d="M693.6,383.7l-2.1,1c-0.4,0.2-0.7,0.7-0.7,1.2v24.5c0,1,1,1.6,1.9,1.1l2.1-1.1
		c0.4-0.2,0.7-0.7,0.7-1.1v-24.5C695.5,383.9,694.4,383.3,693.6,383.7z"/>
	<path id="XMLID_94_" class="st12" d="M687.2,386.7l-2.1,1c-0.4,0.2-0.7,0.7-0.7,1.2v24.5c0,1,1,1.6,1.9,1.1l2.1-1.1
		c0.4-0.2,0.7-0.7,0.7-1.1v-24.5C689.1,386.9,688.1,386.3,687.2,386.7z"/>
	<path id="XMLID_93_" class="st12" d="M681.4,389.6l-2.1,1c-0.4,0.2-0.7,0.7-0.7,1.2v24.5c0,1,1,1.6,1.9,1.1l2.1-1.1
		c0.4-0.2,0.7-0.7,0.7-1.1v-24.5C683.3,389.8,682.3,389.2,681.4,389.6z"/>
	<path id="XMLID_92_" class="st12" d="M675.1,392.6l-2.1,1c-0.4,0.2-0.7,0.7-0.7,1.2v24.5c0,1,1,1.6,1.9,1.1l2.1-1.1
		c0.4-0.2,0.7-0.7,0.7-1.1v-24.5C677,392.8,675.9,392.2,675.1,392.6z"/>
	<path id="XMLID_91_" class="st12" d="M668.6,396.1l-2.1,1c-0.4,0.2-0.7,0.7-0.7,1.2v24.5c0,1,1,1.6,1.9,1.1l2.1-1.1
		c0.4-0.2,0.7-0.7,0.7-1.1v-24.5C670.5,396.3,669.4,395.6,668.6,396.1z"/>
	<path id="XMLID_90_" class="st12" d="M662.2,399.1l-2.1,1c-0.4,0.2-0.7,0.7-0.7,1.2v24.5c0,1,1,1.6,1.9,1.1l2.1-1.1
		c0.4-0.2,0.7-0.7,0.7-1.1v-24.5C664.1,399.3,663.1,398.6,662.2,399.1z"/>
	<path id="XMLID_89_" class="st12" d="M655.8,402.3l-2.1,1c-0.4,0.2-0.7,0.7-0.7,1.2V429c0,1,1,1.6,1.9,1.1l2.1-1.1
		c0.4-0.2,0.7-0.7,0.7-1.1v-24.5C657.7,402.5,656.7,401.8,655.8,402.3z"/>
	<path id="XMLID_88_" class="st12" d="M649.5,405.3l-2.1,1c-0.4,0.2-0.7,0.7-0.7,1.2V432c0,1,1,1.6,1.9,1.1l2.1-1.1
		c0.4-0.2,0.7-0.7,0.7-1.1v-24.5C651.4,405.5,650.4,404.8,649.5,405.3z"/>
	<path id="XMLID_87_" class="st12" d="M643,408.7l-2.1,1c-0.4,0.2-0.7,0.7-0.7,1.2v24.5c0,1,1,1.6,1.9,1.1l2.1-1.1
		c0.4-0.2,0.7-0.7,0.7-1.1v-24.5C644.9,408.9,643.9,408.2,643,408.7z"/>
	<path id="XMLID_86_" class="st12" d="M636.7,411.7l-2.1,1c-0.4,0.2-0.7,0.7-0.7,1.2v24.5c0,1,1,1.6,1.9,1.1l2.1-1.1
		c0.4-0.2,0.7-0.7,0.7-1.1v-24.5C638.5,411.9,637.5,411.2,636.7,411.7z"/>
	<path id="XMLID_85_" class="st12" d="M630.8,414.6l-2.1,1c-0.4,0.2-0.7,0.7-0.7,1.2v24.5c0,1,1,1.6,1.9,1.1l2.1-1.1
		c0.4-0.2,0.7-0.7,0.7-1.1v-24.5C632.7,414.8,631.7,414.2,630.8,414.6z"/>
	<path id="XMLID_84_" class="st12" d="M624.5,417.6l-2.1,1c-0.4,0.2-0.7,0.7-0.7,1.2v24.5c0,1,1,1.6,1.9,1.1l2.1-1.1
		c0.4-0.2,0.7-0.7,0.7-1.1v-24.5C626.4,417.8,625.4,417.2,624.5,417.6z"/>
	<path id="XMLID_83_" class="st12" d="M618,421l-2.1,1c-0.4,0.2-0.7,0.7-0.7,1.2v24.5c0,1,1,1.6,1.9,1.1l2.1-1.1
		c0.4-0.2,0.7-0.7,0.7-1.1v-24.5C619.9,421.2,618.9,420.6,618,421z"/>
	<path id="XMLID_82_" class="st12" d="M611.7,424l-2.1,1c-0.4,0.2-0.7,0.7-0.7,1.2v24.5c0,1,1,1.6,1.9,1.1l2.1-1.1
		c0.4-0.2,0.7-0.7,0.7-1.1v-24.5C613.5,424.2,612.5,423.6,611.7,424z"/>
	<path id="XMLID_81_" class="st12" d="M604.8,427.4l-2.1,1c-0.4,0.2-0.7,0.7-0.7,1.2v24.5c0,1,1,1.6,1.9,1.1l2.1-1.1
		c0.4-0.2,0.7-0.7,0.7-1.1v-24.5C606.7,427.6,605.7,427,604.8,427.4z"/>
	<path id="XMLID_80_" class="st12" d="M598.5,430.4l-2.1,1c-0.4,0.2-0.7,0.7-0.7,1.2v24.5c0,1,1,1.6,1.9,1.1l2.1-1.1
		c0.4-0.2,0.7-0.7,0.7-1.1v-24.5C600.4,430.6,599.4,430,598.5,430.4z"/>
	<path id="XMLID_79_" class="st12" d="M592.7,433.4l-2.1,1c-0.4,0.2-0.7,0.7-0.7,1.2v24.5c0,1,1,1.6,1.9,1.1l2.1-1.1
		c0.4-0.2,0.7-0.7,0.7-1.1v-24.5C594.5,433.6,593.5,433,592.7,433.4z"/>
	<path id="XMLID_78_" class="st12" d="M586.3,436.4l-2.1,1c-0.4,0.2-0.7,0.7-0.7,1.2v24.5c0,1,1,1.6,1.9,1.1l2.1-1.1
		c0.4-0.2,0.7-0.7,0.7-1.1v-24.5C588.2,436.6,587.2,436,586.3,436.4z"/>
	<path id="XMLID_77_" class="st12" d="M579.8,439.8l-2.1,1c-0.4,0.2-0.7,0.7-0.7,1.2v24.5c0,1,1,1.6,1.9,1.1l2.1-1.1
		c0.4-0.2,0.7-0.7,0.7-1.1V441C581.7,440,580.7,439.4,579.8,439.8z"/>
	<path id="XMLID_76_" class="st12" d="M573.5,442.8l-2.1,1c-0.4,0.2-0.7,0.7-0.7,1.2v24.5c0,1,1,1.6,1.9,1.1l2.1-1.1
		c0.4-0.2,0.7-0.7,0.7-1.1V444C575.4,443,574.4,442.4,573.5,442.8z"/>
	<path id="XMLID_75_" class="st12" d="M567.5,445.8l-2.1,1c-0.4,0.2-0.7,0.7-0.7,1.2v24.5c0,1,1,1.6,1.9,1.1l2.1-1.1
		c0.4-0.2,0.7-0.7,0.7-1.1V447C569.3,446,568.3,445.4,567.5,445.8z"/>
	<path id="XMLID_74_" class="st12" d="M561.6,448.7l-2.1,1c-0.4,0.2-0.7,0.7-0.7,1.2v24.5c0,1,1,1.6,1.9,1.1l2.1-1.1
		c0.4-0.2,0.7-0.7,0.7-1.1v-24.5C563.5,448.9,562.5,448.3,561.6,448.7z"/>
	<path id="XMLID_73_" class="st12" d="M555.3,451.7l-2.1,1c-0.4,0.2-0.7,0.7-0.7,1.2v24.5c0,1,1,1.6,1.9,1.1l2.1-1.1
		c0.4-0.2,0.7-0.7,0.7-1.1v-24.5C557.2,451.9,556.2,451.3,555.3,451.7z"/>
	<path id="XMLID_72_" class="st12" d="M548.8,455.2l-2.1,1c-0.4,0.2-0.7,0.7-0.7,1.2v24.5c0,1,1,1.6,1.9,1.1l2.1-1.1
		c0.4-0.2,0.7-0.7,0.7-1.1v-24.5C550.7,455.4,549.7,454.7,548.8,455.2z"/>
	<path id="XMLID_71_" class="st12" d="M543,458.2l-1.5,1c-0.3,0.2-0.5,0.7-0.5,1.2v24.5c0,1,0.8,1.6,1.4,1.1l1.5-1.1
		c0.3-0.2,0.5-0.7,0.5-1.1v-24.5C544.3,458.4,543.6,457.7,543,458.2z"/>
	<path id="XMLID_222_" class="st12" d="M811.1,317.3l-2.1-1c-0.4-0.2-0.7-0.7-0.7-1.2v-24.5c0-1,1-1.6,1.9-1.1l2.1,1.1
		c0.4,0.2,0.7,0.7,0.7,1.1v24.5C813,317.1,812,317.7,811.1,317.3z"/>
	<path id="XMLID_221_" class="st12" d="M804.6,313.9l-2.1-1c-0.4-0.2-0.7-0.7-0.7-1.2v-24.5c0-1,1-1.6,1.9-1.1l2.1,1.1
		c0.4,0.2,0.7,0.7,0.7,1.1v24.5C806.5,313.7,805.5,314.3,804.6,313.9z"/>
	<path id="XMLID_220_" class="st12" d="M798.3,310.9l-2.1-1c-0.4-0.2-0.7-0.7-0.7-1.2v-24.5c0-1,1-1.6,1.9-1.1l2.1,1.1
		c0.4,0.2,0.7,0.7,0.7,1.1v24.5C800.2,310.7,799.2,311.3,798.3,310.9z"/>
	<path id="XMLID_219_" class="st12" d="M792,307.7l-2.1-1c-0.4-0.2-0.7-0.7-0.7-1.2V281c0-1,1-1.6,1.9-1.1l2.1,1.1
		c0.4,0.2,0.7,0.7,0.7,1.1v24.5C793.8,307.5,792.8,308.1,792,307.7z"/>
	<path id="XMLID_218_" class="st12" d="M785.6,304.7l-2.1-1c-0.4-0.2-0.7-0.7-0.7-1.2V278c0-1,1-1.6,1.9-1.1l2.1,1.1
		c0.4,0.2,0.7,0.7,0.7,1.1v24.5C787.5,304.5,786.5,305.1,785.6,304.7z"/>
	<path id="XMLID_217_" class="st12" d="M779.1,301.3l-2.1-1c-0.4-0.2-0.7-0.7-0.7-1.2v-24.5c0-1,1-1.6,1.9-1.1l2.1,1.1
		c0.4,0.2,0.7,0.7,0.7,1.1v24.5C781,301.1,780,301.7,779.1,301.3z"/>
	<path id="XMLID_216_" class="st12" d="M772.8,298.3l-2.1-1c-0.4-0.2-0.7-0.7-0.7-1.2v-24.5c0-1,1-1.6,1.9-1.1l2.1,1.1
		c0.4,0.2,0.7,0.7,0.7,1.1v24.5C774.7,298.1,773.7,298.7,772.8,298.3z"/>
	<path id="XMLID_215_" class="st12" d="M767,295.3l-2.1-1c-0.4-0.2-0.7-0.7-0.7-1.2v-24.5c0-1,1-1.6,1.9-1.1l2.1,1.1
		c0.4,0.2,0.7,0.7,0.7,1.1v24.5C768.8,295.1,767.8,295.8,767,295.3z"/>
	<path id="XMLID_214_" class="st12" d="M760.6,292.3l-2.1-1c-0.4-0.2-0.7-0.7-0.7-1.2v-24.5c0-1,1-1.6,1.9-1.1l2.1,1.1
		c0.4,0.2,0.7,0.7,0.7,1.1v24.5C762.5,292.1,761.5,292.8,760.6,292.3z"/>
	<path id="XMLID_213_" class="st12" d="M754.1,288.9l-2.1-1c-0.4-0.2-0.7-0.7-0.7-1.2v-24.5c0-1,1-1.6,1.9-1.1l2.1,1.1
		c0.4,0.2,0.7,0.7,0.7,1.1v24.5C756,288.7,755,289.3,754.1,288.9z"/>
	<path id="XMLID_212_" class="st12" d="M747.8,285.9l-2.1-1c-0.4-0.2-0.7-0.7-0.7-1.2v-24.5c0-1,1-1.6,1.9-1.1l2.1,1.1
		c0.4,0.2,0.7,0.7,0.7,1.1v24.5C749.7,285.7,748.7,286.3,747.8,285.9z"/>
	<path id="XMLID_211_" class="st12" d="M741.4,282.7l-2.1-1c-0.4-0.2-0.7-0.7-0.7-1.2V256c0-1,1-1.6,1.9-1.1l2.1,1.1
		c0.4,0.2,0.7,0.7,0.7,1.1v24.5C743.3,282.5,742.2,283.1,741.4,282.7z"/>
	<path id="XMLID_210_" class="st12" d="M735,279.7l-2.1-1c-0.4-0.2-0.7-0.7-0.7-1.2V253c0-1,1-1.6,1.9-1.1l2.1,1.1
		c0.4,0.2,0.7,0.7,0.7,1.1v24.5C736.9,279.5,735.9,280.1,735,279.7z"/>
	<path id="XMLID_209_" class="st12" d="M728.5,276.3l-2.1-1c-0.4-0.2-0.7-0.7-0.7-1.2v-24.5c0-1,1-1.6,1.9-1.1l2.1,1.1
		c0.4,0.2,0.7,0.7,0.7,1.1v24.5C730.4,276.1,729.4,276.7,728.5,276.3z"/>
	<path id="XMLID_208_" class="st12" d="M722.2,273.3l-2.1-1c-0.4-0.2-0.7-0.7-0.7-1.2v-24.5c0-1,1-1.6,1.9-1.1l2.1,1.1
		c0.4,0.2,0.7,0.7,0.7,1.1v24.5C724.1,273.1,723.1,273.7,722.2,273.3z"/>
	<path id="XMLID_207_" class="st12" d="M716.4,270.3l-2.1-1c-0.4-0.2-0.7-0.7-0.7-1.2v-24.5c0-1,1-1.6,1.9-1.1l2.1,1.1
		c0.4,0.2,0.7,0.7,0.7,1.1v24.5C718.3,270.1,717.2,270.8,716.4,270.3z"/>
	<path id="XMLID_206_" class="st12" d="M710,267.3l-2.1-1c-0.4-0.2-0.7-0.7-0.7-1.2v-24.5c0-1,1-1.6,1.9-1.1l2.1,1.1
		c0.4,0.2,0.7,0.7,0.7,1.1v24.5C711.9,267.1,710.9,267.8,710,267.3z"/>
	<path id="XMLID_205_" class="st12" d="M703.5,263.9l-2.1-1c-0.4-0.2-0.7-0.7-0.7-1.2v-24.5c0-1,1-1.6,1.9-1.1l2.1,1.1
		c0.4,0.2,0.7,0.7,0.7,1.1v24.5C705.4,263.7,704.4,264.4,703.5,263.9z"/>
	<path id="XMLID_204_" class="st12" d="M697.2,260.9l-2.1-1c-0.4-0.2-0.7-0.7-0.7-1.2v-24.5c0-1,1-1.6,1.9-1.1l2.1,1.1
		c0.4,0.2,0.7,0.7,0.7,1.1v24.5C699.1,260.7,698.1,261.4,697.2,260.9z"/>
	<path id="XMLID_203_" class="st12" d="M690.8,257.7l-2.1-1c-0.4-0.2-0.7-0.7-0.7-1.2V231c0-1,1-1.6,1.9-1.1l2.1,1.1
		c0.4,0.2,0.7,0.7,0.7,1.1v24.5C692.7,257.5,691.7,258.2,690.8,257.7z"/>
	<path id="XMLID_202_" class="st12" d="M684.5,254.7l-2.1-1c-0.4-0.2-0.7-0.7-0.7-1.2V228c0-1,1-1.6,1.9-1.1l2.1,1.1
		c0.4,0.2,0.7,0.7,0.7,1.1v24.5C686.4,254.5,685.4,255.2,684.5,254.7z"/>
	<path id="XMLID_201_" class="st12" d="M678,251.3l-2.1-1c-0.4-0.2-0.7-0.7-0.7-1.2v-24.5c0-1,1-1.6,1.9-1.1l2.1,1.1
		c0.4,0.2,0.7,0.7,0.7,1.1v24.5C679.9,251.1,678.9,251.8,678,251.3z"/>
	<path id="XMLID_200_" class="st12" d="M671.7,248.3l-2.1-1c-0.4-0.2-0.7-0.7-0.7-1.2v-24.5c0-1,1-1.6,1.9-1.1l2.1,1.1
		c0.4,0.2,0.7,0.7,0.7,1.1v24.5C673.5,248.1,672.5,248.8,671.7,248.3z"/>
	<path id="XMLID_199_" class="st12" d="M665.8,245.4l-2.1-1c-0.4-0.2-0.7-0.7-0.7-1.2v-24.5c0-1,1-1.6,1.9-1.1l2.1,1.1
		c0.4,0.2,0.7,0.7,0.7,1.1v24.5C667.7,245.2,666.7,245.8,665.8,245.4z"/>
	<path id="XMLID_198_" class="st12" d="M659.5,242.4l-2.1-1c-0.4-0.2-0.7-0.7-0.7-1.2v-24.5c0-1,1-1.6,1.9-1.1l2.1,1.1
		c0.4,0.2,0.7,0.7,0.7,1.1v24.5C661.4,242.2,660.4,242.8,659.5,242.4z"/>
	<path id="XMLID_197_" class="st12" d="M653,239l-2.1-1c-0.4-0.2-0.7-0.7-0.7-1.2v-24.5c0-1,1-1.6,1.9-1.1l2.1,1.1
		c0.4,0.2,0.7,0.7,0.7,1.1v24.5C654.9,238.8,653.9,239.4,653,239z"/>
	<path id="XMLID_196_" class="st12" d="M646.7,236l-2.1-1c-0.4-0.2-0.7-0.7-0.7-1.2v-24.5c0-1,1-1.6,1.9-1.1l2.1,1.1
		c0.4,0.2,0.7,0.7,0.7,1.1v24.5C648.5,235.8,647.5,236.4,646.7,236z"/>
	<path id="XMLID_195_" class="st12" d="M640.3,232.8l-2.1-1c-0.4-0.2-0.7-0.7-0.7-1.2V206c0-1,1-1.6,1.9-1.1l2.1,1.1
		c0.4,0.2,0.7,0.7,0.7,1.1v24.5C642.2,232.6,641.2,233.2,640.3,232.8z"/>
	<path id="XMLID_194_" class="st12" d="M634,229.8l-2.1-1c-0.4-0.2-0.7-0.7-0.7-1.2V203c0-1,1-1.6,1.9-1.1l2.1,1.1
		c0.4,0.2,0.7,0.7,0.7,1.1v24.5C635.9,229.6,634.9,230.2,634,229.8z"/>
	<path id="XMLID_193_" class="st12" d="M627.5,226.3l-2.1-1c-0.4-0.2-0.7-0.7-0.7-1.2v-24.5c0-1,1-1.6,1.9-1.1l2.1,1.1
		c0.4,0.2,0.7,0.7,0.7,1.1v24.5C629.4,226.1,628.4,226.8,627.5,226.3z"/>
	<path id="XMLID_192_" class="st12" d="M621.2,223.3l-2.1-1c-0.4-0.2-0.7-0.7-0.7-1.2v-24.5c0-1,1-1.6,1.9-1.1l2.1,1.1
		c0.4,0.2,0.7,0.7,0.7,1.1v24.5C623,223.1,622,223.8,621.2,223.3z"/>
	<path id="XMLID_191_" class="st12" d="M615.3,220.4l-2.1-1c-0.4-0.2-0.7-0.7-0.7-1.2v-24.5c0-1,1-1.6,1.9-1.1l2.1,1.1
		c0.4,0.2,0.7,0.7,0.7,1.1v24.5C617.2,220.2,616.2,220.8,615.3,220.4z"/>
	<path id="XMLID_190_" class="st12" d="M609,217.4l-2.1-1c-0.4-0.2-0.7-0.7-0.7-1.2v-24.5c0-1,1-1.6,1.9-1.1l2.1,1.1
		c0.4,0.2,0.7,0.7,0.7,1.1v24.5C610.9,217.2,609.9,217.8,609,217.4z"/>
	<path id="XMLID_189_" class="st12" d="M602.5,214l-2.1-1c-0.4-0.2-0.7-0.7-0.7-1.2v-24.5c0-1,1-1.6,1.9-1.1l2.1,1.1
		c0.4,0.2,0.7,0.7,0.7,1.1v24.5C604.4,213.8,603.4,214.4,602.5,214z"/>
	<path id="XMLID_188_" class="st12" d="M596.2,211l-2.1-1c-0.4-0.2-0.7-0.7-0.7-1.2v-24.5c0-1,1-1.6,1.9-1.1l2.1,1.1
		c0.4,0.2,0.7,0.7,0.7,1.1v24.5C598,210.8,597,211.4,596.2,211z"/>
	<path id="XMLID_187_" class="st12" d="M589.7,207.8l-2.1-1c-0.4-0.2-0.7-0.7-0.7-1.2v-24.5c0-1,1-1.6,1.9-1.1l2.1,1.1
		c0.4,0.2,0.7,0.7,0.7,1.1v24.5C591.6,207.6,590.6,208.2,589.7,207.8z"/>
	<path id="XMLID_186_" class="st12" d="M583.4,204.8l-2.1-1c-0.4-0.2-0.7-0.7-0.7-1.2v-24.5c0-1,1-1.6,1.9-1.1l2.1,1.1
		c0.4,0.2,0.7,0.7,0.7,1.1v24.5C585.3,204.6,584.3,205.2,583.4,204.8z"/>
	<path id="XMLID_185_" class="st12" d="M576.9,201.4l-2.1-1c-0.4-0.2-0.7-0.7-0.7-1.2v-24.5c0-1,1-1.6,1.9-1.1l2.1,1.1
		c0.4,0.2,0.7,0.7,0.7,1.1v24.5C578.8,201.2,577.8,201.8,576.9,201.4z"/>
	<path id="XMLID_184_" class="st12" d="M570.6,198.4l-2.1-1c-0.4-0.2-0.7-0.7-0.7-1.2v-24.5c0-1,1-1.6,1.9-1.1l2.1,1.1
		c0.4,0.2,0.7,0.7,0.7,1.1v24.5C572.5,198.2,571.4,198.8,570.6,198.4z"/>
	<path id="XMLID_183_" class="st12" d="M564.7,195.4l-2.1-1c-0.4-0.2-0.7-0.7-0.7-1.2v-24.5c0-1,1-1.6,1.9-1.1l2.1,1.1
		c0.4,0.2,0.7,0.7,0.7,1.1v24.5C566.6,195.2,565.6,195.8,564.7,195.4z"/>
	<path id="XMLID_182_" class="st12" d="M558.4,192.4l-2.1-1c-0.4-0.2-0.7-0.7-0.7-1.2v-24.5c0-1,1-1.6,1.9-1.1l2.1,1.1
		c0.4,0.2,0.7,0.7,0.7,1.1v24.5C560.3,192.2,559.3,192.8,558.4,192.4z"/>
	<path id="XMLID_181_" class="st12" d="M551.9,189l-2.1-1c-0.4-0.2-0.7-0.7-0.7-1.2v-24.5c0-1,1-1.6,1.9-1.1l2.1,1.1
		c0.4,0.2,0.7,0.7,0.7,1.1v24.5C553.8,188.8,552.8,189.4,551.9,189z"/>
	<path id="XMLID_180_" class="st12" d="M545.6,186l-2.1-1c-0.4-0.2-0.7-0.7-0.7-1.2v-24.5c0-1,1-1.6,1.9-1.1l2.1,1.1
		c0.4,0.2,0.7,0.7,0.7,1.1v24.5C547.5,185.8,546.4,186.4,545.6,186z"/>
	<path id="XMLID_179_" class="st12" d="M538.7,182.6l-2.1-1c-0.4-0.2-0.7-0.7-0.7-1.2v-24.5c0-1,1-1.6,1.9-1.1l2.1,1.1
		c0.4,0.2,0.7,0.7,0.7,1.1v24.5C540.6,182.4,539.6,183,538.7,182.6z"/>
	<path id="XMLID_178_" class="st12" d="M532.4,179.6l-2.1-1c-0.4-0.2-0.7-0.7-0.7-1.2v-24.5c0-1,1-1.6,1.9-1.1l2.1,1.1
		c0.4,0.2,0.7,0.7,0.7,1.1v24.5C534.3,179.4,533.3,180,532.4,179.6z"/>
	<path id="XMLID_177_" class="st12" d="M526.6,176.6l-2.1-1c-0.4-0.2-0.7-0.7-0.7-1.2v-24.5c0-1,1-1.6,1.9-1.1l2.1,1.1
		c0.4,0.2,0.7,0.7,0.7,1.1v24.5C528.5,176.5,527.4,177.1,526.6,176.6z"/>
	<path id="XMLID_176_" class="st12" d="M520.2,173.6l-2.1-1c-0.4-0.2-0.7-0.7-0.7-1.2v-24.5c0-1,1-1.6,1.9-1.1l2.1,1.1
		c0.4,0.2,0.7,0.7,0.7,1.1v24.5C522.1,173.5,521.1,174.1,520.2,173.6z"/>
	<path id="XMLID_175_" class="st12" d="M513.7,170.2l-2.1-1c-0.4-0.2-0.7-0.7-0.7-1.2v-24.5c0-1,1-1.6,1.9-1.1l2.1,1.1
		c0.4,0.2,0.7,0.7,0.7,1.1v24.5C515.6,170,514.6,170.7,513.7,170.2z"/>
	<path id="XMLID_174_" class="st12" d="M507.4,167.2l-2.1-1c-0.4-0.2-0.7-0.7-0.7-1.2v-24.5c0-1,1-1.6,1.9-1.1l2.1,1.1
		c0.4,0.2,0.7,0.7,0.7,1.1v24.5C509.3,167,508.3,167.7,507.4,167.2z"/>
	<path id="XMLID_173_" class="st12" d="M501.4,164.3l-2.1-1c-0.4-0.2-0.7-0.7-0.7-1.2v-24.5c0-1,1-1.6,1.9-1.1l2.1,1.1
		c0.4,0.2,0.7,0.7,0.7,1.1v24.5C503.3,164.1,502.2,164.7,501.4,164.3z"/>
	<path id="XMLID_172_" class="st12" d="M495.5,161.3l-2.1-1c-0.4-0.2-0.7-0.7-0.7-1.2v-24.5c0-1,1-1.6,1.9-1.1l2.1,1.1
		c0.4,0.2,0.7,0.7,0.7,1.1v24.5C497.4,161.1,496.4,161.7,495.5,161.3z"/>
	<path id="XMLID_171_" class="st12" d="M489.2,158.3l-2.1-1c-0.4-0.2-0.7-0.7-0.7-1.2v-24.5c0-1,1-1.6,1.9-1.1l2.1,1.1
		c0.4,0.2,0.7,0.7,0.7,1.1v24.5C491.1,158.1,490.1,158.7,489.2,158.3z"/>
	<path id="XMLID_170_" class="st12" d="M482.7,154.9l-2.1-1c-0.4-0.2-0.7-0.7-0.7-1.2v-24.5c0-1,1-1.6,1.9-1.1l2.1,1.1
		c0.4,0.2,0.7,0.7,0.7,1.1v24.5C484.6,154.7,483.6,155.3,482.7,154.9z"/>
	<path id="XMLID_169_" class="st12" d="M476.9,151.9l-1.5-1c-0.3-0.2-0.5-0.7-0.5-1.2v-24.5c0-1,0.8-1.6,1.4-1.1l1.5,1.1
		c0.3,0.2,0.5,0.7,0.5,1.1v24.5C478.3,151.7,477.5,152.3,476.9,151.9z"/>
	<path id="XMLID_163_" class="st12" d="M198.5,284.1l2.1-1c0.4-0.2,0.7-0.7,0.7-1.2v-24.5c0-1-1-1.6-1.9-1.1l-2.1,1.1
		c-0.4,0.2-0.7,0.7-0.7,1.1V283C196.6,283.9,197.6,284.6,198.5,284.1z"/>
	<path id="XMLID_162_" class="st12" d="M204.9,280.9l2.1-1c0.4-0.2,0.7-0.7,0.7-1.2v-24.5c0-1-1-1.6-1.9-1.1l-2.1,1.1
		c-0.4,0.2-0.7,0.7-0.7,1.1v24.5C203,280.7,204,281.4,204.9,280.9z"/>
	<path id="XMLID_161_" class="st12" d="M211.2,277.9l2.1-1c0.4-0.2,0.7-0.7,0.7-1.2v-24.5c0-1-1-1.6-1.9-1.1l-2.1,1.1
		c-0.4,0.2-0.7,0.7-0.7,1.1v24.5C209.3,277.7,210.3,278.4,211.2,277.9z"/>
	<path id="XMLID_160_" class="st12" d="M217.7,274.5l2.1-1c0.4-0.2,0.7-0.7,0.7-1.2v-24.5c0-1-1-1.6-1.9-1.1l-2.1,1.1
		c-0.4,0.2-0.7,0.7-0.7,1.1v24.5C215.8,274.3,216.8,274.9,217.7,274.5z"/>
	<path id="XMLID_159_" class="st12" d="M224,271.5l2.1-1c0.4-0.2,0.7-0.7,0.7-1.2v-24.5c0-1-1-1.6-1.9-1.1l-2.1,1.1
		c-0.4,0.2-0.7,0.7-0.7,1.1v24.5C222.2,271.3,223.2,271.9,224,271.5z"/>
	<path id="XMLID_158_" class="st12" d="M229.9,268.6l2.1-1c0.4-0.2,0.7-0.7,0.7-1.2v-24.5c0-1-1-1.6-1.9-1.1l-2.1,1.1
		c-0.4,0.2-0.7,0.7-0.7,1.1v24.5C228,268.4,229,269,229.9,268.6z"/>
	<path id="XMLID_157_" class="st12" d="M236.2,265.6l2.1-1c0.4-0.2,0.7-0.7,0.7-1.2v-24.5c0-1-1-1.6-1.9-1.1l-2.1,1.1
		c-0.4,0.2-0.7,0.7-0.7,1.1v24.5C234.3,265.4,235.3,266,236.2,265.6z"/>
	<path id="XMLID_156_" class="st12" d="M242.7,262.1l2.1-1c0.4-0.2,0.7-0.7,0.7-1.2v-24.5c0-1-1-1.6-1.9-1.1l-2.1,1.1
		c-0.4,0.2-0.7,0.7-0.7,1.1V261C240.8,261.9,241.8,262.6,242.7,262.1z"/>
	<path id="XMLID_155_" class="st12" d="M249,259.1l2.1-1c0.4-0.2,0.7-0.7,0.7-1.2v-24.5c0-1-1-1.6-1.9-1.1l-2.1,1.1
		c-0.4,0.2-0.7,0.7-0.7,1.1V258C247.2,258.9,248.2,259.6,249,259.1z"/>
	<path id="XMLID_154_" class="st12" d="M255.4,256l2.1-1c0.4-0.2,0.7-0.7,0.7-1.2v-24.5c0-1-1-1.6-1.9-1.1l-2.1,1.1
		c-0.4,0.2-0.7,0.7-0.7,1.1v24.5C253.5,255.8,254.6,256.4,255.4,256z"/>
	<path id="XMLID_153_" class="st12" d="M261.8,253l2.1-1c0.4-0.2,0.7-0.7,0.7-1.2v-24.5c0-1-1-1.6-1.9-1.1l-2.1,1.1
		c-0.4,0.2-0.7,0.7-0.7,1.1v24.5C259.9,252.8,260.9,253.4,261.8,253z"/>
	<path id="XMLID_152_" class="st12" d="M268.3,249.5l2.1-1c0.4-0.2,0.7-0.7,0.7-1.2v-24.5c0-1-1-1.6-1.9-1.1l-2.1,1.1
		c-0.4,0.2-0.7,0.7-0.7,1.1v24.5C266.4,249.3,267.4,250,268.3,249.5z"/>
	<path id="XMLID_151_" class="st12" d="M274.6,246.5l2.1-1c0.4-0.2,0.7-0.7,0.7-1.2v-24.5c0-1-1-1.6-1.9-1.1l-2.1,1.1
		c-0.4,0.2-0.7,0.7-0.7,1.1v24.5C272.7,246.3,273.7,247,274.6,246.5z"/>
	<path id="XMLID_150_" class="st12" d="M280.4,243.6l2.1-1c0.4-0.2,0.7-0.7,0.7-1.2v-24.5c0-1-1-1.6-1.9-1.1l-2.1,1.1
		c-0.4,0.2-0.7,0.7-0.7,1.1v24.5C278.5,243.4,279.6,244,280.4,243.6z"/>
	<path id="XMLID_149_" class="st12" d="M286.8,240.6l2.1-1c0.4-0.2,0.7-0.7,0.7-1.2v-24.5c0-1-1-1.6-1.9-1.1l-2.1,1.1
		c-0.4,0.2-0.7,0.7-0.7,1.1v24.5C284.9,240.4,285.9,241,286.8,240.6z"/>
	<path id="XMLID_148_" class="st12" d="M293.3,237.2l2.1-1c0.4-0.2,0.7-0.7,0.7-1.2v-24.5c0-1-1-1.6-1.9-1.1l-2.1,1.1
		c-0.4,0.2-0.7,0.7-0.7,1.1V236C291.4,237,292.4,237.6,293.3,237.2z"/>
	<path id="XMLID_147_" class="st12" d="M299.6,234.2l2.1-1c0.4-0.2,0.7-0.7,0.7-1.2v-24.5c0-1-1-1.6-1.9-1.1l-2.1,1.1
		c-0.4,0.2-0.7,0.7-0.7,1.1V233C297.7,234,298.7,234.6,299.6,234.2z"/>
	<path id="XMLID_146_" class="st12" d="M305.9,231l2.1-1c0.4-0.2,0.7-0.7,0.7-1.2v-24.5c0-1-1-1.6-1.9-1.1l-2.1,1.1
		c-0.4,0.2-0.7,0.7-0.7,1.1v24.5C304,230.8,305.1,231.4,305.9,231z"/>
	<path id="XMLID_145_" class="st12" d="M312.3,228l2.1-1c0.4-0.2,0.7-0.7,0.7-1.2v-24.5c0-1-1-1.6-1.9-1.1l-2.1,1.1
		c-0.4,0.2-0.7,0.7-0.7,1.1v24.5C310.4,227.8,311.4,228.4,312.3,228z"/>
	<path id="XMLID_144_" class="st12" d="M318.8,224.6l2.1-1c0.4-0.2,0.7-0.7,0.7-1.2v-24.5c0-1-1-1.6-1.9-1.1l-2.1,1.1
		c-0.4,0.2-0.7,0.7-0.7,1.1v24.5C316.9,224.4,317.9,225,318.8,224.6z"/>
	<path id="XMLID_143_" class="st12" d="M325.1,221.6l2.1-1c0.4-0.2,0.7-0.7,0.7-1.2v-24.5c0-1-1-1.6-1.9-1.1l-2.1,1.1
		c-0.4,0.2-0.7,0.7-0.7,1.1v24.5C323.2,221.4,324.2,222,325.1,221.6z"/>
	<path id="XMLID_142_" class="st12" d="M330.9,218.6l2.1-1c0.4-0.2,0.7-0.7,0.7-1.2v-24.5c0-1-1-1.6-1.9-1.1l-2.1,1.1
		c-0.4,0.2-0.7,0.7-0.7,1.1v24.5C329,218.4,330.1,219,330.9,218.6z"/>
	<path id="XMLID_141_" class="st12" d="M337.3,215.6l2.1-1c0.4-0.2,0.7-0.7,0.7-1.2v-24.5c0-1-1-1.6-1.9-1.1l-2.1,1.1
		c-0.4,0.2-0.7,0.7-0.7,1.1v24.5C335.4,215.4,336.4,216,337.3,215.6z"/>
	<path id="XMLID_140_" class="st12" d="M343.8,212.2l2.1-1c0.4-0.2,0.7-0.7,0.7-1.2v-24.5c0-1-1-1.6-1.9-1.1l-2.1,1.1
		c-0.4,0.2-0.7,0.7-0.7,1.1V211C341.9,212,342.9,212.6,343.8,212.2z"/>
	<path id="XMLID_139_" class="st12" d="M350.1,209.2l2.1-1c0.4-0.2,0.7-0.7,0.7-1.2v-24.5c0-1-1-1.6-1.9-1.1l-2.1,1.1
		c-0.4,0.2-0.7,0.7-0.7,1.1V208C348.2,209,349.2,209.6,350.1,209.2z"/>
	<path id="XMLID_138_" class="st12" d="M356.5,206l2.1-1c0.4-0.2,0.7-0.7,0.7-1.2v-24.5c0-1-1-1.6-1.9-1.1l-2.1,1.1
		c-0.4,0.2-0.7,0.7-0.7,1.1v24.5C354.6,205.8,355.6,206.4,356.5,206z"/>
	<path id="XMLID_137_" class="st12" d="M362.8,203l2.1-1c0.4-0.2,0.7-0.7,0.7-1.2v-24.5c0-1-1-1.6-1.9-1.1l-2.1,1.1
		c-0.4,0.2-0.7,0.7-0.7,1.1v24.5C361,202.8,362,203.4,362.8,203z"/>
	<path id="XMLID_136_" class="st12" d="M369.3,199.6l2.1-1c0.4-0.2,0.7-0.7,0.7-1.2v-24.5c0-1-1-1.6-1.9-1.1l-2.1,1.1
		c-0.4,0.2-0.7,0.7-0.7,1.1v24.5C367.5,199.4,368.5,200,369.3,199.6z"/>
	<path id="XMLID_135_" class="st12" d="M375.7,196.6l2.1-1c0.4-0.2,0.7-0.7,0.7-1.2v-24.5c0-1-1-1.6-1.9-1.1l-2.1,1.1
		c-0.4,0.2-0.7,0.7-0.7,1.1v24.5C373.8,196.4,374.8,197,375.7,196.6z"/>
	<path id="XMLID_134_" class="st12" d="M381.5,193.6l2.1-1c0.4-0.2,0.7-0.7,0.7-1.2v-24.5c0-1-1-1.6-1.9-1.1l-2.1,1.1
		c-0.4,0.2-0.7,0.7-0.7,1.1v24.5C379.6,193.4,380.6,194.1,381.5,193.6z"/>
	<path id="XMLID_133_" class="st12" d="M387.8,190.6l2.1-1c0.4-0.2,0.7-0.7,0.7-1.2v-24.5c0-1-1-1.6-1.9-1.1l-2.1,1.1
		c-0.4,0.2-0.7,0.7-0.7,1.1v24.5C386,190.4,387,191.1,387.8,190.6z"/>
	<path id="XMLID_132_" class="st12" d="M394.3,187.2l2.1-1c0.4-0.2,0.7-0.7,0.7-1.2v-24.5c0-1-1-1.6-1.9-1.1l-2.1,1.1
		c-0.4,0.2-0.7,0.7-0.7,1.1v24.5C392.5,187,393.5,187.6,394.3,187.2z"/>
	<path id="XMLID_131_" class="st12" d="M400.7,184.2l2.1-1c0.4-0.2,0.7-0.7,0.7-1.2v-24.5c0-1-1-1.6-1.9-1.1l-2.1,1.1
		c-0.4,0.2-0.7,0.7-0.7,1.1v24.5C398.8,184,399.8,184.6,400.7,184.2z"/>
	<path id="XMLID_130_" class="st12" d="M407.5,180.8l2.1-1c0.4-0.2,0.7-0.7,0.7-1.2v-24.5c0-1-1-1.6-1.9-1.1l-2.1,1.1
		c-0.4,0.2-0.7,0.7-0.7,1.1v24.5C405.6,180.6,406.6,181.3,407.5,180.8z"/>
	<path id="XMLID_129_" class="st12" d="M413.8,177.8l2.1-1c0.4-0.2,0.7-0.7,0.7-1.2v-24.5c0-1-1-1.6-1.9-1.1l-2.1,1.1
		c-0.4,0.2-0.7,0.7-0.7,1.1v24.5C412,177.6,413,178.3,413.8,177.8z"/>
	<path id="XMLID_128_" class="st12" d="M419.7,174.9l2.1-1c0.4-0.2,0.7-0.7,0.7-1.2v-24.5c0-1-1-1.6-1.9-1.1l-2.1,1.1
		c-0.4,0.2-0.7,0.7-0.7,1.1v24.5C417.8,174.7,418.8,175.3,419.7,174.9z"/>
	<path id="XMLID_127_" class="st12" d="M426,171.9l2.1-1c0.4-0.2,0.7-0.7,0.7-1.2v-24.5c0-1-1-1.6-1.9-1.1l-2.1,1.1
		c-0.4,0.2-0.7,0.7-0.7,1.1v24.5C424.1,171.7,425.1,172.3,426,171.9z"/>
	<path id="XMLID_126_" class="st12" d="M432.5,168.4l2.1-1c0.4-0.2,0.7-0.7,0.7-1.2v-24.5c0-1-1-1.6-1.9-1.1l-2.1,1.1
		c-0.4,0.2-0.7,0.7-0.7,1.1v24.5C430.6,168.3,431.6,168.9,432.5,168.4z"/>
	<path id="XMLID_125_" class="st12" d="M438.8,165.4l2.1-1c0.4-0.2,0.7-0.7,0.7-1.2v-24.5c0-1-1-1.6-1.9-1.1l-2.1,1.1
		c-0.4,0.2-0.7,0.7-0.7,1.1v24.5C437,165.3,438,165.9,438.8,165.4z"/>
	<path id="XMLID_124_" class="st12" d="M444.9,162.5l2.1-1c0.4-0.2,0.7-0.7,0.7-1.2v-24.5c0-1-1-1.6-1.9-1.1l-2.1,1.1
		c-0.4,0.2-0.7,0.7-0.7,1.1v24.5C443,162.3,444,162.9,444.9,162.5z"/>
	<path id="XMLID_123_" class="st12" d="M450.7,159.5l2.1-1c0.4-0.2,0.7-0.7,0.7-1.2v-24.5c0-1-1-1.6-1.9-1.1l-2.1,1.1
		c-0.4,0.2-0.7,0.7-0.7,1.1v24.5C448.8,159.3,449.8,159.9,450.7,159.5z"/>
	<path id="XMLID_122_" class="st12" d="M457,156.5l2.1-1c0.4-0.2,0.7-0.7,0.7-1.2v-24.5c0-1-1-1.6-1.9-1.1l-2.1,1.1
		c-0.4,0.2-0.7,0.7-0.7,1.1v24.5C455.2,156.3,456.2,156.9,457,156.5z"/>
	<path id="XMLID_121_" class="st12" d="M463.5,153.1l2.1-1c0.4-0.2,0.7-0.7,0.7-1.2v-24.5c0-1-1-1.6-1.9-1.1l-2.1,1.1
		c-0.4,0.2-0.7,0.7-0.7,1.1v24.5C461.7,152.9,462.7,153.5,463.5,153.1z"/>
	<path id="XMLID_120_" class="st12" d="M469.4,150.1l1.5-1c0.3-0.2,0.5-0.7,0.5-1.2v-24.5c0-1-0.8-1.6-1.4-1.1l-1.5,1.1
		c-0.3,0.2-0.5,0.7-0.5,1.1v24.5C468,149.9,468.7,150.5,469.4,150.1z"/>
</g>
<g id="house">
	<polygon id="XMLID_229_" class="st15" points="439.4,373.7 281.9,296.4 281.9,293.7 439.4,370.3 	"/>
	<polygon id="XMLID_231_" class="st15" points="439.4,370.3 439.4,373.7 474,390.8 681,290.6 681,287.1 	"/>
	<polygon id="XMLID_230_" class="st16" points="440.5,371.2 473.7,387.6 681,287.1 576.8,240 397.1,349.7 	"/>
	<polygon id="wallRight" class="st17" points="439.4,270.8 439.4,370.3 614.4,284.8 614.4,171.3 538.4,171.3 	"/>
	<polygon id="wallLeft" class="st17" points="438.5,370.3 282.5,293.8 282.5,213.3 308.5,224.8 323,213.3 438.5,269.3 	"/>
	<polygon id="XMLID_243_" class="st18" points="316.1,248.9 351.8,266.3 351.7,269.3 316.2,252.2 	"/>
	<polygon id="XMLID_168_" class="st19" points="278.1,216.6 278.1,217.5 307.1,231.1 324.1,215.7 323,215.5 307.1,230 	"/>
	<polygon id="XMLID_4_" class="st19" points="322.1,216.3 442.1,272.4 442.1,271.4 322.9,215.1 	"/>
	<polygon id="XMLID_228_" class="st19" points="442.1,272.4 540.6,175.1 645.4,173.3 645.4,171.5 539.5,173.5 442,271 	"/>
	<polygon id="XMLID_245_" class="st20" points="446.7,257.6 491.1,237.1 491.1,278.1 446.7,298.6 	"/>
	<polygon id="XMLID_244_" class="st20" points="507.4,229.7 551.8,209.2 551.8,250.2 507.4,270.7 	"/>
	<polygon id="XMLID_246_" class="st20" points="549.1,271.2 611.5,241.7 611.5,282.7 549.1,312.2 	"/>
	<polygon id="XMLID_247_" class="st20" points="466.4,306 510.7,285.5 510.7,318.4 466.4,338.9 	"/>
	<polygon id="XMLID_248_" class="st20" points="564.8,203.1 609.1,182.5 609.1,223.5 564.8,244.1 	"/>
	<polygon id="XMLID_249_" class="st20" points="460.6,251.4 620.6,177.2 620.3,167.4 460.6,240.4 	"/>
	<polygon id="XMLID_251_" class="st21" points="448.8,258.8 448.8,294.9 460.6,289.6 460.6,254.3 	"/>
	<polygon id="XMLID_3_" class="st22" points="279,216.5 307,229.5 327.5,211 297.5,200 	"/>
	<polygon id="roof" class="st22" points="303.5,206 442,271 539.5,173.5 645,171.5 645,167 510.5,99.5 403,99.5 	"/>
	<polygon id="XMLID_233_" class="st23" points="317,313.5 294,323 259.1,306.1 259.1,303.5 282.5,294.3 317,311 	"/>
	<polygon id="XMLID_235_" class="st24" points="282.5,294.3 316.1,311 294,320 259.9,303.4 	"/>
	<polygon id="XMLID_236_" class="st25" points="266.4,244.3 266.4,304.1 271,306.3 271,246.3 	"/>
	<polygon id="XMLID_237_" class="st25" points="271.9,306.3 271.9,246.5 276.6,244.3 276.6,304.3 	"/>
	<polygon id="XMLID_238_" class="st25" points="284.9,295 284.9,252.2 300,257.6 300,302.5 	"/>
	<polygon id="XMLID_239_" class="st26" points="315.4,251.6 315.4,306.3 305.1,301.4 305.3,247.8 	"/>
	<polygon id="XMLID_234_" class="st27" points="259.5,243.7 259.5,246.7 292.9,260.6 316.2,252.2 316.2,248.8 	"/>
	<polygon id="XMLID_232_" class="st17" points="293,257 260.7,243.7 282.9,235.6 315.1,248.8 	"/>
	<polygon id="XMLID_240_" class="st28" points="426.1,317.7 342.3,278.7 342.5,265.7 426.2,304.7 	"/>
	<polygon id="XMLID_241_" class="st28" points="343.2,265.1 355.2,260.5 435.9,298.5 426.9,304.1 	"/>
	<polygon id="XMLID_242_" class="st28" points="426.9,304.4 426.9,317.7 436.3,312.6 436.3,299.2 	"/>
	<polygon id="XMLID_250_" class="st21" points="478.8,245.8 478.8,281.4 489.1,276.4 489.1,241.1 	"/>
	<polygon id="XMLID_252_" class="st21" points="539.7,217.9 539.7,253.6 550,248.6 550,213.3 	"/>
	<polygon id="XMLID_253_" class="st21" points="509.4,232.2 509.4,267.8 519.7,262.9 519.7,227.5 	"/>
	<g id="backgroundWindow">
		<polygon id="background_x5F_Wall" class="st29" points="464.6,252 464.6,287.6 474.9,282.7 474.9,247.3 		"/>
		<polygon id="background_x5F_Wall_1_" class="st29" points="524.5,224.8 524.5,260.5 534.8,255.5 534.8,220.2 		"/>
		<polygon id="background_x5F_Wall_2_" class="st29" points="567.8,205 567.8,240.7 585.3,232.4 585.3,197 		"/>
		<polygon id="background_x5F_Wall_3_" class="st29" points="589.3,194.9 589.3,230.6 606.8,222.2 606.8,186.9 		"/>
	</g>
	<polygon id="frame" class="st20" points="346.3,286 346.3,301 360.3,308.1 360.3,292.5 	"/>
	<polygon id="dark" class="st30" points="348.6,289.9 348.6,299.9 358,304.7 358,294.2 	"/>
	<polygon id="XMLID_260_" class="st29" points="468.9,307.2 468.9,335.3 508.2,316.7 508.3,289.2 	"/>
	<polyline id="XMLID_261_" class="st29" points="551.8,272 551.8,308.5 609.1,281.4 609.1,245.4 551.8,272 	"/>
</g>
<g id="ACTIVE_x5F_WINDOW_x5F_LEFT_x5F_WALL">
	<polygon id="ACTIVE_x5F_GLASS" class="st31" points="348.6,289.6 348.6,299.7 358,304.5 358,294 	"/>
</g>
<g id="ACTIVE_x5F_WINDOW_x5F_1RIGHT_x5F_WALL">
	<polygon id="XMLID_254_" class="st32" points="464.6,288.3 475.4,283.3 475.4,246.8 464.6,251.4 	"/>
</g>
<g id="ACTIVE_x5F_WINDOW_x5F_2_x5F_RIGHTWALL">
	<polygon id="XMLID_255_" class="st33" points="524,261.3 535.2,255.9 535.2,219.6 524,224.7 	"/>
</g>
<g id="ACTIVE_x5F_WINDOW_x5F_3LEFTHALF">
	<polygon id="XMLID_256_" class="st32" points="567.8,204.9 567.8,240.3 585.3,232.4 585.3,196.9 	"/>
</g>
<g id="ACTIVE_x5F_WINDOW_x5F_3RIGHTHALF">
	<polygon id="XMLID_257_" class="st34" points="589.3,195.3 589.3,230.2 606.8,222.6 606.8,187.3 	"/>
</g>
<g id="ACTIVE_x5F_WINDOW_x5F_4_x5F_RIGHT_x5F_WALL">
	<polygon id="XMLID_258_" class="st33" points="468.9,307.2 468.9,335.3 508.3,316.8 508.3,289 	"/>
</g>
<g id="ACTIVE_x5F_WINDOW_x5F_5_x5F_RIGHT_x5F_WALL">
	<polygon id="XMLID_259_" class="st35" points="551.8,272 551.8,308.5 609.1,281.4 609.1,245.4 	"/>
</g>
<g id="trees">
	<path id="XMLID_262_" class="st36" d="M426.6,397.5c0,0-3.2,4.5,8.7,1.7c0,0,0.1-3,4.2,0.4c4,3.4,9.3-0.4,9.3-0.4s0.5-4.6,5.8-1.5
		c5.3,3.1,8.7,2,8.7,2s-14.8-40-11-84.5c0,0,3.3-20.8,15.1-21.4c0,0,9.9-2.4,9.2-6c0,0-18.8,5.2-21.1,12.6s-3.9-12.5,5.9-20.3
		c9.8-7.8,12.5-28.8,12.5-28.8s4.3-7.1,9.2-4.1l-4-3.4c0,0-8.1,1.2-8.9,6c-0.7,4.8,0.9,11.7-2.9,12.7c0,0,1.1,3.7-3.9,10.5
		S451,285.4,451,285.4s8.1-19.1,1.2-30.3c0,0-1-7.8,4.7-12.4l2.9-7.2c0,0-12.8,11.4-11.3,18.8c1.5,7.3,4.3,7.5,1.3,10.2
		c0,0-3,8.8-3.9,15.5s3.9-10.1-13.1-27.2c0,0-12.5-2.1-18.3,1.6c0,0-1.7,4.3-1.8,6.7c0,0,9.6-12.9,19.3-2.5
		c9.6,10.4,10.5,23.8,10.5,23.8s0.6,8.3-6.5,8.6c-7.1,0.2-25.6-14.8-25.6-14.8s-11.4-22-2.3-28.2c0,0,4.3-7.4,3.3-9.1
		c0,0-5.6,7.8-10.8,10.9c0,0-3.3,21.3,7.5,32.6c10.8,11.3,21,10.9,17.5,20.1s-13.6,11-13.6,11s4.5,2.6,17.7-9.5
		C429.5,304.1,441.7,323.4,426.6,397.5z"/>
	<path id="XMLID_263_" class="st36" d="M567.8,385c0,0-7,3-5.5,5.8c0,0,3.3-2.5,8.3-2.8s11.6,1.4,13,3.2c0,0,2.1-4-0.6-6.6
		c0,0,9.5-2.3,12.8,0.4c0,0,1-4.8-4.1-7.9c0,0-9.1-5.4-11-31.9s-8.6-56-24.4-65.4c0,0,11.5-23.6,18.8-25.6c0,0,3,1,2.3,3.6
		c0,0,2.5-3,1.2-6.2c0,0,10.4-5.9,14.9-4.7l2.3-4.5c0,0-11.8-0.8-19.1,4.5c0,0-1.5-6.3-0.5-10.4c0,0-1-8.2-1.8-8.2c0,0,2.2,7.7,0,9
		c-2.2,1.3-0.3,10-0.3,10s-18,20-24,29.6c0,0-8.5,0.7-25.5-12.9c-17-13.6-9.9-25-9.9-25l5.2,3.2l-2-5.2c0,0,6.3-6,11.8-5.6l0-3.9
		c0,0-11.4,4-13.6,5.4s-6-9.1-4.3-10.9l-4.3,0c0,0,3.6,11.5,5.8,12.4c0,0-9.6,6.6-5.8,15.6s10.9,15.7,10.9,15.7s3.4,3.8-16.1,0.1
		c0,0-6-4.6-17.3,11.2c0,0-0.4,3.5-5,3.9s-4.6,0.4-4.6,0.4s4.8,4,10.8,2.8c0,0,3.5-2.1,4.9-7.1c1.4-4.9,7.9-7.3,9.4-5
		c0,0,10,1.8,17-1c0,0,6.6-2,22.2,13s-0.9,22.6-0.9,22.6s3-3-1-9.5c0,0-0.9,9.1-3,9.5c-2,0.4-10.8-2.5-10.8-2.5v2.5
		c0,0,11.5,6.6,22.5,0c0,0,9-5.9,8-8c0,0,8.3-6.4,10.3,31.9C564.8,330.5,570.6,340.6,567.8,385z"/>
	<path id="XMLID_265_" class="st37" d="M708.3,352.2c0,0,12.4,14.1,32.6,4.5c0,0,5.7,12.9,25.9,1.9c0,0,29.7-2.6,27.3-12.6
		c0,0,31.5-12.1,22.8-23.4c0,0,22.5-12.2,9.8-23.1c0,0,5.3-12.9-13.8-15.2c0,0,0.7-18.7-18.8-12.4c0,0-7-11.8-18.5-1.7
		c0,0-27.1-5.6-25.5,9.4c0,0-18.9-1-21,7.7c0,0-16-2.1-19.5,11.3c0,0-17.5-3.5-19.2,20.1c0,0-9.9,13.7,4,20.8
		C694.4,339.6,693.6,357.3,708.3,352.2z"/>
</g>
<g id="stonesAndOthers">
	<path id="XMLID_400_" class="st38" d="M512.6,415.5c2.7-2.7,7.4-5.5,12.7-0.4c1.9,1.9,1.1,5.1-1.5,5.8c-3.1,0.8-7,1.4-10.1,0.2
		C511.4,420.2,510.8,417.2,512.6,415.5z"/>
	<path id="XMLID_394_" class="st38" d="M637.5,330.3c2.1-2.1,5.9-4.4,10.1-0.3c1.5,1.5,0.9,4.1-1.2,4.6c-2.4,0.6-5.6,1.1-8,0.2
		C636.6,334.1,636.1,331.7,637.5,330.3z"/>
	<path id="XMLID_401_" class="st38" d="M363.2,349.3c1.7-1.7,4.6-3.4,7.9-0.3c1.2,1.2,0.7,3.2-0.9,3.6c-1.9,0.5-4.4,0.9-6.3,0.1
		C362.5,352.3,362.2,350.4,363.2,349.3z"/>
	<path id="XMLID_402_" class="st38" d="M229.3,281c1.4-2.3,3.8-4.8,6.1-0.7c0.9,1.5,0.4,4.2-0.9,4.8c-1.5,0.8-3.4,1.4-4.9,0.5
		C228.5,284.9,228.4,282.4,229.3,281z"/>
	<path id="XMLID_403_" class="st38" d="M676.6,270.8c1.4-2.2,3.7-4.5,6.1-0.7c0.9,1.4,0.4,4-0.9,4.6c-1.5,0.7-3.4,1.3-4.8,0.5
		C675.9,274.5,675.7,272.2,676.6,270.8z"/>
	<ellipse id="XMLID_404_" class="st39" cx="517.3" cy="417.7" rx="2.7" ry="2.6"/>
	<ellipse id="XMLID_405_" class="st39" cx="643.9" cy="332.2" rx="2.7" ry="1.3"/>
	
		<ellipse id="XMLID_406_" transform="matrix(0.5036 -0.8639 0.8639 0.5036 102.2009 721.4294)" class="st39" cx="678.9" cy="271.8" rx="2.7" ry="1"/>
	<ellipse id="XMLID_407_" class="st39" cx="365.6" cy="349.7" rx="1.5" ry="1.2"/>
	<ellipse id="XMLID_408_" class="st39" cx="232.3" cy="282" rx="1.5" ry="1.2"/>
</g>
<g id="shadows">
	<path id="XMLID_266_" class="st40" d="M435.9,395.9c0,0,2.6-30.2,2.6-36.7C438.5,359.3,441.7,379.6,435.9,395.9z"/>
	<path id="XMLID_267_" class="st39" d="M450.4,390.8c0,0-6.7-24.7-3.7-51.9C446.7,338.9,447.3,375.6,450.4,390.8z"/>
	<path id="XMLID_268_" class="st41" d="M410.3,281.4c0,0,13.5,11.1,23.3,14.4C433.5,295.8,423.1,285.5,410.3,281.4z"/>
	<path id="XMLID_269_" class="st42" d="M452,267.5c0,0-3.2,8-3.2,13.9C448.8,281.4,451.6,272.8,452,267.5z"/>
	<path id="XMLID_270_" class="st43" d="M448.8,291.7c0,0,0.8,2.5-9.4,13.6c0,0,4.1-4.6,9.5-1.3C448.8,304.1,445.1,302.4,448.8,291.7
		z"/>
	<path id="XMLID_271_" class="st44" d="M551.8,282.3c0,0,15.1-3.1,23.6,39.2C575.4,321.5,565.4,289.6,551.8,282.3z"/>
	<path id="XMLID_272_" class="st45" d="M570.7,344c0,0,4.8,18,1,36.1C571.8,380.1,581.9,359.1,570.7,344z"/>
	<path id="XMLID_273_" class="st44" d="M583.5,381.2c0,0,7.3-1.5,9.7,0C593.3,381.2,586.1,374.6,583.5,381.2z"/>
	<path id="XMLID_274_" class="st46" d="M500,267.5c0,0,11.3,2.5,17,1.8C517,269.3,504.8,274.8,500,267.5z"/>
	<polygon id="XMLID_264_" class="st47" points="327.5,315.4 327.5,257.6 328.2,257.9 328.2,315.9 	"/>
	<path id="XMLID_276_" class="st48" d="M319.2,311.8v-15.5l1.6,0.8v-8.5c0,0,0.8-0.8,1.4,0.6s0,8.6,0,8.6v15.5L319.2,311.8z"/>
	<path id="XMLID_275_" class="st49" d="M324.1,313.8l0.7-33.8c0,0,0.9-3.9,1.3-1.4s0,36,0,36L324.1,313.8z"/>
	<path id="XMLID_278_" class="st48" d="M332.6,318.3v-25.6c0,0,0.4-1.9,1.3,0.9v16.7c0,0,1.9,1.4,4.2,0.3c0,0,1.6,1.7-0.9,9.4
		L332.6,318.3z"/>
	<path id="XMLID_277_" class="st50" d="M340.7,322.3c0,0,2.9-7.6,1.6-17c0,0,0.7-3,2.2,0c0,0-0.9,1.4,0,4.8S345.7,312,340.7,322.3z"
		/>
	<path id="XMLID_280_" class="st48" d="M351.3,307.1c0,0-1.1,5.3-0.8,17.1C350.5,324.3,351.9,311.1,351.3,307.1z"/>
	<path id="XMLID_279_" class="st48" d="M319.5,257c0,0-1.1,10.7-0.8,34.7C318.7,291.7,320.2,265.1,319.5,257z"/>
	<path id="XMLID_281_" class="st48" d="M302.1,262.3c0,0-1.1,10.7-0.8,34.7C301.3,297.1,302.8,270.4,302.1,262.3z"/>
	<path id="XMLID_282_" class="st48" d="M303,300.4c0,0,1.3-10.6,1.2-34.7C304.1,265.7,302.4,292.3,303,300.4z"/>
	<path id="XMLID_283_" class="st51" d="M353.6,328.5l1.4-20.5c0,0,0.3-1.6,1.3,1.7s-1.3,19.5-1.3,19.5L353.6,328.5z"/>
	<path id="XMLID_284_" class="st52" d="M358.5,331l0.6-21.7c0,0,0.2-1.3,1.2,0.6c1,1.9-0.9,21.6-0.9,21.6L358.5,331z"/>
	<path id="XMLID_286_" class="st53" d="M366.8,292.1c0,0-2.1,24.3-2,34.6c0,0,0.5-12.3,3.1-16.4c0,0-0.6,16-1.6,20.5
		c0,0,3.9-35.2,5.1-36.6c0,0-3.1,11.8-3.3,14.6C368.1,308.8,367.1,298.9,366.8,292.1z"/>
	<path id="XMLID_287_" class="st52" d="M370.1,336.2c0,0,0.1-34.4,2.3-35.8c0,0-1.7,6.3,0,11.1L370.1,336.2z"/>
	<path id="XMLID_288_" class="st54" d="M334.8,261.3v21.8c0,0,0.3-5.4,0.8,6.6c0,0,0.5-5.4,2.2-8.2h-1.5L334.8,261.3z"/>
	<polyline id="XMLID_289_" class="st52" points="373.5,337.7 376.5,300.8 375,338.9 373.5,338.4 	"/>
	<polygon id="XMLID_285_" class="st55" points="383.7,300.4 377.8,313.8 383.7,303.2 384.3,325.2 383,337.7 384.3,338.9 
		385.3,321.5 386,300.8 	"/>
	<path id="XMLID_291_" class="st56" d="M392.7,302.5c0,0-2.7,23.3-1,44.8C391.6,347.3,394,311.5,392.7,302.5z"/>
	<polygon id="XMLID_290_" class="st57" points="397.5,314.6 393.1,337.7 397.1,320.6 397.1,349.7 	"/>
	<path id="XMLID_293_" class="st58" d="M400.8,308.8c0,0,2,10.1,3.7,20.5s0,23,0,23s4.3-18.8,13.8-24.8c0,0-6.9,4.8-10,9.8
		C408.3,337.3,403.2,310,400.8,308.8z"/>
	<polygon id="XMLID_294_" class="st59" points="412.5,317.9 409.6,328.3 414.3,318.5 	"/>
	<path id="XMLID_292_" class="st47" d="M421.9,333.2l1.7,29.5C423.6,362.6,428.6,352.9,421.9,333.2z"/>
	<path id="XMLID_296_" class="st49" d="M414.3,357.9c0,0-1.5-7.6,4-27.3L414.3,357.9z"/>
	<polygon id="XMLID_295_" class="st60" points="418.3,320.6 421.9,324.9 420.8,329.8 423.7,326.8 428.3,336.2 425.4,325.8 	"/>
	<polygon id="XMLID_297_" class="st61" points="282.9,235.6 269.4,240.5 289.5,248.9 303.3,244 	"/>
	<polygon id="XMLID_298_" class="st61" points="282.5,219.6 282.9,235.6 303.3,244 303.5,228.3 	"/>
	<polygon id="XMLID_300_" class="st62" points="296,254.6 302.4,247.6 306.9,249.9 	"/>
	<path id="XMLID_299_" class="st63" d="M305.9,231l0.5,5.4l1.5,1l-0.9-5.5c0,0,0.9-0.7,3.2,0v-2.3l1.7-0.7l0.9-2.2l3.4-1.7l0.7,14.1
		l2,1c0,0-3.1-13.8-0.2-17.5l4.5-3.8l3.9,1.8l0.3,20.2l1.5,1.3v-22.5l-6.1-2.9L305.9,231z"/>
	<polygon id="XMLID_302_" class="st52" points="337.8,223.6 337.8,240.7 339.2,242 340,226.6 341.9,227.9 341.9,253.7 342.9,256.1 
		343.7,234.1 347.2,229.6 351.4,231.8 351.8,244.3 353.6,245.2 353.8,231.1 	"/>
	<polygon id="XMLID_301_" class="st56" points="322.3,252.2 322.3,242.3 323.2,243.5 323.2,252.9 	"/>
	<polygon id="XMLID_303_" class="st56" points="333.5,257.2 333.5,241 334.4,243 334.4,258.4 	"/>
	<polygon id="XMLID_304_" class="st56" points="312.3,246.6 312.3,233.3 313.1,235 313.1,247.6 	"/>
	<polygon id="XMLID_305_" class="st56" points="345.9,251.1 345.9,241.2 346.7,242.4 346.7,251.8 	"/>
	<polygon id="XMLID_306_" class="st51" points="358.1,232.4 357.1,245.6 358.6,246.4 359.4,234.7 362.3,236.1 362.3,255.2 
		363.4,255.2 363.5,234.7 	"/>
	<polygon id="XMLID_307_" class="st55" points="367.5,265.7 368.1,244.3 369.8,244.7 368.6,257 370.1,259.3 370.1,266.8 	"/>
	<polygon id="XMLID_308_" class="st51" points="375.3,241.2 378.5,249.7 379.5,259.3 381.2,259.3 381.2,249.7 378.2,242.5 	"/>
	<polygon id="XMLID_309_" class="st56" points="373.5,269.1 373.5,250.2 375,252.2 375,262.3 379.2,266.8 379.5,271.9 	"/>
	<polygon id="XMLID_311_" class="st64" points="389.5,254.6 387,263.5 388.3,276.1 	"/>
	<polygon id="XMLID_312_" class="st65" points="393.8,251.8 395.3,279.4 396,279.7 398.7,265.8 396.3,269.3 	"/>
	<polygon id="XMLID_310_" class="st57" points="416.8,260.6 417.5,271.2 417.1,277.8 418.3,277.8 421.9,263 419.3,269.2 	"/>
	<polygon id="XMLID_314_" class="st61" points="428.5,288.6 431.6,270.7 431.6,289.6 	"/>
	<polygon id="XMLID_313_" class="st66" points="306.9,255.5 306.9,301.8 308.7,302.5 308.7,254.9 	"/>
	<polygon id="XMLID_315_" class="st52" points="312.3,253.6 311.6,304 312.7,304.5 313.6,253.1 	"/>
	<polygon id="XMLID_316_" class="st47" points="346.7,263.7 425.4,301.5 425.4,300.4 348.2,263.2 	"/>
	<polygon id="XMLID_317_" class="st47" points="352.9,261.4 423.3,294.9 424.8,295.8 351.8,261.8 	"/>
	<polygon id="XMLID_318_" class="st48" points="342.9,274.4 419.3,310.2 421,308.8 342.3,273.2 	"/>
	<polygon id="XMLID_319_" class="st48" points="421,310.7 426.1,313.2 426.2,311.5 421.9,310.1 	"/>
	<polygon id="XMLID_320_" class="st54" points="342.9,269.2 423.1,306.6 423.7,305.3 342.3,267.8 	"/>
	<polygon id="XMLID_321_" class="st67" points="282.5,214 310.2,226.6 311.6,225.4 283.2,212.7 	"/>
	<polygon id="XMLID_322_" class="st67" points="286.7,210.1 314.4,222.7 315.8,221.5 287.4,208.8 	"/>
	<polygon id="XMLID_323_" class="st67" points="291.4,205.9 319.1,218.4 320.5,217.2 292.1,204.6 	"/>
	<polygon id="XMLID_324_" class="st54" points="295.9,202.1 304.3,205 304.8,203.8 296.8,200.8 	"/>
	<polygon id="XMLID_325_" class="st68" points="402.7,99.3 539.4,173.6 537.1,176.5 400.5,101.6 	"/>
	<polygon id="XMLID_326_" class="st68" points="394.4,108.3 531.1,182.5 528.8,185.4 392.2,110.5 	"/>
	<polygon id="XMLID_328_" class="st68" points="385.6,117.9 521.1,191.4 518.7,194.3 383.5,120.1 	"/>
	<polygon id="XMLID_327_" class="st68" points="377.4,126.7 512.9,200.2 510.5,203.1 375.2,129 	"/>
	<polygon id="XMLID_330_" class="st68" points="368.3,136.6 502.3,210.3 499.9,213.2 366.1,138.9 	"/>
	<polygon id="XMLID_329_" class="st68" points="360.1,145.5 494.1,219.1 491.8,222 358,147.8 	"/>
	<polygon id="XMLID_334_" class="st68" points="351,154.6 484.7,227.6 482.4,230.5 348.8,156.8 	"/>
	<polygon id="XMLID_333_" class="st68" points="341.3,164.7 475.4,237.5 473.1,240.4 339.2,166.9 	"/>
	<polygon id="XMLID_332_" class="st68" points="332.2,174.6 465.1,247.3 462.8,250.2 330,176.9 	"/>
	<polygon id="XMLID_331_" class="st68" points="323.9,183.4 448.4,251.5 448.4,255.6 321.9,185.5 	"/>
	<polygon id="XMLID_335_" class="st68" points="315.6,193.5 408.7,242 406.7,244.3 312.3,196.5 	"/>
	<polygon id="XMLID_336_" class="st68" points="410.6,242.5 430.6,252.5 426,252.2 409.3,245.4 	"/>
	<polygon id="XMLID_337_" class="st68" points="306.8,203.1 402.6,248.2 399.7,251.4 303.5,206 	"/>
	<polygon id="XMLID_338_" class="st68" points="406,249.9 414.4,254.4 412.8,257.6 405.1,253.1 	"/>
	<polygon id="XMLID_339_" class="st68" points="416.1,258.4 438.5,269.3 436.8,265.3 417.8,257 	"/>
	<polygon id="XMLID_340_" class="st68" points="438.5,258.4 448.8,264 447.7,265.3 440.2,262.3 	"/>
	<polygon id="XMLID_2_" class="st68" points="408.7,99.5 545.1,173.3 550,173.8 414.3,99.5 	"/>
	<polygon id="XMLID_341_" class="st68" points="418.5,99 554.9,172.9 559.8,173.3 424.1,99 	"/>
	<polygon id="XMLID_343_" class="st68" points="429.1,99.5 565.5,173.3 570.4,173.8 434.7,99.5 	"/>
	<polygon id="XMLID_342_" class="st68" points="438.9,99 575.3,172.9 580.1,173.3 444.4,99 	"/>
	<polygon id="XMLID_347_" class="st68" points="450.2,99.3 586.6,173.1 591.5,173.5 455.8,99.3 	"/>
	<polygon id="XMLID_346_" class="st68" points="460,98.8 596.4,172.6 601.3,173.1 465.6,98.8 	"/>
	<polygon id="XMLID_345_" class="st68" points="470.6,99.3 607,173.1 611.9,173.5 476.2,99.3 	"/>
	<polygon id="XMLID_344_" class="st68" points="480.4,98.8 616.8,172.6 621.7,173.1 486,98.8 	"/>
	<polygon id="XMLID_350_" class="st68" points="491.6,99.3 628,173.1 632.9,173.5 497.2,99.3 	"/>
	<polygon id="XMLID_349_" class="st68" points="502.2,99.7 636.4,172.9 641.1,173.3 507.7,99.7 	"/>
	<polygon id="XMLID_348_" class="st68" points="534.3,111.4 642.2,172.1 645.4,173.3 645,167 	"/>
	<path id="XMLID_352_" class="st69" d="M458.5,360.9c0,0,3.3-14,2.1-18.6l1.1,17.1L458.5,360.9z"/>
	<path id="XMLID_354_" class="st69" d="M458.5,305.3c0,0-5.5,13.2-1,19.9C457.5,325.3,449.4,321.8,458.5,305.3z"/>
	<polygon id="XMLID_355_" class="st69" points="474,335.4 480,349.3 477,333.7 	"/>
	<polygon id="XMLID_353_" class="st70" points="487.1,329.3 491.1,344 491.6,334.7 497.4,342.3 492.8,326.8 491.1,332.9 	"/>
	<polygon id="XMLID_357_" class="st71" points="493.6,236.1 497.4,254.6 496.7,235.6 	"/>
	<polygon id="XMLID_358_" class="st71" points="503,232.4 500.9,260.5 505.4,254.9 	"/>
	<polygon id="XMLID_359_" class="st47" points="512.5,278.7 516.7,306.3 516.7,278 	"/>
	<polygon id="XMLID_360_" class="st65" points="543.7,254 549.1,271.2 546.8,252.5 	"/>
	<polygon id="XMLID_361_" class="st57" points="557.2,207.6 557.2,237.1 559.8,206.1 	"/>
	<polygon id="XMLID_362_" class="st68" points="520.9,330.5 517.3,310.2 524.5,328.3 	"/>
	<polygon id="XMLID_363_" class="st47" points="512.9,215.7 534.3,189.1 522.1,212.3 	"/>
	<polygon id="XMLID_364_" class="st47" points="553.8,197 539.7,176.8 553.8,184.4 	"/>
	<polygon id="XMLID_365_" class="st47" points="559.9,173.5 559.9,189.4 557,174.1 	"/>
	<polygon id="XMLID_366_" class="st58" points="606.2,243.7 602.7,226.5 608.5,235.6 	"/>
	<polygon id="XMLID_367_" class="st72" points="503.1,288.9 496.9,282.3 500.8,289.8 	"/>
	<path id="XMLID_368_" class="st73" d="M480,237.1c0,0,14.8-9.2,23.3-12.1C503.3,224.9,484.6,236.7,480,237.1z"/>
	<path id="XMLID_356_" class="st74" d="M515.6,218.7c0,0,24.3-12.8,29.2-13.8c0,0-22.5,13.4-25.1,14
		C517.3,219.5,515.6,218.7,515.6,218.7z"/>
	<polygon id="XMLID_370_" class="st75" points="553.8,203.4 620.6,174.6 620.6,177.2 	"/>
	<polygon id="XMLID_369_" class="st61" points="460.1,367.3 530.2,331.5 532.5,332.2 460.9,368.8 	"/>
	<polygon id="XMLID_371_" class="st61" points="463.2,376.7 552.8,328.3 555,328.3 465.1,378.2 	"/>
	<polygon id="XMLID_373_" class="st61" points="472.6,382.9 532.5,353.3 468.9,382.9 	"/>
	<polygon id="XMLID_374_" class="st61" points="589.3,328.3 670.5,287.6 583,328.3 	"/>
	<polygon id="XMLID_375_" class="st61" points="578.8,316.8 645.4,285.5 609.1,304.8 	"/>
	<polygon id="XMLID_376_" class="st61" points="576.5,308 606.2,295.8 595.8,302.5 	"/>
	<polygon id="XMLID_377_" class="st61" points="621.7,265.3 648.5,278.6 632.7,274.4 	"/>
	<polygon id="XMLID_378_" class="st61" points="618.4,274.4 629.4,280.2 624.7,280.2 	"/>
	<polygon id="XMLID_379_" class="st69" points="641.3,293.7 665.4,284.3 653.3,291.7 	"/>
	<polygon id="XMLID_380_" class="st61" points="557.2,334.7 534.3,347.3 550,341 	"/>
	<polygon id="XMLID_381_" class="st57" points="504.1,211 509.8,214.5 505.7,209.6 	"/>
	<path id="XMLID_382_" class="st61" d="M697.3,337.3c0,0,8.5-2.3,8.1-8.7c0,0,7.5,6.3,10.9,4.1c0,0,0.5,4.3,9.5,2.6
		c0,0-6.5,3.9-7.1,6.9c-0.6,3,0.6-3,0.6-3s-1.7-2.4-4.6-2.5c-3-0.1-3-0.1-3-0.1s-2.8-5.7-4.4-1.3c0,0-5,3.3-5.3,7.8
		C702,343.2,701.2,338,697.3,337.3z"/>
	<path id="XMLID_383_" class="st61" d="M752.5,281.4c0,0,9.5,9.3,20.9,4.1c0,0-7.7,7.6,0,9.4c0,0-4.1-5.3-19.2,2.4
		c0,0,7.9-4.6,3.7-8.3c0,0-12.2-3.8-12.8,1.8C745,290.8,752.3,285.8,752.5,281.4z"/>
	<path id="XMLID_384_" class="st59" d="M741.3,347.7c0,0,4.2-8-4.4-24.7c0,0,1.3,4.6,13.2,1c0,0-5.8,5.8-0.5,11.1
		C749.7,335.1,744.8,333.7,741.3,347.7z"/>
	<path id="XMLID_372_" class="st76" d="M802.1,287.2c0,0-1.2,10.6,8.9,14c0,0-10.9-5.3-12.2,10.1c0,0,1.2-8.9-5.3-16.1
		c0,0,5.9,4.1,6,2.3C799.7,295.9,801,295.6,802.1,287.2z"/>
	<path id="XMLID_385_" class="st59" d="M774.2,318c0,0,4.7,11.3,15.2,9.8c0,0-13.6-0.5-13,8.3c0,0.4,0.1,0.8,0.2,1.3
		c2.1,10.1,0.8-10.6-9.7-14.4C766.9,323,773.4,326.8,774.2,318z"/>
	<path id="XMLID_387_" class="st77" d="M747.8,357.5c0,0,10.8-4.6,11-18.6c0,0,1.5,12,8.8,8.2C767.6,347.1,761.8,347.3,747.8,357.5z
		"/>
	<path id="XMLID_388_" class="st71" d="M714.6,298.6c0,0,3.2,5.3,22.3,1.3c0,0-9.3,1.6-3.1,11.5c0,0-11.9-9.4-19.2-2.9
		C714.6,308.5,724.6,304.9,714.6,298.6z"/>
	<ellipse id="XMLID_386_" class="st78" cx="705.2" cy="318.4" rx="4.4" ry="4.6"/>
	<ellipse id="XMLID_389_" class="st43" cx="782.9" cy="276.2" rx="4.6" ry="2.8"/>
	<ellipse id="XMLID_390_" class="st78" cx="798.6" cy="333.2" rx="4.4" ry="3.4"/>
	<ellipse id="XMLID_391_" class="st43" cx="777.7" cy="305.1" rx="4.3" ry="5.1"/>
	<ellipse id="XMLID_392_" class="st78" cx="749.8" cy="311.5" rx="6.2" ry="5.2"/>
	<ellipse id="XMLID_393_" class="st43" cx="724.1" cy="351.6" rx="4.4" ry="4.6"/>
	<path id="XMLID_395_" class="st79" d="M466.4,357.4c0,0-2.2-11.8,1.5-15c0,0-2.7,11.2,2.1,13L466.4,357.4z"/>
	<polygon id="XMLID_396_" class="st68" points="532.5,259.1 541.3,271.9 534.1,258.4 	"/>
	<polygon id="XMLID_397_" class="st80" points="532,325.2 531,310.3 534,323.8 	"/>
	<polygon id="XMLID_398_" class="st49" points="510.4,205 512.5,210.3 511.4,202.5 514.6,206.4 513.3,201.5 	"/>
	<polygon id="XMLID_399_" class="st59" points="533.1,182.5 541.3,196.9 534.8,180.8 	"/>
</g>
<g id="ACTIVE_x5F_KAYAKOSAEKI_x5F_WALKING">
	<g id="XMLID_412_">
		<path id="XMLID_417_" class="st81" d="M669.3,308.9c0,0,5.7,3.2,8.2,6.6c2.5,3.4,2.6,34.1,6.7,38.9c0,0-3.1,4-7.4,3
			c-4.4-1-7.4,2.3-7.4,2.3s-2.4,1.8-5.8,0.1c-0.5-0.3-1-0.6-1.6-1c-4.2-3.3-6.8,2.9-7.9,0.9c-1.1-2-0.5-4.4,2.2-13
			c2.7-8.7,3.5-20.5,2.3-23.3c-1.2-2.9-2.7-12.3,1.5-12S669.3,308.9,669.3,308.9z"/>
		<g id="XMLID_414_">
			<path id="XMLID_411_" d="M656.7,306.2c0,0-3-13.8,2.1-18.2c5.1-4.4,10.2-2.1,14.1,0.5c3.9,2.5,7.2,21.7,7,26.4l0.3,9.7
				c0,0-10.1,6.3-10.7,2.5c-0.4-2.3-2-13.2-3.2-21.7c-0.8-5.8-1.5-10.4-1.5-10.4L656.7,306.2z"/>
			<ellipse id="XMLID_413_" class="st82" cx="664.3" cy="302" rx="7.1" ry="9.6"/>
			<path id="XMLID_415_" d="M659.7,291.9c0,0-2.9,7.5,8.7,15.3c0,0,4.3,5.2,2,8c-2.2,2.8,10.2-1,6.6-8.4
				C673.3,299.3,669.6,286.7,659.7,291.9z"/>
		</g>
		<path id="XMLID_418_" class="st8" d="M661.9,358.7c0,0,3.2-19.1,2.7-27.3c0,0,2.1-7.9,6.2,27C670.8,358.5,666.7,362,661.9,358.7z"
			/>
		<path id="XMLID_419_" class="st39" d="M671.4,331.5c0,0,1.7-2.5,5.3,0.2c0,0-0.2,9.4,1.9,15.5
			C678.6,347.2,678.1,357.1,671.4,331.5z"/>
		<path id="XMLID_416_" class="st83" d="M660.3,315.1c0,0,2.3,1.8,1.6,6.9S658.3,319,660.3,315.1z"/>
	</g>
</g>
<g id="ACTIVE_x5F_KAYAKOFACE">
	<g id="XMLID_435_">
		<g id="XMLID_428_">
			<path id="XMLID_421_" d="M14.6,540.4c0,0,21.4-324.9,134.2-418.5s313.6-99.8,363.7,146.3s68.3,279.1,68.3,279.1L14.6,540.4z"/>
			<path id="XMLID_424_" class="st84" d="M133.9,265.5c0,0,26,172.2,148.6,205c6.1,1.6,12.5,1.5,18.4-0.3
				c30.7-9.3,125.6-50.3,150.2-207C480.6,75.4,307.6,72.4,307.6,72.4S104.2,69.7,133.9,265.5z"/>
			<path id="XMLID_423_" class="st76" d="M185.6,248.4c0,0,26.7,70,62.9,17.5L185.6,248.4z"/>
			<path id="XMLID_425_" class="st82" d="M185.6,248.4c0,0,16.7,35,62.9,17.5C248.5,265.9,233.6,235.3,185.6,248.4z"/>
			<path id="XMLID_422_" class="st76" d="M409.3,248.4c0,0-26.7,70-62.9,17.5L409.3,248.4z"/>
			<path id="XMLID_420_" class="st82" d="M409.2,247c0,0-16.7,35-62.9,17.5C346.3,264.5,361.2,234,409.2,247z"/>
			<path id="XMLID_426_" class="st85" d="M344.4,111.3c0,0,55.8,130.3,27.3,267.2c0,0,24.2-108.1,10.8-233.1c0,0,40.3,117.6,6,301.8
				c0,0,29.7-69.7,43.7-236.3c0,0,27.8,184.9-24.1,300.2c0,0,84.1-158.8,75.1-262.7s-30.5,257-57.8,293c0,0,48-84.5,76.3-240.3
				c0,0,16.4,151.3-62.6,250.3c0,0,84.9-51.6,91-252.3c0,0,20,107.3-45,257.3c0,0,86-84.7,63-272.9c0,0,11.7-265.1-253.9-271.3h-5.8
				C22.9,18.4,34.6,283.5,34.6,283.5c-23,188.1,63,272.9,63,272.9c-65-150-45-257.3-45-257.3c6,200.7,91,252.3,91,252.3
				c-79-99-62.6-250.3-62.6-250.3c28.4,155.7,76.3,240.3,76.3,240.3c-27.3-36-48.8-397-57.8-293s75.1,262.7,75.1,262.7
				c-51.9-115.3-24.1-300.2-24.1-300.2c14,166.5,43.7,236.3,43.7,236.3c-34.3-184.2,6-301.8,6-301.8
				c-13.3,125,10.8,233.1,10.8,233.1c-28.5-136.9,27.3-267.2,27.3-267.2s-19.3,104.9,31.9,201c0,0-35.9-145.6,18.7-210.4
				c0,0,57.4,132.9,27.7,265.7C316.7,367.6,366.5,169.6,344.4,111.3z"/>
			<path id="XMLID_427_" class="st82" d="M72.6,186.6l47-75.3L72.6,186.6z"/>
		</g>
		<circle id="XMLID_429_" cx="222.9" cy="261" r="7.3"/>
		<circle id="XMLID_430_" cx="370.4" cy="258.9" r="7.3"/>
		<circle id="XMLID_431_" class="st39" cx="224.3" cy="260.5" r="3.7"/>
		<circle id="XMLID_432_" class="st39" cx="369.1" cy="258.9" r="3.7"/>
		<ellipse id="XMLID_433_" class="st86" cx="291.4" cy="414.8" rx="37.1" ry="38.2"/>
		<ellipse id="XMLID_434_" class="st87" cx="292" cy="413.4" rx="26.7" ry="27"/>
	</g>
</g>
<g id="ACTIVE_x5F_TOSHIOHEAD_x5F_FRONT">
	<g id="XMLID_456_">
		<g id="XMLID_453_">
			<g id="XMLID_437_">
				<path id="XMLID_436_" class="st1" d="M772.7,456.3c0,0-1.3,39-5.1,44.6c-3.9,5.6-27.8,30.2-37.3,30.5l-3.2,0.1
					c-9.4,1-36.5-20.2-41.1-25.2c-4.6-5-11.1-43.5-11.1-43.5s-0.3-43.8,37.5-52.3S766.2,421.7,772.7,456.3z"/>
				<path id="XMLID_441_" class="st2" d="M710.2,509c0,0,2.4-7.7,17.4-4.7c0,0,8.6-5.2,15.1,3.4C742.7,507.7,727.9,509.3,710.2,509z
					"/>
				<path id="XMLID_442_" class="st3" d="M723.2,493.9c0,0,8.7-3.1,9.9-7s-5.4-10.7-6.3-16.2c0,0,5,11.2,9.6,14.9
					S720.9,497.5,723.2,493.9z"/>
				<path id="XMLID_443_" class="st4" d="M713.4,511.5c0,0,1.8,5.5,12.5,2.6c0,0,4.2,2.5,10.4-1.1c6.2-3.6,2.1-3.5,2.1-3.5
					S713.2,508.8,713.4,511.5z"/>
				<path id="XMLID_444_" class="st3" d="M685.5,460.1c0,0,9.2-7.8,20.7-2.7c11.5,5.1,0.7,8.8-1.4,9.6
					C702.7,467.7,688.3,467.2,685.5,460.1z"/>
				<path id="XMLID_440_" class="st3" d="M762.5,455.7c0,0-10.4-6-20.8,1.1c-10.4,7.1,0.9,8.8,3.1,9.2
					C747,466.3,760.9,463.2,762.5,455.7z"/>
				<path id="XMLID_445_" class="st3" d="M679.6,487.7c0,0-29.7-33.5-14.8-69.7s51.3-37.7,51.3-37.7s38.1-9.5,64.3,17.8
					c26.2,27.3-10.1,90.8-10.1,90.8s5.5-38.7-5.5-54.2c0,0-5.4-3-13.1-1.2c0,0-2.6,4.4,6.3,8.8c0,0-9.8-0.6-16-8
					c0,0-3.5,4.9,2.6,9.3c6.1,4.4-1.1,0.6-1.1,0.6s-11.6-4.2-14.3-9.7c0,0-3,9.1,0,15.6c0,0-6.7-5.2-9.6-15.7c0,0-3.1,4.7,0.5,14
					c0,0-9.1-3.8-10.4-13.6c0,0-4.9,1.4-2.8,12.8c0,0-9.3-6.7-9.8-13.8c0,0-10.3,4.8-6.4,12.9c0,0-7.5-6.3-5-13c0,0-8,1.4-7,12.8
					C679.6,457.7,680.2,458.7,679.6,487.7z"/>
				<path id="XMLID_438_" class="st5" d="M720.8,394.7c0,0-1.8,5.7,9.7,17.2C730.5,411.9,723,403.1,720.8,394.7z"/>
				<path id="XMLID_439_" class="st5" d="M695.4,405.2c0,0,1.7,7.6,10.4,16.1C705.8,421.3,697.2,409.6,695.4,405.2z"/>
				<path id="XMLID_446_" class="st5" d="M746.1,404.7c0,0,2.5,8.9,12.4,17.7C758.6,422.4,749,409.2,746.1,404.7z"/>
				<path id="XMLID_447_" class="st5" d="M670.1,462.8c0,0-6.7-16.1-4.8-19.5L670.1,462.8z"/>
				<path id="XMLID_448_" class="st5" d="M776.8,451c0,0,5.2-12.8,3.8-19.6C780.6,431.4,779.2,443.2,776.8,451z"/>
				<path id="XMLID_449_" class="st5" d="M688.1,432.9c0,0,5.3-4.6,5.6-8.2L688.1,432.9z"/>
			</g>
			<polygon id="XMLID_450_" class="st3" points="718.1,382.5 715.9,243.7 719.4,243.1 722,384 			"/>
			<polygon id="XMLID_452_" class="st6" points="720.1,383.7 718.3,247.6 717.1,247.6 			"/>
			<path id="XMLID_451_" class="st7" d="M718.6,247.3c-1.9,0-3.4-0.2-6.3-0.6c-4.6-0.7-8.3-1.5-10.8-2.2c0,0,0.2-20.2,6-25.2
				C640.1,151,625.9,74.9,661.7,37c7.2-7.6,22.4-20.1,54.1-26.1c0.2,0,0.5,0,0.7,0c40.6,9.6,58.1,24.9,66,38.8
				c33.4,58.9-61.3,170.4-61.3,170.4c1.7,5,3.6,10.2,5.9,15.6c1.1,2.7,2.3,5.3,3.5,7.9C725.3,246.7,720.9,247.2,718.6,247.3z"/>
		</g>
		
			<ellipse id="XMLID_454_" transform="matrix(0.9544 -0.2985 0.2985 0.9544 19.9231 226.4778)" class="st8" cx="751.3" cy="48" rx="8.4" ry="13.2"/>
		
			<ellipse id="XMLID_455_" transform="matrix(0.9445 -0.3284 0.3284 0.9445 -10.4023 229.6134)" class="st8" cx="674.5" cy="145.6" rx="6.5" ry="17.1"/>
	</g>
</g>
</svg>
