<?xml version="1.0" encoding="utf-8"?>
<!-- Generator: Adobe Illustrator 19.0.0, SVG Export Plug-In . SVG Version: 6.00 Build 0)  -->
<svg version="1.1" xmlns="http://www.w3.org/2000/svg" xmlns:xlink="http://www.w3.org/1999/xlink" x="0px" y="0px"
	 viewBox="0 0 960 560" style="enable-background:new 0 0 960 560;" xml:space="preserve">
<style type="text/css">
	.st0{fill:#020B11;stroke:#FFFFFF;stroke-miterlimit:10;}
	.st1{fill:#B9D9EA;stroke:#FFFFFF;stroke-miterlimit:10;}
	.st2{fill:#7F9FC6;}
	.st3{fill:#232526;}
	.st4{fill:#444649;stroke:#000000;stroke-miterlimit:10;}
	.st5{opacity:0.61;fill:#030D16;}
	.st6{fill:#578BB2;stroke:#000000;stroke-miterlimit:10;}
	.st7{opacity:0.65;}
	.st8{fill:#ABC6DB;stroke:#000000;stroke-miterlimit:10;}
	.st9{fill:#9E9ECC;stroke:#000000;stroke-miterlimit:10;}
	.st10{opacity:0.28;}
	.st11{opacity:0.22;}
	.st12{opacity:0.32;}
	.st13{opacity:0.32;fill:#FFFFFF;}
	.st14{opacity:0.39;}
	.st15{opacity:0.3;}
	.st16{opacity:0.37;}
	.st17{opacity:0.25;fill:#FFFFFF;}
	.st18{opacity:0.28;fill:#FFFFFF;}
	.st19{opacity:0.23;fill:#FFFFFF;}
	.st20{fill:#8C5B1B;stroke:#000000;stroke-width:2;stroke-miterlimit:10;}
	.st21{opacity:0.47;}
	.st22{fill:#B77425;stroke:#000000;stroke-miterlimit:10;}
	.st23{fill:#66390C;}
	.st24{fill:#202020;}
	.st25{opacity:0.76;}
	.st26{opacity:0.94;}
	.st27{opacity:0.89;}
	.st28{opacity:0.41;}
	.st29{opacity:0.52;}
	.st30{opacity:0.26;fill:#FFFFFF;}
	.st31{opacity:0.29;fill:#FFFFFF;}
	.st32{opacity:0.56;}
	.st33{opacity:0.29;}
	.st34{opacity:0.33;fill:#FFFFFF;}
	.st35{fill:#F9C178;stroke:#000000;stroke-miterlimit:10;}
	.st36{display:none;}
	.st37{fill:#C18F4D;}
	.st38{fill:#141E4F;}
	.st39{opacity:0.63;}
	.st40{opacity:0.7;}
	.st41{opacity:0.67;}
	.st42{opacity:0.66;}
	.st43{opacity:0.62;}
	.st44{opacity:0.79;}
	.st45{fill:#63120E;}
	.st46{opacity:0.9;}
	.st47{opacity:0.39;fill:#FFFFFF;stroke:#000000;stroke-miterlimit:10;}
	.st48{opacity:0.29;fill:#FFFFFF;stroke:#000000;stroke-miterlimit:10;}
	.st49{opacity:0.91;}
	.st50{opacity:0.93;}
	.st51{opacity:0.44;fill:#FFFFFF;}
</style>
<g id="ACTIVEDARKNIGHT">
	<rect id="XMLID_2_" class="st0" width="960" height="560"/>
</g>
<g id="ACTIVEDAY">
	<rect id="XMLID_3_" class="st1" width="960" height="560"/>
</g>
<g id="static">
	<g id="XMLID_64_">
		<g id="XMLID_47_">
			<path id="XMLID_20_" class="st2" d="M0,165c0,0,1-4,30,14c0,0,50-32.7,86-24.4c0,0,30-7.4,56,11.5s62,43.9,87,46.9
				s76,37.4,81,40.2c5,2.8,5,2.8,5,2.8s34-20.7,79,7.7c0,0,53.4,3.3,61.5,13.8c0,0,58.5-62.5,100.5-66.5s80,33,80,33s17,17,49,14
				s82-32.1,82-32.1s37-19.2,59.5-10.6s68.5-20.2,77.5-26.3s21-17.1,26-13.1s0,384,0,384H0V165z"/>
			<path id="XMLID_15_" class="st3" d="M222,400.3L235,157c0,0,4.7-5.3,5.3,0l-14.7,243.3H222z"/>
			<path id="XMLID_14_" class="st3" d="M268.1,386.6l9-243.5c0,0,4.6-5.4,5.3-0.1l-10.7,243.5L268.1,386.6z"/>
			<path id="XMLID_16_" class="st3" d="M356.6,434.9l5.3-243.5c0,0,3.2-5.4,3.8-0.1l-6.5,243.5L356.6,434.9z"/>
			<path id="XMLID_17_" class="st3" d="M485.5,445l7.4-243.4c0,0,3.2-5.4,3.7,0L488.1,445L485.5,445z"/>
			<path id="XMLID_18_" class="st3" d="M613.1,435l2-243.5c0,0,3.1-5.4,3.7-0.1l-3.2,243.5L613.1,435z"/>
			<path id="XMLID_19_" class="st3" d="M810,471.7l7.4-243.4c0,0,3.2-5.4,3.7,0l-8.6,243.4L810,471.7z"/>
			<rect id="XMLID_12_" x="829" y="322" class="st4" width="7" height="64.5"/>
			<rect id="XMLID_13_" x="877" y="322" class="st4" width="7" height="64.5"/>
			<rect id="XMLID_10_" x="829" y="306" class="st4" width="55" height="25"/>
			<path id="XMLID_11_" class="st4" d="M235,430V267c0,0,17-31,37,0v163H235z"/>
			<rect id="XMLID_9_" x="734" y="331" class="st4" width="76" height="111"/>
			<polygon id="XMLID_7_" class="st4" points="689,347 689,421 779,421 779,341.5 			"/>
			<polygon id="XMLID_8_" class="st4" points="521,403 521,322 546,317 546,312 589,306 594,322 594,403 			"/>
			<polygon id="XMLID_6_" class="st4" points="222,348 222,292 285,292 285,312 364,305 402,327 497,329 521,331 521,385 222,385 
							"/>
			<polygon id="XMLID_5_" class="st4" points="11.1,336.2 63,336.2 63,322 294,329.1 294,361 0,355 			"/>
			<ellipse id="XMLID_4_" class="st5" cx="74" cy="369.5" rx="5" ry="42.7"/>
			<ellipse id="XMLID_21_" class="st5" cx="86.1" cy="369.5" rx="5" ry="42.7"/>
			<ellipse id="XMLID_23_" class="st5" cx="100" cy="369.5" rx="5" ry="42.7"/>
			<ellipse id="XMLID_22_" class="st5" cx="112.1" cy="369.5" rx="5" ry="42.7"/>
			<ellipse id="XMLID_27_" class="st5" cx="124.3" cy="371.6" rx="5" ry="42.7"/>
			<ellipse id="XMLID_26_" class="st5" cx="136.5" cy="371.6" rx="5" ry="42.7"/>
			<ellipse id="XMLID_25_" class="st5" cx="150.3" cy="371.6" rx="5" ry="42.7"/>
			<ellipse id="XMLID_24_" class="st5" cx="162.5" cy="371.6" rx="5" ry="42.7"/>
			<ellipse id="XMLID_31_" class="st5" cx="175.5" cy="374" rx="5" ry="42.7"/>
			<ellipse id="XMLID_30_" class="st5" cx="187.6" cy="374" rx="5" ry="42.7"/>
			<ellipse id="XMLID_29_" class="st5" cx="201.5" cy="374" rx="5" ry="42.7"/>
			<ellipse id="XMLID_28_" class="st5" cx="213.6" cy="374" rx="5" ry="42.7"/>
			<ellipse id="XMLID_35_" class="st5" cx="227" cy="374" rx="5" ry="42.7"/>
			<ellipse id="XMLID_34_" class="st5" cx="239.2" cy="374" rx="5" ry="42.7"/>
			<ellipse id="XMLID_33_" class="st5" cx="253" cy="374" rx="5" ry="42.7"/>
			<ellipse id="XMLID_32_" class="st5" cx="265.2" cy="374" rx="5" ry="42.7"/>
			<ellipse id="XMLID_37_" class="st5" cx="276.4" cy="374" rx="5" ry="42.7"/>
			<ellipse id="XMLID_36_" class="st5" cx="288.5" cy="374" rx="5" ry="42.7"/>
			<polygon id="XMLID_38_" class="st6" points="285,312 253,326.8 322.5,326.8 364,305 			"/>
			<path id="XMLID_39_" class="st6" d="M402,327l-36.3,8l137.3,6.6l18-10.6C521,331,482.5,320,402,327z"/>
			<path id="XMLID_40_" class="st6" d="M521,322h73c0,0,3.5-15-10.5-22c0,0-40.5,6-38.5,11C545,311,528.5,314,521,322z"/>
			<path id="XMLID_42_" class="st6" d="M689,352l90-3.7c0,0,5.5-6.8-5-9.8S670.5,339.5,689,352z"/>
			<path id="XMLID_41_" class="st6" d="M733.5,333.1c0,0-2.5-9.3,0.5-8.5s71.8-4,76,2.1s0.5,8.8-2,8.2
				C805.5,334.5,733.5,333.1,733.5,333.1z"/>
			<path id="XMLID_43_" class="st6" d="M235,267c0,0,4.4,3,9.2,3c4.8,0,11.1-1,15.9,0c4.9,1,7.8-2,10.1-1.5
				c2.2,0.5,1.7-12.4-16.7-18.5C253.5,250,232,258,235,267z"/>
			<polygon id="XMLID_44_" class="st7" points="325,331 356.6,331.3 358.1,364.3 325,364.3 			"/>
			<rect id="XMLID_45_" x="226.5" y="297" class="st8" width="25.4" height="16"/>
			<rect id="XMLID_46_" x="260.7" y="297" class="st8" width="13.8" height="16"/>
			<path id="XMLID_1_" class="st9" d="M0,335.2C0,335.2-6.5,334.8,0,335.2c16.2,0.9,47.6,5,69,22.8c0,0,2-11,18,0c0,0,27-39,34,0
				c0,0,12-24,43,0c0,0,85-16,142-6c0,0,30-15,43-5.5c13,9.5,13,9.5,13,9.5s33-14,63,2s30,16,30,16s-20-26,0-19.5c0,0,16-15.5,32,0
				c0,0,13-7.5,31,19.5c0,0-17-38,24-7c0,0,9-51,121,2c0,0,39-9,59,5c0,0,29-15,56,0v-25c0,0,19-14,32,1c0,0,38-14,51,4.5
				c0,0,33-8.5,57,6.5c0,0,34-2,42,8v191H0L0,335.2z"/>
		</g>
		<path id="XMLID_49_" class="st10" d="M63,458c0,0,80.8,10,155.7-37C218.7,421,162,484,63,458z"/>
		<path id="XMLID_50_" class="st11" d="M316,421c0,0,47.9-5.6,85-49.4c0,0,17-3.6,66,19.4s90.7,54,90.7,54S397,457,316,421z"/>
		<path id="XMLID_48_" class="st12" d="M55,364.3c0,0,66.5,27.9,127.8,22.3c0,0-98.9,20.4-113.9,7.4S46.8,375,55,364.3z"/>
		<path id="XMLID_52_" class="st12" d="M821.1,442c0,0,49.9,5,87.9-12C909,430,876.3,488,821.1,442z"/>
		<path id="XMLID_53_" class="st12" d="M877,369.5c0,0-43,8.2-41,28.9C836,398.3,815,362,877,369.5z"/>
		<path id="XMLID_54_" class="st12" d="M552,374c0,0,19.8-30.3,66.9-9.7c47.1,20.7,51.1,36,51.1,36S589,407,552,374z"/>
		<path id="XMLID_51_" class="st13" d="M308.5,364.3c0,0,17.5-19.3,40.5-3.3S291,383.7,308.5,364.3z"/>
		<path id="XMLID_55_" class="st13" d="M162.5,502c0,0,106.5-44.6,153.5-30.3S187.2,550.9,162.5,502z"/>
		<path id="XMLID_57_" class="st13" d="M716,403c0,0,5-23,40-11s48,50,48,50S778,487,716,403z"/>
		<path id="XMLID_56_" class="st13" d="M21,381.3c0,0,7.9,26,74,35.3c0,0-46,23.9-55,4.6C31,402,5,388.7,21,381.3z"/>
		<path id="XMLID_59_" class="st14" d="M693,292c0,0,25-13.6,50-21.8c25-8.2,55-11.2,57-20.2S693,276,693,292z"/>
		<path id="XMLID_60_" class="st15" d="M506,277.5c0,0,33.1-56.7,88.4-51.6C594.4,225.9,561,261,506,277.5z"/>
		<path id="XMLID_61_" class="st16" d="M51.6,218c0,0,32.2,49.3,98.8,79C150.3,297,67.1,286,51.6,218z"/>
		<path id="XMLID_58_" class="st17" d="M86.1,177c0,0,39.6-22,69.2-5s40.6,45.1,58.3,50C213.6,222,128.3,219,86.1,177z"/>
		<path id="XMLID_63_" class="st18" d="M377,270.2c0,0,27-12.2,48,9.8C425,280,383.9,291.5,377,270.2z"/>
		<path id="XMLID_62_" class="st19" d="M844,237c0,0,2.1-10.8,21.1-11.4C884,225,938,205.4,941,199.2c0,0,16-1.2,14,7.8
			s-79.9,35-89.9,34C855,240,835.2,246,844,237z"/>
	</g>
</g>
<g id="ACTIVENORRIS">
	<g id="XMLID_109_">
		<g id="XMLID_100_">
			<path id="XMLID_95_" class="st20" d="M313,415c0,0,81.3,77,98.1,145H529c0,0-65.6-148.8-129.7-178.3L313,415z"/>
			<path id="XMLID_96_" class="st21" d="M367.5,477.2c0,0,38.2-54.6,83.8-49.4l9.4,12.3c0,0-36.3-23.9-86.1,47L367.5,477.2z"/>
			<path id="XMLID_97_" class="st21" d="M399.3,528.3c0,0,47.2-60.5,86.5-50.4l5.5,9.2c0,0-27.7-13.9-89.5,46.5L399.3,528.3z"/>
			<path id="XMLID_98_" class="st21" d="M386.6,505.2c0,0,34.1-58.7,83.7-51.4l5.7,8.6c0,0-48.8-8-84.4,51.3L386.6,505.2z"/>
			<path id="XMLID_99_" class="st21" d="M406.7,551.5c0,0,37-58.7,90.9-51.4l6.2,8.6c0,0-53-8-91.7,51.3L406.7,551.5z"/>
			<path id="XMLID_69_" class="st22" d="M208.6,283.1c0,0-25.2,79.8,56.6,151.9c0,0,77.8,29.6,130.8-13.6S422.7,318,436.8,305
				s6.5-63,6.5-63S466,70,393,73s-156.6-15.6-148.8,67.7C244.2,140.7,194.2,226.2,208.6,283.1z"/>
			<g id="XMLID_70_">
				<path id="XMLID_304_" class="st23" d="M258.1,165.6c0,0-36.1,44.4-29.1,69.4c0,0-46.9-21.5-48.5-62.7
					C179,131,185.9,136,196.5,118c10.5-18-7.2-27.1,12.1-45s22.8-36,34.6-37c11.8-1,18.5-12.1,33.1-12.1S303,16,316,16
					s28.3-7.9,37.1,0S395,21,401,33s21,24.9,29,40s24,35,21,46s-21,4.8-21,4.8S423,84,407,84c0,0-58,18-105,4s-48.5,15-48.5,15
					s-1.1,9.5,11.7,20.8C265.2,123.8,275.1,140.4,258.1,165.6z"/>
				<g id="XMLID_210_">
					<g id="XMLID_214_">
						<g id="XMLID_215_">
							<g id="XMLID_216_">
								<path id="XMLID_303_" class="st24" d="M264.7,168.7c-0.9,1.2,0.5,1.4,0.5,1.7C266.3,168.2,264.4,168.6,264.7,168.7z"/>
								<path id="XMLID_302_" class="st24" d="M271.6,145.7l0.4,0.5c0,0,0-0.2-0.1-0.6c-0.1-0.4-0.1-0.8-0.2-1.3
									c-0.2-0.9-0.4-1.8-0.4-1.8s0.1,0.8,0.1,1.6c0,0.4,0.1,0.8,0.1,1.1C271.6,145.5,271.6,145.7,271.6,145.7z"/>
								<path id="XMLID_301_" class="st24" d="M269.6,122.6c-0.2,0.9-0.1,1.8,0.2,2.9c0.2,1,0.6,2,1,3.1c0.4,1.1,0.7,2.3,1,3.4
									c0.2,1.2,0.3,2.3,0.2,3.3l-0.5,0.7c0,0,0.4,0.4,0.9,0.9c0.4,0.5,0.9,0.9,0.9,0.9c-0.1-2.5-0.6-5.4-1.4-8
									c-0.4-1.3-0.8-2.6-1.2-3.7c-0.2-0.6-0.4-1.2-0.6-1.8C270,123.7,269.8,123.1,269.6,122.6z"/>
								<path id="XMLID_300_" class="st24" d="M266,111.3c-0.2,0.5-0.6,0.2-0.6,0.2c0,0,0.1,0,0.3,0.2c0.2,0.2,0.6,0.6,1.3,1.3
									c-0.1-0.2,0-0.3-0.1-0.4C266.7,112.3,266.4,112,266,111.3z"/>
								<path id="XMLID_299_" class="st24" d="M266.9,112.6C268,113.8,266.7,111.3,266.9,112.6L266.9,112.6z"/>
								<path id="XMLID_298_" class="st24" d="M262.8,106.8c0,0,0.1,0.1,0.2,0.2c0.1,0.1,0.3,0.3,0.5,0.5c0.2,0.2,0.4,0.3,0.5,0.5
									c0.1,0.1,0.2,0.2,0.2,0.2c0.2-0.6-0.3-2,0.3-1.6c-0.5-0.7-0.8-0.9-1.1-0.9C263.2,105.8,263,106.2,262.8,106.8z"/>
								<path id="XMLID_297_" class="st24" d="M260.8,105.6c0,0,0.6,0.8,0.6,0.8C261.5,106.2,261.5,106,260.8,105.6z"/>
								<path id="XMLID_296_" class="st24" d="M262.8,108.2c0,0-0.1-0.1-0.2-0.3c-0.1-0.2-0.3-0.4-0.5-0.6c-0.2-0.2-0.3-0.4-0.5-0.6
									c-0.1-0.2-0.2-0.3-0.2-0.3c-0.3,0.4-0.9,0.7,0.6,0.8C261.3,107.4,262,107.6,262.8,108.2z"/>
								<path id="XMLID_295_" class="st24" d="M263.1,109.5c0.1,1.2,0.9,2.8-1,1.3c1.3,1.8,2.3,2.2,2.4,1.9c0.1-0.2,0-0.6-0.2-1.1
									c-0.1-0.3-0.3-0.6-0.5-0.9C263.6,110.3,263.3,109.9,263.1,109.5z"/>
								<path id="XMLID_294_" class="st24" d="M267.1,122.6c0,0,0.2,0.6,0.3,1.3c0.1,0.6,0.2,1.3,0.2,1.3s0.4,0.4,0.7,0.9
									c0.3,0.4,0.6,0.9,0.6,0.9c-0.3-0.4-0.5-1.6-0.9-2.6C267.8,123.2,267.4,122.3,267.1,122.6z"/>
								<path id="XMLID_293_" class="st24" d="M265.1,99.1c-0.3-0.4-1.3-0.3-1.8-0.5c0,0,0,0.1,0,0.2c0,0.1,0,0.3-0.1,0.5
									c-0.1,0.3-0.1,0.7-0.1,0.7C263.6,99.5,264.5,98.7,265.1,99.1z"/>
								<path id="XMLID_292_" class="st24" d="M263.3,98.6c0,0,0-0.1,0.1-0.3c0-0.2,0.1-0.4,0.2-0.7c0.1-0.5,0.3-1,0.3-1
									C262.6,97.9,262.8,98.4,263.3,98.6z"/>
								<path id="XMLID_291_" class="st24" d="M258.4,105.8c0,0,0.2,0.2,0.4,0.5c0.2,0.3,0.6,0.7,0.9,1.1c0.7,0.8,1.5,1.5,1.5,1.5
									s-0.2-0.2-0.5-0.6c-0.3-0.3-0.7-0.8-1.1-1.3c-0.8-1-1.4-2-1.4-2S258.4,105.8,258.4,105.8z"/>
								<path id="XMLID_290_" class="st24" d="M270.3,95.4c0,0-0.2,0.3-0.3,0.7c-0.1,0.3-0.2,0.7-0.2,0.7s0.1-0.1,0.1-0.3
									c0.1-0.2,0.2-0.5,0.4-0.7c0.2-0.3,0.3-0.5,0.4-0.8c0.1-0.2,0.2-0.3,0.2-0.3s0,0-0.1,0.1c-0.1,0.1-0.1,0.2-0.2,0.3
									C270.4,95.2,270.3,95.4,270.3,95.4z"/>
								<path id="XMLID_289_" class="st24" d="M275.5,94c-0.4,0.5,0,0.8,0.3,1.1c0.4,0.3,0.7,0.6,0.2,0.9c1.5-0.3,2.9-1.1,4.2-1.7
									c-0.7,0.2-1.4,0.3-2.2,0.2C277.3,94.4,276.5,94.2,275.5,94z"/>
								<path id="XMLID_288_" class="st24" d="M282.6,93.3c-0.8,0.2-1.5,0.5-2.3,0.9C281,94,281.8,93.8,282.6,93.3z"/>
								<path id="XMLID_287_" class="st24" d="M266.6,94.6c0.3,0.1,0.9,0.6,2,0.4c0,0-0.3-0.2-0.6-0.4c-0.3-0.2-0.7-0.4-0.7-0.4
									C267.1,94.3,266.8,94.4,266.6,94.6z"/>
								<path id="XMLID_286_" class="st24" d="M267.2,94.1L267.2,94.1c0.4-0.2,0.8-0.3,1.1-0.5c0.3-0.1,0.5-0.2,0.6-0.3
									c-0.1,0-0.3,0.1-0.6,0.2C268.1,93.8,267.7,93.9,267.2,94.1z"/>
								<path id="XMLID_285_" class="st24" d="M266.4,94.7c0.1,0,0.1-0.1,0.2-0.1C266.4,94.5,266.4,94.5,266.4,94.7z"/>
								<path id="XMLID_284_" class="st24" d="M259.9,100.7c-0.1-0.7-0.1-1.9-0.2-2.5c-0.1-0.7-0.5-1-1.7,0.2c0.2,0.7,0.6,0.7,1,0.8
									C259.4,99.3,259.7,99.6,259.9,100.7z"/>
								<path id="XMLID_283_" class="st24" d="M264.6,94c0,0-0.1,0.1-0.3,0.2c-0.2,0.1-0.5,0.3-0.7,0.5c-0.2,0.2-0.5,0.4-0.7,0.5
									c-0.2,0.1-0.3,0.2-0.3,0.2c0.3,0.2,0.9,0.2,0.8,0.9c0,0,0.2-0.6,0.5-1.2c0.1-0.3,0.3-0.6,0.4-0.8
									C264.5,94.1,264.6,94,264.6,94z"/>
								<path id="XMLID_282_" class="st24" d="M265.3,93c0,0-0.2,0.3-0.4,0.5c-0.2,0.2-0.4,0.5-0.4,0.5c0,0,0.8-0.4,0.8-0.4
									L265.3,93z"/>
								<path id="XMLID_281_" class="st24" d="M277.8,92c0.6-0.3,1.2-0.4,1.9-0.6c0.7-0.1,1.4-0.1,2.2-0.1c-1.6-0.3-3.3-0.5-4.9-0.4
									C276.8,91.4,276.2,92.2,277.8,92z"/>
								<path id="XMLID_280_" class="st24" d="M272.3,92.4c0.1,0,0.2-0.1,0.2-0.1C272.3,92.2,272.2,92.2,272.3,92.4z"/>
								<path id="XMLID_279_" class="st24" d="M297.5,94.2c-0.1-0.1-0.1-0.2-0.2-0.3c0,0.1-0.1,0.1-0.1,0.2L297.5,94.2z"/>
								<path id="XMLID_278_" class="st24" d="M276.7,90.8c-0.6-0.1-1.1,0-1.5,0.1c-0.4,0.2-0.7,0.4-1,0.6c0.4-0.1,0.8-0.3,1.3-0.3
									c0.5-0.1,1-0.1,1.5-0.2C277.1,90.8,277.1,90.7,276.7,90.8z"/>
								<path id="XMLID_277_" class="st24" d="M286.8,93.2c-0.6-0.4-1.3-0.7-2.1-1C285.4,92.6,286.6,93.5,286.8,93.2z"/>
								<path id="XMLID_276_" class="st24" d="M272.9,92.5c0,0-0.1,0.1-0.1,0.1C273.2,92.8,273.1,92.7,272.9,92.5z"/>
								<path id="XMLID_275_" class="st24" d="M272.9,92.5c0.5-0.3,0.9-0.7,1.3-1c-0.7,0.2-1.3,0.5-1.8,0.8
									C272.6,92.3,272.8,92.4,272.9,92.5z"/>
								<path id="XMLID_274_" class="st24" d="M304.8,87.6c-0.3,0.5-1.4,0.8-2.8,0.8c-1.4-0.1-3-0.6-4.4-1.7
									c-1.7,0.1-2.2,1.2-2.1,2.6c0.1,1.4,0.9,3.2,1.9,4.6c0.2-0.5,0.3-0.9,3.6-0.8c-0.5-0.5-2-1.3-3.2-2.1
									c-1.1-0.8-1.8-1.4-0.4-1.6c4.3,0.6,3.2,1.3,5.1,2.5c-1.4-1.9,6-0.7,5.6-3.1l-3.9-0.2C304.3,88.3,305.7,88.1,304.8,87.6z"/>
								<path id="XMLID_273_" class="st24" d="M291.7,92.4l-1.2-0.1c0.7,0.2,1.2,0.5,1.8,0.9c0.6,0.4,1.2,0.9,2,1.6
									c2.1-0.1,2.7-0.3,2.9-0.7c0,0-1.5-0.5-3-0.8c-0.7-0.2-1.5-0.4-2.1-0.5c-0.6-0.1-0.9-0.2-0.9-0.2L291.7,92.4z"/>
								<path id="XMLID_272_" class="st24" d="M285,91.4c1.1-1.2,4.2-1.3,2.5-2.9c-1.9-0.2-2.5,0-3,0.3c-0.5,0.3-0.8,0.6-1.9,0.8
									c5.8,0.2-1.7,0.6,2.4,1.7c-1.1,0.1-2.2,0-3.1,0.1c1,0.2,2,0.5,2.8,0.8c0,0-0.1-0.1-0.1-0.1l0,0c0,0,0,0,0,0
									c-0.2-0.2-0.3-0.3,0-0.2c0,0,0.1,0,0.1,0C284.8,91.7,284.9,91.6,285,91.4c1.6,0.4,0.2,0.4-0.3,0.5c0,0.1-0.1,0.1-0.1,0.2
									l0,0c0,0,0.4,0,0.9,0c0.5,0,1.3,0,2,0c0.7,0,1.5,0,2,0.1c0.6,0,0.9,0.1,0.9,0.1C289.3,91.9,287.7,91.6,285,91.4z"/>
								<path id="XMLID_271_" class="st24" d="M257.2,94.3c0.2-0.1,0.3,0,0.4,0C257.6,93.9,257.6,93.7,257.2,94.3z"/>
								<path id="XMLID_270_" class="st24" d="M259.3,92.8c-0.2,0.4,0,1-0.9,2.1c-1,0.8-0.5-0.3-0.9-0.5c-0.1,0.5-0.3,1.2-0.2,1.6
									c0.1,0.4,0.4,0.4,1.3-0.5l0.1-0.4c0.8-0.8,2.1-1.5,3.1-1.7c1-0.3,1.7-0.3,1.6-0.1c-0.6-0.3-1.2-0.5-1.8-0.5
									C261,92.5,260.3,92.5,259.3,92.8z"/>
								<path id="XMLID_269_" class="st24" d="M272.1,88.6c0,0,0.3-0.1,0.7-0.3c0.4-0.1,1-0.3,1.6-0.5c0.6-0.2,1.2-0.3,1.6-0.4
									c0.5-0.1,0.8-0.2,0.8-0.2s-0.7-0.2-1.3-0.5c-0.7-0.2-1.3-0.4-1.3-0.4l0.2,0.6c-1.4,0.1-1.9,0.3-2.1,0.6
									C272.1,88,272.2,88.3,272.1,88.6z"/>
								<path id="XMLID_268_" class="st24" d="M297.9,94.9l-1,1.1c0,0,3.2-1.1,3.3-1.1L297.9,94.9z"/>
								<polygon id="XMLID_267_" class="st24" points="304.8,96.6 304.3,97.6 306.4,97.4 								"/>
								<path id="XMLID_266_" class="st24" d="M293.5,28.3l-1.5,0.8C292.7,28.8,293.2,28.5,293.5,28.3z"/>
								<path id="XMLID_265_" class="st24" d="M304.4,25.2l0.1-0.6C304.1,25,304,25.3,304.4,25.2z"/>
								<path id="XMLID_264_" class="st24" d="M454.4,127.7c1.7-0.9,3.3-2.2,4.3-3.4c0.5-0.6,0.8-1.1,1-1.5c0.1-0.4,0-0.6-0.3-0.6
									c0,0-0.4,0.2-0.8,0.3c-0.4,0.1-0.8,0.3-0.8,0.3C457.1,125.2,455.7,126.8,454.4,127.7z"/>
								<path id="XMLID_263_" class="st24" d="M392.2,26.7c0.2,0.2,0.3,0.4,0.5,0.6c0.7-0.2,1.3-0.4,1.9-0.5
									C393.8,26.7,393,26.7,392.2,26.7z"/>
								<path id="XMLID_262_" class="st24" d="M389,31.3c0,0-0.1-0.1-0.4-0.3c-0.2-0.1-0.5-0.3-0.8-0.5c-0.6-0.4-1.2-0.8-1.2-0.8
									C387.2,30.1,387.9,30.6,389,31.3z"/>
								<path id="XMLID_261_" class="st24" d="M240.4,46.9l0.1,1.9c0.7-0.8,0.7-1.1,0.6-1.3C240.9,47.3,240.6,47.2,240.4,46.9z"/>
								<path id="XMLID_260_" class="st24" d="M378.2,97.5c2.1,0.2,3.7,0.2,5.1,0C380.8,97.2,378.6,96.4,378.2,97.5z"/>
								<path id="XMLID_259_" class="st24" d="M293.9,13.8c-0.8,0.5-1.1,0.9-1,1.1C293.8,14.5,294.2,14.1,293.9,13.8z"/>
								<path id="XMLID_258_" class="st24" d="M389,96.4c-0.4-0.1-0.7-0.1-1.1-0.1c-1.4,0.5-2.9,0.9-4.6,1.2
									C385.2,97.7,387.3,97.7,389,96.4z"/>
								<path id="XMLID_257_" class="st24" d="M219.9,220.8c0.1,0.1,0.1,0.2,0.2,0.3C220.1,220.9,220,220.8,219.9,220.8z"/>
								<path id="XMLID_256_" class="st24" d="M251.8,184.1c-0.3,0.6-0.8,1.4-1.3,2.2C250.8,186,251.2,185.3,251.8,184.1z"/>
								<path id="XMLID_255_" class="st24" d="M333.8,101.2C332.3,101.3,333.6,101.4,333.8,101.2L333.8,101.2z"/>
								<path id="XMLID_254_" class="st24" d="M326.8,95.6c0.3-0.1,0.6-0.3,0.6-0.6C327.3,95.4,327.1,95.5,326.8,95.6z"/>
								<path id="XMLID_253_" class="st24" d="M401.7,85.3c0,0,0.1,0,0.1,0C401.4,85.1,401.4,85.1,401.7,85.3z"/>
								<path id="XMLID_252_" class="st24" d="M331.6,100.5c0.6,0.2,1.2,0.4,1.9,0.5C333.2,100.9,332.6,100.8,331.6,100.5z"/>
								<path id="XMLID_251_" class="st24" d="M331.8,101.2c-0.5-0.1-0.9-0.1-1.3-0.2C330.3,101.2,330.4,101.3,331.8,101.2z"/>
								<path id="XMLID_250_" class="st24" d="M336,101.3c-0.9,0-1.7-0.1-2.5-0.3c0.3,0.1,0.4,0.2,0.3,0.2
									C334.3,101.3,334.9,101.3,336,101.3z"/>
								<path id="XMLID_249_" class="st24" d="M191.3,132.2c-0.1,0.1-0.2,0.1-0.3,0.2C190.6,133.8,190.9,133.3,191.3,132.2z"/>
								<path id="XMLID_248_" class="st24" d="M433.8,91.2c0,0.1,0.1,0.1,0.1,0.1C434,91.3,433.9,91.2,433.8,91.2L433.8,91.2z"/>
								<path id="XMLID_247_" class="st24" d="M430.2,87.2c2.6,1.1,3.1,2.3,3.7,3.9l2.3-3.5L430.2,87.2z"/>
								<path id="XMLID_240_" class="st24" d="M268,33.2c0,0,0.8,0,1.5,0c0.7,0.1,1.5,0.1,1.5,0.1c-0.6,0.7-1.2,1.2-1.7,1.7
									c-0.2,0.2-0.5,0.4-0.7,0.6c-0.2,0.2-0.4,0.4-0.5,0.5c-0.5,0.6-0.3,0.8,1.1,0.9c-0.3-1,0.1-1.7,0.9-2.3
									c0.4-0.3,0.9-0.5,1.4-0.8c0.5-0.2,1.1-0.4,1.7-0.5c0.6-0.1,1.1-0.3,1.7-0.3c0.3,0,0.6-0.1,0.8-0.1c0.1,0,0.3-0.1,0.4-0.1
									l0.2-0.1c0.1,0,0.2,0,0.3-0.1c1.7-0.3,2.8-0.9,2.9-1.9l2.9,0.6c-0.8,0-0.9,0.3-1.7,0.3c2.9,0.7,3.8-0.2,4.9-1.3
									c1-1.1,2.1-2.4,5.4-2.9c2.3-0.3,3.9-0.1,2.6,0.7c0,0,0.3-0.1,0.7-0.4c0.4-0.2,1-0.5,1.5-0.8c1.1-0.6,2.2-1.2,2.2-1.2
									c1.4-0.3,1.2,0.4-0.1,0.8c0,0,1.7-0.6,3.4-1.2c0.8-0.3,1.7-0.6,2.3-0.8c0.6-0.2,1-0.3,1-0.3l0,0.1c0.8-0.9,2.6-2.4,3.6-3
									c1.8,0.2-0.7,0.6-0.2,1c0,0,0.8-0.4,1.7-0.9c0.8-0.4,1.7-0.8,1.7-0.8c0.8,0.4,0.5,1-0.3,1.5c-0.8,0.5-2,1-3.3,1.2
									c2.1,1.6,2.7,1.2,3.7,0.6c0.5-0.3,1.2-0.7,2.1-0.9c0.5-0.1,1-0.1,1.6,0c0.3,0,0.6,0.1,1,0.2c0.5,0.1,1.1,0.2,1.7,0.3
									c0,0-0.3,0.1-0.7,0.1c-0.2,0-0.5,0.1-0.7,0.1c-0.1,0-0.3,0-0.4,0.1l-0.3,0.1c-0.7,0.2-1.4,0.3-1.4,0.3
									c0.5,0.6,1,0.9,1.5,1.2c0.2,0.1,0.7,0.2,1.2,0.3c0.5,0.1,1,0.1,1.5,0.2c2,0.2,4.2,0.1,6.7,0.4c-0.6-0.3-3.2-0.8-5-1.6
									c-0.9-0.4-1.6-0.8-1.8-1.3c-0.2-0.4,0.3-0.8,1.5-1.2c1.4,0.2,3.3,0.1,5.6-1.1c0.3,1.4,2.7,0.7,5.5,0l0.2,1.9
									c2.9-1.1,2.5-2,4-3.2c3.2-0.4,4,1.1,4.8,2.3c2.1,0,1.4-0.5,0.7-1.2c-0.4-0.3-0.7-0.6-0.6-0.9c0.1-0.3,0.6-0.6,1.9-0.8
									c1.8,0.3,3,0.4,4.2,0.5c0.6,0,1.1,0.1,1.7,0.1c0.3,0,0.6,0.1,1,0.2c0.2,0.1,0.4,0.1,0.6,0.2c0,0,0.4,0.2,0.6,0.3
									c0.2,0.1,0.4,0.3,0.7,0.4c1.8,1.6,1.5,1.7,0.8,1.6c-0.7-0.1-1.7-0.4-1.1,0.3c0,0,0.3,0.1,0.7,0.2c0.2,0,0.5,0.1,0.7,0.2
									c0.3,0,0.5,0.1,0.8,0.1c1.1,0.2,2,0.1,2,0.1c0.8,0.4,0.4,0.7,0.1,0.9c1.5,0.3,1.7-0.2,2.1-0.5c0.4-0.4,1-0.6,3.1-0.3
									c0.8-0.9,2.6,0.4,4.9,1.6c2.3,1.2,5.1,2.4,7.6,1.6c1.1,0.7-0.7,1.1-0.5,1.9c6.6-0.5,5.6-0.3,11-1.3c0,0,1,0.5,2,1.1
									c0.5,0.3,1,0.6,1.3,0.8c0.3,0.2,0.6,0.4,0.6,0.4c-2.6-2.1,1.6-3,5.6-3c-0.8-1.1-1.6-2-2.2-2.4c0,0,1.5,0.2,3.1,0.5
									c1.5,0.3,3.1,0.8,3.1,0.8c0.5,0.7-0.4,0.9-1.6,1.2c0.4,0,0.9,0.1,1.2,0.1c1.6,1.7-0.1,2-1.7,2.4c-0.4-0.6-0.9-1.3-1.4-1.9
									c-1.8,0.5-3.4,1.4-3.4,2.6c0.4-0.1,1.1-0.1,1.8,0.1c-0.4,0.2-0.7,0.4-0.7,0.6c0.1,0.2,0.7,0,1.7-0.1c0,0,0.1,0.6,0.1,1.2
									c0,0.6,0,1.2,0,1.2l0.6-0.7c0,0,0.3,0.2,0.7,0.6c0.4,0.4,0.9,0.9,1.1,1.3c0.5,0.9,0.7,1.8,0.7,1.8l0.1,0l0,0c0,0,0,0,0,0
									c-0.1-0.2,0-0.1,0,0l0.5,0.4l0.9,0.8c0.6,0.5,1.3,1,1.9,1.5c1.3,1,2.6,1.8,4,2.8c2.8,1.8,5.6,3.9,8.8,7
									c-2.6-0.7-2.3,1.3-3.8,2.4c0-3.1-5-4.8-7.5-9.1c1.3,2.2,0.3,2.2-0.4,1.9c0,0,0.4,0.4,1,0.9c0.6,0.6,1.4,1.3,2.3,2
									c1.6,1.4,3.3,2.7,3.3,2.7c-1.3,0.8,0.2,2.1,1.1,4.1c1.3-3.1,5.4,3.4,8.2,5.3c-0.7,0.8-1.9,0.8-4.3-2.4
									c1,4.8,6.4,2.1,7.5,6.7c-0.6-0.7-0.8-1.3-1.4-1.2c2.1,1.2,4.7,6,3.3,5.5l-0.6-0.7c0.4,0.7,0.9,1.4,1.4,2.2
									c0.5,0.8,1.1,1.6,1.6,2.5c0.6,0.9,1.1,1.7,1.7,2.6c0.6,0.9,1.2,1.8,1.7,2.7c2.5,3.7,5,6.4,6.3,6.1c-0.2,0.2-3.1,0.9-3.7,0.8
									c0,0,3.4,1.4,6.7,2.7c3.4,1.4,6.7,2.7,6.7,2.7c-2.4,0.3-4.8,6.3-8.7,2.4c0.5,1.5,1.2,3.3,3.5,5.6c-0.3-1,1.4-3.9,2.3-2.7
									c0,2.3,0,3.1,0.2,3.9c0.1,0.8,0.4,1.7,0.6,4.3c-0.3-1.6,3.5-1.7,4.6,0.5c-0.6-0.1-2.9,1.7-3.7,1.1c0,0,1.4,0.9,2.8,1.9
									c1.4,1,2.7,2,2.7,2c-1.1-1.1-2.7,0.9-3.2,2.3c0.2-0.4,0.6,0.7,0.9,2c0,0.1,0.1,0.4,0.1,0.4l0,0.3c0,0.2,0.1,0.4,0.1,0.6
									c0,0.4,0.1,0.7,0.2,0.9c0,0,0.2-0.3,0.3-0.6c0.2-0.3,0.3-0.7,0.3-0.7c0.1,1,0.4,1.6,0.8,2.4c0.4,0.7,0.9,1.5,1.4,2.4
									c0.4,0.9,0.8,1.9,0.6,3c-0.1,1.1-0.8,2.2-2.3,2.9c0.2-0.5-0.2-1.6-0.9-2.5c-0.7-0.9-1.7-1.5-2.7-1.4c0,0.9-0.1,3.3-2.3,5.3
									c-1,1-2.7,1.9-4.6,2.5c-1.9,0.6-4.2,0.7-6.4,0.4c0,0-0.2-0.3-0.4-0.6c-0.2-0.3-0.4-0.6-0.4-0.6l-1.1-0.2
									c-0.2,0-0.3-0.1-0.4-0.2l-0.3-0.3l-1.5-3.8c0.7,0.6,1.6,1.4,2.6,2.7c0.3,0,0.5,0.1,0.7,0.2c0.3,0,0.8-0.1,1.1-0.2
									c0.8-0.1,1.5-0.3,2.3-0.5c1.5-0.4,3-0.9,4.2-1.5c1.2-0.6,2.2-1.2,2.9-1.7c0.6-0.6,1.2-1.1,1.5-1.6c-0.7-0.4-0.8-0.7-1-0.8
									c0,0-0.1-0.1-0.1-0.1c0,0-0.1,0-0.1,0c0,0-0.1,0,0,0c0,0-0.2,0-0.1,0c0.1,0-0.1,0-0.1,0c-0.1,0-0.3,0-0.5,0
									c-0.2-0.5,0.2-0.8,0.5-1c0.1-0.1,0.2-0.1,0.2-0.1l0.1,0c0.1,0-0.1,0-0.1,0c0.1,0,0.3,0,0.1-0.1c0.1-0.1,0.2-0.1,0.3-0.1
									c-0.1,0-0.4-0.1-1-0.4c-0.5-0.2-0.9-0.5-0.9-0.5c-0.3,0.3-0.5,0.6-0.8,0.8c-0.2,0.1-0.3,0.2-0.5,0.2l-0.1,0l-0.1,0
									c-0.1,0-0.1,0-0.2,0c-0.7-0.2-1.3-1.3-2.3-0.8c0.5,0.7,1,1.3,1.4,1.7c0.1,0.1,0.1,0.1,0.2,0.2l0.4,0c0.3,0,0.5-0.1,0.7-0.1
									c0.5-0.1,0.9-0.2,1.3-0.3c-0.2,0.6-0.7,1.3-1.7,1.9c-0.5,0.3-1.1,0.6-1.7,0.8c-0.3,0.1-0.7,0.2-1.1,0.3
									c-0.2,0-0.4,0.1-0.6,0.1c-0.1-0.1-0.2-0.2-0.3-0.2c-0.9-0.9-1.8-2.7-2.2-4.9c0.2-0.9,1.1-0.8,2.1-0.6c1,0.4,1.9,0.4,2.2,0.3
									c-0.3,0.2-1.1-1.5-1.7-2.9c-0.6-1.5-1.1-2.9-0.9-3.3c0,0,0.5,0.6,0.9,1.2c0.5,0.6,0.9,1.2,0.9,1.2c-0.1-1.9-1.2-3.3-2.2-4.7
									c-1-1.4-1.9-2.9-1.8-5.4c-0.4-1.5,0.6-5.5-0.7-5.3c-1,3.4-7.5,6.4-9.7,5.7c0-0.3-0.3-2.2-0.6-4.3c-0.3-2.1-0.8-4.4-0.8-5.4
									c0.1-1.5,1.4-1.4,2.9-1.1c1.5,0.3,2.9,0.8,3-0.6c-0.5,0.2-1.9-0.7-2.4-1.1c-0.3-0.8,0.1-1,0.4-1.2c0.1-0.1,0.2-0.3,0-0.6
									c-0.1-0.3-0.5-0.8-1.2-1.6c-1,0.4-2.3-1.2-3.2-2c-0.5-0.5-0.9-0.8-0.7-0.6c0.1,0.1,0.2,0.3,0.5,0.7c0.3,0.4,0.6,0.9,0.9,1.6
									c-0.8-0.6-1.4-1-1.9-1.6c-0.5-0.5-1-0.8-1.5-1.3c-1-0.8-2.1-1.8-4.6-2.4c0.4,0.5,0,1.1-0.8,1.6c-0.2,0.1-0.4,0.2-0.6,0.4
									c-0.2,0.1-0.5,0.3-0.7,0.4c-0.2,0.1-0.5,0.3-0.8,0.4c-0.3,0.1-0.5,0.4-0.8,0.6c-1.2,1-2.2,1.9-3.4,2.4
									c0.1-0.6-0.8-1-1.3-1.2c-6.7,1.5-10.5,1.4-16.8,2.6c-0.7-0.4-3.8-0.4-2.7-1.5c-0.8,0.5-1.5,1.4-3.5,1.7
									c-2-0.6-0.9-0.8,0.2-1.1c1.2-0.3,2.4-0.7,0.8-1.5c0,1.3-4.7,2.4-7.4,3.5c0.5,0.8,2.2,0.7,4,0.2c0.9-0.3,1.9-0.6,2.7-0.9
									c0.9-0.4,1.7-0.8,2.4-1.1c0.2,1.2-0.7,2.8-2.6,4.2c-1.9,1.4-4.6,2.8-7.9,3.8c-5.3,1.3-2.5-1.3-3.4-0.9
									c-1.3,0.1-2.3,0.3-3.3,0.4c-0.9,0.2-1.7,0.4-2.4,0.6c-1.4,0.5-2.4,1.1-3.3,1.6c-1.9,1.1-3.6,2-7.9,1.2
									c-3.4-1.5-0.3-3.2-1.1-4.3c2.2-0.4,3.8-0.2,5.4,0c1.5,0.3,2.9,0.5,4.3,0.4c0,0-0.9-0.1-1.8-0.2c-0.9-0.1-1.8-0.2-1.8-0.2
									c1.4-0.6,4.2-1.3,5.8-1c-1.4-0.6-5.7-0.3-10.5-0.2c-1.2,0-2.5,0.1-3.7,0.1c-1.3,0-2.5,0-3.7-0.1c-1.2,0-2.4-0.1-3.5-0.2
									c-1.1-0.1-2.2-0.2-3.1-0.5c-1.4,0.5-3.8,0.9-2.7,1.6l2.5-0.1c2.2,1.4-4.7,1.6-1.6,2.3c-1.7,0.4-3.5,0.9-5.5,1.2
									c-2,0.3-4.1,0.1-6.4-0.5l-0.7-1.9c0,0.5,2.9,1.4,4.3,1c-1,0.3-2.8-0.5-4.5-1.1c-0.9-0.3-1.8-0.6-2.6-0.6
									c-0.8-0.1-1.6,0-2.2,0.5c0,0,0.8,0.5,1.5,0.9c0.4,0.2,0.8,0.4,1.1,0.6c0.3,0.2,0.5,0.3,0.5,0.3c-0.9,0.2-1.8,0.3-2.8,0.4
									c-1,0.1-2,0.3-3,0.4c-1,0.1-2.1,0.1-3.2,0.1c-1.1-0.1-2.1-0.2-3.1-0.7c1.5,2.3,1,0,3.6,2.7c-1.1-1.5,1.7-1,4.2-0.6
									c1.3,0.2,2.5,0.5,3.1,0.4c0.7-0.1,0.8-0.4-0.2-1.2c2.8,2.8,5.2,1.6,9.1,4.1c0-0.3-0.4-0.6-0.3-0.8c0.1-0.2,0.7-0.2,2.5,0.1
									c0.2-0.2,0.6-0.4,0.8-0.5c0.1,0,0.1,0,0.2,0.1c-0.1,0-0.1-0.1-0.2-0.1c0.2-0.1,0.2-0.1-0.1,0c-0.8-0.3-1.5-0.7-1.8-1
									c1.9-1.3,7.5-0.9,9.4-1.6c2.1,0.3-0.9,0.7,0.2,1.3L342,98c0.3,1.3,5.6,2.2,0.6,3l4.5,0.1c2.7,0.7,6.3,0.8,8.5,0.1
									c2.1,0.2,5.2-1.9,3.5-0.7c0,0,1.7-0.4,3.5-0.7c0.9-0.2,1.7-0.4,2.4-0.5c0.6-0.2,1.1-0.3,1.1-0.3l0.1,0.3
									c3.4-0.3,6.9-1.2,10.5-2.1c3.6-0.8,7.3-1.4,11.4-1c2.2-0.8,4.5-1.6,8.3-2.1l1,1c1.4-0.5,3.7-0.8,5.7-1.1
									c1-0.2,2-0.4,2.7-0.6c0.2-0.1,0.4-0.1,0.5-0.2c0.2-0.1,0.1-0.1,0.2-0.1c0.1-0.1,0.1-0.2,0.1-0.4c0.2,0.3,0.3,0.6,0.4,0.8
									c0.2,0.4,0.4,0.6,0.6,0.8c0.2,0.1,0.4,0.2,0.6,0.3c-0.1-0.1,0.2,0,0.3,0.2c0.2,0.1,0.3,0.3,0.5,0.4c0.2,0.1,0.4,0.3,0.5,0.5
									c0.2,0.2,0.4,0.3,0.5,0.6c0.3,0.4,0.7,0.8,0.9,1.2c0.3,0.4,0.5,0.8,0.7,1.3l1.4-0.6c1.4,2.5,3,5,5,8.6l1.2-0.7
									c1.1,1.5,1.7,3.7,2.1,6.2c0.2,1.3,0.4,2.6,0.6,4c0.1,0.7,0.2,1.3,0.3,2.1c0.2,1.1,0.5,2.3,0.7,3.4c-0.3-0.2-0.6-0.9-0.8-1.8
									c-0.1-0.4-0.2-0.9-0.2-1.4c0-0.3,0-0.4,0-0.5c0-0.1,0-0.3,0-0.4l-0.1,0.5l0,0.2c0,0.1,0,0.2,0,0.3c0,0.5,0.1,1,0.1,1.5
									c0.1,1,0.2,2,0.3,3c0.3,2,0.7,4.1,1.2,6c0.4,0.2,0.7,0.4,1.3,0.5l1.5,0.3c1,0.2,1.9,0.4,2.9,0.6c1.9,0.4,3.9,0.6,5.7,0.7
									c0.9,0.1,1.8,0.1,2.7,0.1c0.8,0,2,0.1,2.8,0.1c1.8,0,3.5,0,5.2,0c2.2-1,3.8-1.5,5.5-2.1c-0.2,0.1-0.3,0.2-0.5,0.4
									c0.2-0.1,0.5-0.3,0.9-0.5c1-0.4,2.1-0.9,3.1-1.7c-1,0.5-1.9,1-2.7,1.3c0.8-0.5,1.6-1.3,2.4-2.3c0.8-1,1.5-2.3,1.9-3.6
									c0,0,0.5-0.1,0.9-0.2c0.4-0.1,0.9-0.2,0.9-0.2c0.1-0.2,0.1-0.4,0.2-0.6c0.7-1.3,0.6-1.9,0.3-2.1c-0.3-0.1-1,0.2-1.7,0.7
									c0.1-0.7,0.1-1.4,0-2c0-0.6-0.2-1.2-0.3-1.7c1.3-0.8,1-2.7,0.5-4.6c-0.3-0.9-0.5-1.8-0.7-2.8c-0.1-0.8,0-1.5,0.4-2.2
									c-0.8-0.5-1.9-3-3.3-5c-1.4-2.1-3-3.9-4.3-3.7c0.3-0.2,0.1-0.8,0.6,0.1c-0.7-2-1.5-4-3.1-5.3l1.1-1.7c0,0-1.1-0.7-2.2-1.3
									c-1.1-0.6-2.2-1.3-2.2-1.3c-0.5-2.9-0.5-4.2,2.1-2.6c-5.3-4.4-3.5-4.1-8.2-7.6l1.2-0.4c-1.1-1.6-4-3.5-3.7-5
									c0-0.6-0.2-1.3-0.5-2.2c-0.3-0.9-0.8-2-1.3-3.1c-0.6-1.2-1.3-2.4-2.1-3.7c-0.8-1.3-1.7-2.6-2.7-4c-3.8-5.4-8.6-11-11.3-16
									c-0.7,2-1.2,0.7-1.8-0.9c-0.6-1.6-1.4-3.4-2.6-2.8c0.3-1-0.3-2.5,1.3-1.5c-2-1.9-2.9-3.8-3.8-5.3c-0.4-0.8-0.8-1.4-1.3-2.1
									c-0.5-0.6-1.1-1.1-2-1.6c0-0.5,0.1-0.6,0.4-0.5c0,0,0.1,0.1,0.1,0.1c0,0,0.1,0.1,0.1,0.1c0,0,0.1,0,0.1,0
									c0.1,0,0.2,0,0.3,0.1c0.4,0.1,0.7,0.2,0.8-0.1c-0.1-0.1-0.2-0.2-0.4-0.3l-0.1-0.1l0,0l-0.1-0.2c-0.1-0.2-0.1-0.1-0.1-0.2
									c-0.1-0.1-0.2-0.3-0.4-0.5c-0.5-0.6-0.9-1.3-1-1.8c-0.1-0.5,0.2-0.4,0.8,0.1c0.3,0.2,0.5,0.6,0.8,0.9
									c0.1,0.2,0.3,0.3,0.4,0.5l0.2,0.2l0.1,0.1c0.1,0.1,0.2,0.3,0.2,0.3c-0.2-0.4-0.4-0.7-0.6-1c-0.2-0.3-0.3-0.5-0.5-0.7
									c-0.3-0.5-0.7-0.9-1-1.2c-0.7-0.8-1.4-1.3-2-1.7c-0.6-0.4-1.3-0.7-1.8-0.9c-0.5-0.2-1-0.3-1.4-0.2c-1.6,0-2.5,0.9-3.4,1.8
									c-0.6-0.7-1.2-1.2-1.8-1.6c-0.6-0.4-1.1-0.7-1.7-0.9c-0.6-0.2-1.1-0.2-1.7-0.2c-0.6,0-1.2,0.1-1.9,0.3c-0.4-0.5-1-1.1-1-1.5
									c0-0.4,0.6-0.5,2.5,0c-1.1-0.4-4.3-1.7-7.3-2.3c-3-0.7-5.7-0.9-6,0c-0.6-0.6-2.9-0.6-3.4-0.5c-4.6-0.9-4.9-1.1-9.3-1.8
									l1.1,0.5c-2.2,1.9-3.8-0.2-7.1-0.9l0.2-0.2c-1.7-1-2.6-1.6-3.2-1.9c-0.6-0.3-0.9-0.4-1.2-0.5c-0.2,0-0.3-0.1-0.5-0.2
									c-0.2-0.1-0.3-0.2-0.7-0.6c-0.2-0.2-0.4-0.4-0.6-0.6c-0.3-0.2-0.6-0.5-0.9-0.8c-0.7-0.6-1.6-1.3-2.7-2c0,0,0,0.4,0,0.8
									c0,0.4,0,0.8,0,0.8c-1.1,1.2-2.7,0-5.2-0.9c-2.5-1-5.8-1.8-8.3-0.8c0,0,0.5,0.1,1,0.3c0.5,0.2,1,0.3,1,0.3
									c-1.3,0.6-3.3-0.1-5.5-1c-2.1-0.9-4.2-1.9-5.6-1.9c-0.6-0.2,0.8-0.6,1.6-0.9c-3.6-0.2-3.7,0.3-3.6,1
									c0.1,0.7,0.5,1.7-1.9,2.4c-1-0.9,0.6-2.7-2.5-2.4c-0.8-0.3-2.9,0.9-5.2,1.6c-0.4,0.2-1.5,0.4-2.3,0.5
									c-0.9,0.2-1.8,0.3-2.6,0.5c-0.9,0.1-1.7,0.2-2.5,0.3c-0.8,0.1-1.6,0-2.2-0.1c0.6,0.3,1.3,0.6,1.5,0.9
									c0.2,0.4-0.2,0.7-1.4,1.3c-1.9,0.5-4.6,0.5-7.2,0.7c-2.6,0.3-4.9,0.8-6.1,2.4c-0.5-0.1-0.7-0.2-0.8-0.4
									c-1.2,0.7-3.3,1.6-5.1,2.4c-1.9,0.8-3.6,1.6-4.3,2.4c-0.8-1.2-2.1-1.4-3.7-1.3c-0.8,0.1-1.6,0.1-2.5,0.3
									c-0.5,0.1-1,0.2-1.5,0.3c-0.6,0.1-1.2,0.2-1.8,0.3c-0.6,0.1-1.2,0.2-1.7,0.4c-0.5,0.2-1.1,0.3-1.6,0.4
									c-1,0.3-1.9,0.6-2.7,0.8c-1.6,0.4-2.7,0.4-3.1-0.7c0,0-0.2,0-0.4,0.2c-0.3,0.1-0.6,0.3-1,0.5c-0.4,0.2-0.9,0.4-1.5,0.7
									c-0.5,0.3-1.1,0.5-1.6,0.8c-2.1,1.1-4,2.3-4,2.3l0-0.5c-2.6,1.3-4,2.4-4.9,3.3c-0.5,0.5-0.9,1-1.2,1.4
									c-0.3,0.4-0.6,0.9-0.9,1.3c-1.1,0.2-0.6-0.6-0.6-0.8c-0.4,0.1-0.8,0.2-1.2,0.3c-0.4,0.1-0.7,0.1-1,0.2
									c-0.3,0.1-0.6,0.1-0.9,0.2c-0.3,0-0.5,0.1-0.8,0.1c-0.2,0-0.5,0.1-0.7,0.1c-0.2,0-0.4,0-0.6,0.1c-0.2,0-0.4,0.1-0.6,0.1
									l-0.3,0.1c0,0-0.1,0-0.2,0l-0.3,0.1c-1.5,0.3-2.9,0.8-4.2,1.7c-1.4,0.9-2.7,2.2-3.9,3.9c0,0-0.4-0.1-0.8-0.3
									c-0.4-0.1-0.8-0.3-0.8-0.3c-0.3,0.5-1.1,1.3-2.3,2.3c-1.1,1-2.5,2.3-3.8,3.7c-2.7,2.9-5.4,6.4-6.9,10
									c-0.1-0.2-0.2-0.5-0.1-1.1c-1.8,4.1-5.7,7.5-9,10.4c-3.3,2.9-5.9,5.2-5.2,8.3c0,0-0.2,0.3-0.6,0.8c-0.3,0.5-0.8,1.2-1.2,1.9
									c-0.9,1.4-1.6,2.9-1.6,2.9c1.4-1.6,2.2-2,2.6-2.1c0.4-0.1,0.4,0.4,0.3,0.9c-0.1,1.1-0.6,2.6,0.8,1.7
									c-0.9,1.2-2.4,2.5-3.5,3.1c-1,0.7-1.7,0.6-0.7-1.1l0.6-0.3c-0.7-1.4-2.5,0.4-4,2.9c-1.6,2.5-2.3,5.6-3.2,5.3
									c-0.5,2.3-0.7,4.6-0.7,6.8c0,2.2,0.2,4.2,0.4,6.1c0.4,3.7,0.5,6.8-0.1,9.5c-0.3,1.4-0.8,2.7-1.3,3.9c-0.3,0.6-0.6,1.3-1,1.9
									c-0.4,0.6-0.7,1.2-1.2,1.9c-1.8,2.8-3.8,5.2-5.9,7.9l2.7,0.1l-3.1,3.8c-0.6,0.4-1.2,0.5-1.4,0.2c-0.2-0.4,0.1-1.2,1.2-2.6
									c-0.5,0.2-1,0.6-1.4,1.2c-0.4,0.5-0.7,1.3-0.9,2c-0.1,0.4-0.2,0.7-0.3,1c-0.1,0.3-0.1,0.7-0.1,0.9c0,0.6,0,0.9,0.1,1
									c-0.6,0.7-1.1,1.3-1.4,1.7c-0.3,0.4-0.6,0.5-0.7,0.5c-0.3,0-0.3-0.7-0.2-1.5c0.3-1.6,1.2-3.7,0.4-2.6c0,0-0.4,0.8-0.8,1.5
									c-0.4,0.8-0.8,1.6-0.8,1.6l0.6-0.6c-0.3,1.5-0.2,2.3-0.3,3.4c0,0.5-0.1,1.1-0.3,1.9c-0.2,0.7-0.4,1.6-0.8,2.8
									c-0.3,0.7-0.6,1.1-0.8,1.4c-0.2,0.3-0.4,0.4-0.5,0.4c-0.3,0.1-0.5,0-0.7,0.5c-0.2,0-0.3,0.3-0.4,1.8c0,0-0.1,0.4-0.2,1
									c-0.1,0.6-0.2,1.5-0.4,2.3c-0.2,0.8-0.2,1.7-0.3,2.3c-0.1,0.6-0.1,1-0.1,1s0.5-0.6,1-1.2c0.2-0.3,0.5-0.6,0.7-0.8
									c0.2-0.2,0.3-0.4,0.3-0.4c0.6,3-0.6,6,1.6,3.2c-1.8,2-2.2,8-2.1,13.7c0.1,2.8,0.2,5.6,0.3,7.8c0.2,2.4,0.2,4.2,0.1,4.9
									c0.5,1,0.8,2,1.2,3c0.4,1,0.7,2,1,3c0.6,2.1,1.2,4.2,2,6.6c-0.1-1.3,1.5-2.6,2.7,1.4c-2.1,0-1.9,2-1,4.5
									c0.8,2.5,2.3,5.4,2,7.7c0-0.9,0.4-0.7,1.1,0c0.3,0.4,0.7,0.8,1.1,1.4c0.4,0.5,0.9,1.1,1.3,1.6c0.9,1.1,1.8,2.1,2.5,2.5
									c0.6,0.4,1,0.2,0.8-1.2c1.9,3-1.1,1.1-0.1,3.8c3.3,2.8,6.3,6.4,9.6,10c1.7,1.8,3.5,3.6,5.4,5.3c1,0.9,1.7,1.5,3.4,2.8
									c1.5,1.1,3.1,2.2,4.7,3.2c0.2-0.2-0.2-0.9-0.3-1.3c-0.1-0.5,0.2-0.8,1.5-0.4c0,0,0.3,0.4,0.8,1c0.5,0.6,1.3,1.5,2,2.3
									c0.8,0.9,1.6,1.7,2.3,2.4c0.6,0.7,1.1,1.1,1.1,1.1c1.2,0.5,1.7-0.1,2.3-0.4c0.7-0.2,1.5-0.1,4,2.2c-0.8-0.9-2-2.2-0.6-1.7
									c1,0.6,2,1.3,3.1,1.9l1.6,0.9l0.8,0.4c0.1,0.1,0.3,0.2,0.4,0.2l0.1-0.1l0.4-0.4c0.1-0.1,0.2-0.3,0.5-0.3l0.9-0.2l0.4-0.1
									c0.1,0,0.4,0,0.6,0c-0.3-2.1-0.7-4.4-1-6.4l-0.5-3.2c-0.1-1-0.2-1.9-0.3-2.9c-0.1-0.9-0.3-1.9-0.3-2.8l0.2-2.3
									c0.1-0.8,0.1-1.6,0.2-2.3c0.1-0.7,0.3-1.4,0.4-2.1c0.8-3.7,1.9-7.4,3.4-11c3-7.3,7.2-14.2,13.1-19.7
									c-2.2,1.6-1.4,0.1-0.4-1.6c-0.9,1-1.1-0.7-1.8-0.9c0,0,1.5-1.4,3-2.8c1.5-1.4,3.1-2.8,3.1-2.8c-0.8-2.4,4.9-7.1,3.9-8.9
									l-1.3,2.3c0.1-2-1.6-1.8-3.6-1.3c-2,0.5-4.3,1.3-5.3,0.3c-0.1,2.3-2.3,3.9-4.6,5.9c-2.3,2-4.6,4.4-4.7,8.2
									c-1.2,0.9-0.2-1.5-1.1-1.2c0.2,2.1-0.6,3.9-2.9,6.9l-0.1-0.5c-2.4,4.7-4.2,8-6.1,11.5c-0.5,0.9-0.9,1.8-1.4,2.7
									c-0.5,0.9-1,1.9-1.5,3c-0.5,1.1-1,2.2-1.5,3.4c-0.2,0.6-0.5,1.3-0.7,2c-0.1,0.3-0.3,0.7-0.4,1c-0.1,0.2-0.1,0.4-0.2,0.6
									l-0.1,0.3l-0.1,0.1c0,0,0.4,0.1,0.8-0.1c0.4-0.1,0.8-0.3,0.8-0.3c-0.2,0.7-0.3,0.9-0.5,1.1c-0.1,0.2-0.2,0.3-0.4,0.4
									c-0.2,0.2-0.4,0.3-0.7,0.5c0.4,0.6,0.7,0.8,0.9,0.6c0.2-0.2,0.3-0.7,0.4-1.1c0.1-0.2,0.1-0.5,0.2-0.7
									c0.1-0.2,0.1-0.3,0.2-0.5c0.1-0.2,0.1-0.3,0.2-0.4c0.3-0.5,0.7-0.5,1.1,0.3c-0.3,0.2-0.6,0.5-0.8,0.8
									c-0.2,0.2-0.4,0.4-0.6,0.7c-0.3,0.5-0.5,1-0.7,1.7c-0.3,1.2-0.4,2.8-0.4,4c0,0.7,0,1.3-0.1,1.4c-0.1,0.1-0.2,0-0.3-0.2
									c-0.4-0.4-0.7-1-1.1-1.5c-0.7-0.3-0.3,0.4,0.1,1.1c0.4,0.7,0.9,1.5,0,1c0,0-0.3-0.4-0.5-0.8c-0.2-0.4-0.5-0.8-0.5-0.8
									s0.1,0.4,0.1,0.8c0,0.4,0.1,0.8,0.1,0.8c-0.7-0.5-1.2-1.2-1.6-1.9c-0.4-0.7-0.6-1.4-0.7-1.9c0.2,0.2,0.5,0,0.7,0.1
									c-0.7-1-1.2-1.3-1.8-1.4c-0.6-0.1-1.2-0.3-1.3-0.5c0,0,0.2,0.3,0.5,0.7c0.3,0.3,0.6,0.7,0.6,0.7c-0.4-0.2-0.9-0.4-1.4-0.7
									c-0.2-0.2-0.5-0.3-0.7-0.5c-0.1-0.1-0.2-0.2-0.4-0.3l-0.6-0.5c-2.1-1.6-4.2-3.3-6.1-5.1c-4-3.5-7.6-7.3-11.1-10.4l-0.1,1
									c-1.3-1.2-2.1-2.2-2.7-3c-0.6-0.8-0.9-1.5-1.1-2.2c-0.3-0.7-0.6-1.4-1-2.4c-0.4-1-1.1-2.2-2.1-3.8l0.3,0.2
									c-0.6-0.5-1.3-1.3-1.8-2.1c-0.5-0.8-1-1.8-1.3-2.8c0.7,0.8,0.7-0.2,0.8-1.1c0.1-0.9,0.2-1.7,1.1-0.7
									c-1.8-3.3-2.2-4.2-2.7-4.6c-0.3-0.3-0.5-0.4-1-0.8c-0.4-0.4-1.1-1-1.8-2.2l0.9-1.3c-0.6-0.8-1.1-1.2-1.4-1.9
									c-0.3-0.7-0.7-1.7-0.9-3.8c1.1,3.3,1.6-2.7,3,1c1.1-4.3,0.4-7.5-0.1-10.1c-0.2-1.3-0.4-2.4-0.4-3.5c0.1-1.1,0.5-2,1.4-2.9
									c-1.5-2-2-0.2-2.2,1.8c-0.2,2,0,4.3-0.3,3.2c-0.5,0.9-1.1,0.1-1.5-1.3c-0.4-1.4-0.6-3.4-0.4-4.7c0.1-1.4,1.2-2.5,2.3-4
									c0.3-0.4,0.5-0.8,0.8-1.3c0.3-0.5,0.6-0.9,0.8-1.5c0.3-0.5,0.5-1.1,0.7-1.7c0.2-0.6,0.4-1.3,0.6-2c-0.1,0.6,0.1,0.7-0.1,1.3
									c0.3-0.5,0.5-1.1,0.5-1.6c0.1-0.6,0.1-1.1,0.2-1.7c0.1-0.6,0.1-1.2,0.3-1.7c0.2-0.5,0.6-1,1.1-1.5c-0.5-1-0.1-1.8,0.2-2.4
									c0.4-0.6,0.6-1.2-0.3-2.1c0,0-0.2,0.3-0.4,0.8c-0.1,0.2-0.3,0.5-0.4,0.8c-0.1,0.3-0.2,0.6-0.4,0.9c-0.3,0.6-0.5,1.3-0.6,1.8
									c-0.1,0.5-0.2,0.8-0.2,0.8c0.2-0.8,0.1-1.6,0.2-2.4c0-0.4,0.1-0.9,0.1-1.3c0.1-0.5,0.2-0.9,0.3-1.4c0.5-1.9,1.6-4,4-6
									c0,0.3-0.1,1-0.3,1.6c-0.2,0.7-0.4,1.4-0.7,2c1.6-0.9,1.7-2.9,3.4-4c0.4,0.5,0.3,1.1-0.1,1.9c-0.4,0.8-1,1.7-1.7,2.6
									c-0.7,0.9-1.3,1.9-1.9,2.8c-0.4,0.9-0.8,1.9-0.7,2.8c0.7-0.4,1.1-1.8,1.6-2.9c0.5-1.1,0.9-1.8,1.5-0.3c-0.6-2,0.6-3.3,2-4.8
									c0.7-0.7,1.5-1.6,2.1-2.5c0.6-1,1.1-2.2,1.3-3.6l1,1.1c0.3-0.8,0.6-2.6,1.4-3.9c0,0,0,0.8,0.1,1.6c0,0.8,0.1,1.7,0.1,1.7
									c0.2-1.1,0.7-2.1,1.3-2.9c0.3-0.4,0.6-1,1-1.4c0.4-0.5,0.7-0.9,1-1.4c1.4-1.9,2.8-4.1,2.9-6.7c-0.6,2.6-1.2,3.9-1.7,4.5
									c-0.4,0.6-0.7,0.6-0.9,0.5c-0.5-0.4-0.8-1.4-2,0.2c0.7-2.8,1.2-4.6,1.7-5.9c0.5-1.3,1.2-2.1,1.8-3c0.3-0.4,0.7-0.9,0.9-1.5
									c0.3-0.6,0.6-1.2,0.8-2c0.4-1.6,0.5-3.9,0-6.7c0.4,1.5-0.3,6.3-1.2,3.7c0.1-1.2,0.1-2.5,0.3-3.7c0.1-1.2,0.3-2.1,0.6-2.8
									c-0.1-0.4-0.1-0.7-0.2-1c-0.1-0.3-0.1-0.5-0.1-0.7c-0.1-0.4-0.2-0.6-0.3-0.7c-0.2-0.2-0.4,0-0.6,0.3
									c-0.4,0.7-0.8,1.9-1.3,0.6c0.8-1.1,0.6-1.7,0.1-2.5c-0.4-0.7-1.2-1.5-1.3-2.7l1.4,0.2c0.2-0.7,0.4-1.1,0.5-1.5
									c0.1-0.4,0.1-0.7,0.1-1c0-0.5-0.3-0.8-0.6-1.1c-0.5-0.6-1.2-1.2,0.9-3.5c0,0,0.1,0.8,0.2,1.6c0.2,0.8,0.3,1.5,0.3,1.5
									s0.1-0.2,0.1-0.4c0.1-0.2,0.2-0.6,0.3-0.9c0.1-0.3,0.3-0.7,0.4-0.9c0.1-0.3,0.2-0.4,0.2-0.4s0.2,0.4,0.5,0.7
									c0.2,0.4,0.5,0.7,0.5,0.7c0.4-1.6,0.9-2.6,1.6-3.4c0.4-0.4,0.8-0.8,1.3-1.2c0.6-0.4,1.2-0.9,1.9-1.4
									c-1.4-0.1-1.3-2.3,1.2-4.9c2.4-1.3,0,2,3.5-2c-0.1,1.5-0.2,3.3-2.9,4c0.2,0.5-0.2,1.5-0.1,2c2.7-1.3,5.1-5,6.4-6.5
									c-0.5,0.5-1.2,1.2-1.7,1.4c0,0,1-1.8,1.8-3.6c0.9-1.8,1.7-3.6,1.7-3.6c1.2-0.6,0.9,0.4,0.7,1.4c0.9-1.3,1-2.6,2.2-4.5
									c0.6,1.2,1.7,1.8,0.1,4.7c0,0,0.9-1.7,1.7-3.4c0.8-1.7,1.6-3.4,1.6-3.4c0.7-0.1,3.3-2.2,3.1-1.2c1.4-1.4,2.3-3.7,3.2-6
									c0.5-1.1,1-2.3,1.5-3.2c0.6-1,1.3-1.8,2.1-2.4c0-0.3,0.1-0.7,0.5-1.4c0.6-0.5,1.2-0.7,1.7-0.8c0.4-0.1,0.8,0,1.1,0
									c0.1,0,0.2,0,0.3,0c0,0,0.1,0,0.1,0l0.4,0c0.9-0.1,1.7-0.2,2.6-0.4c0.9-0.2,1.7-0.5,2.6-0.9c0.8-0.4,1.6-0.8,2.5-1.3
									c0,0,0.3,0,0.7,0.1c0.4,0,1,0.1,1.6,0.1c0.6,0,1.2,0.1,1.6,0.1c0.4,0,0.7,0,0.7,0c1.2-0.7,1.4-1.1,1.1-1.3
									c-0.2-0.2-0.9-0.3-1.4-0.4c-0.5-0.1-1-0.3-0.8-0.7c0.1-0.2,0.3-0.5,0.7-0.9c0.4-0.4,1-0.8,1.8-1.4c2.2-1.7,2.8-1.5,3.2-1
									c0.4,0.5,0.4,1.3,1.4,1.1c0.8-1.1,1.9-2.6,3.2-3.8c1.4-1.2,3.2-2.1,5.2-1.7C270,32.6,269,32.6,268,33.2z M319.6,22.4
									c-0.6,0.2-1.5,0.6-2.4,0.8c-0.4,0.1-1,0.1-1.3,0.1c-0.3,0-0.5-0.1-0.6-0.3c0.2-0.4,0.5-0.7,0.7-0.9c0.3-0.2,0.7-0.2,1-0.2
									C317.7,22,318.5,22.3,319.6,22.4z M397,32.7c-0.4,0-0.7-0.3-1-0.6c-0.3-0.3-0.6-0.8-1-1.3C395.9,31.2,396.6,31.8,397,32.7z
									 M350.6,100.1c0,0,0.1,0,0.1-0.1C353.2,100.5,352.3,100.3,350.6,100.1z M345.4,99.6c-0.5,0.2-0.5,0.4-0.3,0.6
									c0.4-0.4,1.5-0.4,2.8-0.3C347.6,99.6,346.9,99.3,345.4,99.6z M176,142.8l0.6-1C176.5,144.3,176.2,143.5,176,142.8z"/>
								<path id="XMLID_239_" class="st24" d="M389.4,30.7c-0.2-0.3-0.2-0.6-0.1-0.9C388.8,30,388.7,30.2,389.4,30.7z"/>
								<path id="XMLID_238_" class="st24" d="M240.4,46.5C240.3,46.6,240.3,46.6,240.4,46.5c-0.1,0.2,0,0.3,0,0.3L240.4,46.5z"/>
								<path id="XMLID_237_" class="st24" d="M423.3,88.4c0.5,1.1,0.6,1.8,0.6,2.3C424.3,90.6,424.2,89.9,423.3,88.4z"/>
								<path id="XMLID_236_" class="st24" d="M317.8,100.4c0,0,0.2,0,0.5,0c0.3,0,0.7,0,1.2,0c0.8,0,1.7,0,1.7,0
									c-1.6-0.1-2.2-0.4-2.9-0.8C318.3,100,318.9,100.6,317.8,100.4z"/>
								<path id="XMLID_235_" class="st24" d="M292.2,85.4c-0.5,0.1-1-0.2-1.5-0.1l0,0.7C292.7,86.4,294.2,86.1,292.2,85.4z"/>
								<path id="XMLID_234_" class="st24" d="M315.5,95.1c-0.1-1.2-2.1-1.2-4.4-1.4c0.1,0,0.3,0,0.4,0.1
									C310.5,95.4,313,95.3,315.5,95.1z"/>
								<path id="XMLID_233_" class="st24" d="M310.6,93.7c-0.7-0.1-1.4-0.3-2.1-0.5C308.1,93.9,309.3,93.6,310.6,93.7z"/>
								<path id="XMLID_232_" class="st24" d="M338.9,100.5c-1.1-0.3-0.7,1.6-1.3,1C336.3,103.1,344.9,99.6,338.9,100.5z"/>
								<polygon id="XMLID_231_" class="st24" points="314.4,90.9 314.9,92.5 316.4,91.5 								"/>
								<path id="XMLID_230_" class="st24" d="M331.8,94.1c0,0-0.9-0.1-1.8-0.3c-0.9-0.1-1.8-0.3-1.8-0.3c0,0.3-0.4,0.4-1,0.4
									c0.5,0.1,1.1,0.2,1.6,0.2c0.5,0.1,1,0.1,1.5,0.2C331.2,94.3,331.8,94.3,331.8,94.1z"/>
								<path id="XMLID_229_" class="st24" d="M327.3,93.8c-1.1-0.1-2.2-0.2-2.9-0.1C325,93.8,326.3,93.9,327.3,93.8z"/>
								<path id="XMLID_228_" class="st24" d="M319.3,91.3c0,0,0.2,0.1,0.5,0.2c0.2,0.1,0.5,0.2,0.5,0.2l2.5,0.4
									c0,0-0.9-0.2-1.7-0.4C320.1,91.5,319.3,91.3,319.3,91.3z"/>
								<path id="XMLID_227_" class="st24" d="M370.2,92.9c0,0,1-0.2,1.9-0.4c1-0.2,1.9-0.5,1.9-0.5c0.3-0.6-0.8-0.7-2.2-0.3
									C371,92.1,369.6,92.5,370.2,92.9z"/>
								<path id="XMLID_226_" class="st24" d="M358.2,90c1.1,0.2,1.2,0.6,1.8,1l0-1.9L358.2,90z"/>
								<path id="XMLID_225_" class="st24" d="M369.2,88.4c0.3-0.6,5.3-2.1,0.5-1.4C369.5,87.5,365.7,88.4,369.2,88.4z"/>
								<path id="XMLID_224_" class="st24" d="M422.2,96.5c0,0-0.1-0.2-0.2-0.4c-0.1-0.2-0.2-0.4-0.2-0.4l-2.6,1.5
									c0,0,0.8-0.2,1.6-0.3C421.4,96.7,422.2,96.5,422.2,96.5z"/>
								<path id="XMLID_223_" class="st24" d="M442.8,115.6c-0.6,0.4-0.3,0.7,0.1,1.1c0.2,0.2,0.3,0.4,0.3,0.6
									c0,0.2-0.2,0.3-0.7,0.4c0.1,0.4,0.5,0.4,0.9,0.3c0.4-0.1,0.8-0.3,0.9,0.1c0.1-0.8,0.2-1.3,0-1.7
									C444.3,116.1,443.9,116,442.8,115.6z"/>
								<path id="XMLID_222_" class="st24" d="M444.4,118.1c0,0.3-0.1,0.5-0.2,0.9C444.4,118.5,444.4,118.3,444.4,118.1z"/>
								<polygon id="XMLID_221_" class="st24" points="259.1,176.4 261.3,174.4 259.4,175.3 								"/>
								<path id="XMLID_220_" class="st24" d="M260.6,170.6l1.9,0.7c0,0-0.1-0.6-0.2-1.2c0-0.3-0.1-0.6-0.1-0.8
									c0-0.2-0.1-0.4-0.1-0.4C261.9,169.4,261.2,170.5,260.6,170.6z"/>
								<path id="XMLID_219_" class="st24" d="M329.1,25l0.1-0.5c-0.6-0.4-1.3-0.3-2.8-0.1L329.1,25z"/>
								<polygon id="XMLID_218_" class="st24" points="290,31.2 290.8,31 289,29.7 								"/>
								<path id="XMLID_217_" class="st24" d="M261.6,40.9c0.3-0.2,0.7-0.4,1-0.6c0.3-0.2,0.6-0.4,0.9-0.6c0.3-0.2,0.6-0.4,0.9-0.6
									c0.3-0.2,0.5-0.4,0.8-0.5c-0.5,0.4-1.1,0.6-1.7,0.8c-0.6,0.2-1.1,0.3-1.5,0.3C261.2,39.9,260.9,40.1,261.6,40.9z"/>
							</g>
						</g>
					</g>
				</g>
			</g>
			<path id="XMLID_71_" d="M288.5,181c0,0,23.1-12,37.3-4C325.8,177,304,192,288.5,181z"/>
			<path id="XMLID_72_" d="M365.7,174.3c0,0,22.3-5.3,42.3-14.3c0,0-27.3,16.3-21.2,19.6c6.2,3.4,4.2,14.1,4.2,14.1
				S376.4,195.5,365.7,174.3z"/>
			<path id="XMLID_73_" d="M395,179.6c0,0,20,0.4,30,5.4c10,5-24,8.7-24,8.7S392.8,192.2,395,179.6z"/>
			<path id="XMLID_74_" class="st25" d="M315.8,199.2c0,0-33.8,10.9-27.3,42.8c0,0-27.1,64.8-23.3,73.9c3.8,9.1,17.8,41,33.8,52.6
				c0,0-31-56.7-10.5-88.5c8.5-13.2,4.6-19.9,4.6-19.9S288,261,302,235S317.7,210.4,315.8,199.2z"/>
			<path id="XMLID_65_" class="st25" d="M323.9,352c0,0,16.4,5,41.7-13.5s28.9-33.5,28.9-33.5s-19.9-67-7.8-70c0,0,2.2-6.2-4.8-9.1
				c-7-2.9,4.7-13.9,4.8-18.9s4.4,4,7.8,15c3.4,11-4.4,39.4,0,48.2C399,279,401,302,408,313c0,0-33.4,54.3-74,52.4
				C293.4,363.6,301.7,339.7,323.9,352z"/>
			<path id="XMLID_75_" class="st26" d="M301,275c0,0-41.2,18.3,4.4,48.7s86.3-18.6,81.5-31.6s-2.6-56.9-28.7-43.5
				c0,0-40.5,3.8-52.8,4.7C293.1,254.1,301,275,301,275z"/>
			<path id="XMLID_67_" d="M316.5,235c0,0,9.9-11.4,28.5,0c0,0,11.4-7.1,20.7-2.5c0,0-10,3.2-16.7,5.9c0,0-22.7-8.7-26,0
				C319.7,247,311.9,238.2,316.5,235z"/>
			<path id="XMLID_68_" class="st27" d="M316.5,222.3c0,0,7.3-21,23.9-28.5C340.4,193.8,324.8,191.6,316.5,222.3z"/>
			<path id="XMLID_76_" class="st27" d="M360.3,199.2c0,0,11.2,10.1,13.3,30.7C373.7,229.9,380.3,204.6,360.3,199.2z"/>
			<path id="XMLID_77_" class="st27" d="M328.4,211.7c0,0,7.9,2.5,15.9,18.3c0,0,9.5-6.9,12.4-2.9c0,0-6.7-16.1,0-21.4
				C356.7,205.6,327.2,200.3,328.4,211.7z"/>
			<path id="XMLID_78_" class="st28" d="M215.2,301.4c0,0,6,74,52.7,116.7s119.3-6.7,119.3-6.7s-78.7,32.7-104.7,0
				C282.6,411.4,251.2,379.4,215.2,301.4z"/>
			<path id="XMLID_66_" class="st28" d="M229.7,295c0,7.3,31.6,98.7,86.8,108s87.2-25.3,87.2-25.3s-63.2,36-102.4,10.7
				S229.7,295,229.7,295z"/>
			<path id="XMLID_81_" class="st29" d="M342.5,141.7c0,0,8.1,18.4,27.8,24.7C370.3,166.3,355.4,149,342.5,141.7z"/>
			<path id="XMLID_82_" class="st29" d="M378.3,157c0,0,15.3-26,20.7-28.7c0,0-8.7,9.3-4.4,13.3c0,0,17-2.7,25.7,0
				C420.3,141.7,386.3,147.7,378.3,157z"/>
			<path id="XMLID_83_" class="st29" d="M295,142.7c0,0,19.3,20.3,36,23.7C331,166.3,313,145,295,142.7z"/>
			<path id="XMLID_84_" class="st29" d="M322.3,114.3c0,0,32,13.3,59.3,2.7C381.7,117,348.3,137.7,322.3,114.3z"/>
			<path id="XMLID_79_" class="st30" d="M247,204.4c0,0,0,16.1,2.7,37.7c2.7,21.6-10.7,48.3-2.7,65.6c8,17.3,12.7,14.7,12.7,14.7
				s-1.7-41.2,14-70s-8.8-75.4-8.8-75.4S267.7,227.7,247,204.4z"/>
			<path id="XMLID_85_" class="st17" d="M413.2,210.8c2.9,0.5,6.3,0.8,9.7,0.3c5.9-0.7,11,4.2,10.8,10.1c-0.5,11.1,0,25.9,4,37.7
				c6.5,18.8-6.8,37.4-10.1,41.6c-0.4,0.5-0.8,1-1,1.6c-1.4,2.8-7.2,10.4-10.7-45.6c-0.1-1.9-0.8-3.8-2-5.3
				c-3.6-4.8-11.6-16.8-12.1-30.7C401.6,214.5,407.1,209.8,413.2,210.8z"/>
			<path id="XMLID_86_" class="st31" d="M316.7,372.3c0,0,48.2,12,87-32.7c0,0,12.7-3.7,12.7,10.1c0,0-48.9,53.4-99.7,35.9
				C316.7,385.7,302.3,375.7,316.7,372.3z"/>
			<path id="XMLID_87_" class="st19" d="M192.3,174.3c0,0-5.3-14.6,2.7-20.3s7.2-22.3,9.9-25.7c2.7-3.3,12.1-14.7,14.7-19.3
				c2.7-4.7,4-22,0-22.7c-4-0.7,0-15.4,14.7-13.4C249,75,243,55,251,55.7c8,0.7,20-8,22.7-9.3c2.7-1.3,9.7-7.3,14.8-5.3
				c5.2,2,19.8-10,24.5-4.7s9.3,14.7,9.3,14.7s-12.7-8.7-27.3-3.3s-27.3,4-27.3,12s-11.7,1.9-11.2,13.3s-26.8,3.4-26.8,3.4
				s-4.7,8.7,0,15.3c4.7,6.7,0,21.3-5.3,25.3c-5.3,4-7.5,6-9.1,11.3c-1.6,5.3-4.9,2.7-6.2,14.3c-1.3,11.7-8.7,11.7-10.7,17.3
				s-5.3,20.4-1.3,25C201,189.7,192.3,174.3,192.3,174.3z"/>
			<path id="XMLID_88_" class="st19" d="M215.2,189.7c0,0-3.6-30.7,3.1-29.7c6.7,1,12.7-21.7,11.3-23.7c-1.3-2,0-10.4,7.3-10.9
				c7.3-0.4,8.2-25.1,7.4-27.8c-0.7-2.7,7.9,24,2.6,30.7c-5.3,6.7-10.7,6-12,13.3c-1.3,7.3-2,10-5.3,18.3c-3.3,8.3-10.7,2.3-10,10.3
				C220.3,178.3,215.2,189.7,215.2,189.7z"/>
			<path id="XMLID_80_" class="st19" d="M365.7,41.7c0,0,13-1.3,21.2,0c8.2,1.3,9.1,10.7,15,14.7s5.3,11.3,8.9,12
				c3.6,0.7-17.9-18.7-23.5-8s-9.6-14.7-5.6-14.7S365.7,41.7,365.7,41.7z"/>
			<path id="XMLID_90_" class="st32" d="M301.2,68.4c0,0,2.4-2.7,11.8-10c0,0,4.3,4.7,12.8,0s9.7-8,9.8-11.3s5.4,0.7,12.1,0
				c6.7-0.7,8,9.4,12.7,7.7c4.7-1.7,2,10.3,10,9c8-1.3,8.7,10.6,11.3,9.3c2.7-1.3-10-2.6-18.4,0.4s-13.6-7.6-22.9-5
				c-9.4,2.6-11.4-8.6-20,0C311.7,77,310.8,68.4,301.2,68.4z"/>
			<path id="XMLID_91_" class="st33" d="M214.3,208.1c0,0-11.4-11-9.3-21.3c2.1-10.4,0-23,0-23s7.2,33.7,13,35.5s11.8-25,11.8-25
				s12.2-12.3,14.7-19.8c0,0-4.1,17.7-6.7,19.8C235,176.3,213.8,220.4,214.3,208.1z"/>
			<path id="XMLID_92_" class="st13" d="M278.9,171c0,0-3.5-14.7,5-17C292.3,151.7,286.9,173.7,278.9,171z"/>
			<path id="XMLID_93_" class="st34" d="M283.9,119.9c0,0,11.2-12.9,21.5-2.9C315.7,127,276.8,129.4,283.9,119.9z"/>
			<path id="XMLID_94_" class="st31" d="M416.3,162.5c0,0,11.3-7.1,20.7,0C446.3,169.6,405,169.6,416.3,162.5z"/>
		</g>
		<path id="XMLID_101_" class="st35" d="M305.7,254c0,0-5.9,11.9,7.2,31.5l16-32.7L305.7,254z"/>
		<path id="XMLID_102_" class="st35" d="M297.6,312c0,0-2.9-22,14-27.4l5.3,39.1C316.9,323.7,297.5,320.5,297.6,312z"/>
		<path id="XMLID_104_" class="st35" d="M366.3,249.7c0,0,8.2,10.5-0.9,32.3l-22.1-28.9L366.3,249.7z"/>
		<path id="XMLID_103_" class="st35" d="M377,308.7c0,0,2.2-22.1-14.9-26.9l-4,39.3C358,321.1,377.4,317.2,377,308.7z"/>
		<path id="XMLID_105_" class="st35" d="M325.8,328.3c0,0,0.2-10.8,5.2-11.3l4.6,12C335.6,329,332.1,331.1,325.8,328.3z"/>
		<path id="XMLID_106_" class="st35" d="M319,321.1c0,0-3.7-21.1,9.4-22.6c0,0,2,11.5,2.3,15S319,321.1,319,321.1z"/>
		<path id="XMLID_107_" class="st35" d="M340.4,326c0,0,6.6-19.2,6.6-21.8c0-2.7,0,2.7,0,2.7s7,12.6,7,15.6
			C354,325.5,344.2,328.5,340.4,326z"/>
		<path id="XMLID_108_" class="st35" d="M325.8,265.9c0,0,5.3,12.1,9.8,14.1c0,0-1.9-21.2,0-21.1S324.3,262.7,325.8,265.9z"/>
		<path id="XMLID_110_" class="st35" d="M343.2,262.5c0,0,1.2,15,0,17.5s9.3-2.1,10.8-6.5S343.2,262.5,343.2,262.5z"/>
	</g>
	<g id="ACTIVENORRISTHING" class="st36">
	</g>
</g>
<g id="ACTIVEPALMER">
	
		<image style="display:none;overflow:visible;" width="376" height="348" id="XMLID_111_" xlink:href="palmerthing.jpg"  transform="matrix(1.0984 0 0 1.0984 450 177.7553)">
	</image>
	<g id="XMLID_121_">
		<path id="XMLID_435_" d="M529.7,474.3c0,0-22.7-32.2-15.3-72.1c0,0,22-53.3,15.3-85.3c-6.7-32,6.7-69.3,20.7-76s72.3-44,80.5-56.7
			c0,0,88.2-18.7,116.8,7.3c0,0,33.3-2.7,42,16.7c0,0,42,45.3,50,66.7c0,0,16,95.7,5.3,150.2s-47.3,77.8-70.7,49.2
			C751,445.7,529.7,474.3,529.7,474.3z"/>
		<g id="XMLID_341_">
			<g id="XMLID_345_">
				<g id="XMLID_346_">
					<g id="XMLID_347_">
						<path id="XMLID_434_" class="st24" d="M531.6,479c-1.6,0.1-0.9,0.9-1.1,1.1C533.1,479.5,531.5,478.8,531.6,479z"/>
						<polygon id="XMLID_433_" class="st24" points="558,474 557.6,474.4 561.4,473.1 						"/>
						<path id="XMLID_432_" class="st24" d="M583,471.4c-2.5-1.2-9,1.1-13.6,1.1l-0.8-0.2l-1.9,1.4
							C572.2,472.9,579.2,471.4,583,471.4z"/>
						<path id="XMLID_431_" class="st24" d="M596.7,473.2c-0.9-0.5,2.8-0.7-3.1,0.1c0.3,0,0.4,0.1,0.6,0.1
							C594.6,473.4,595.4,473.3,596.7,473.2z"/>
						<path id="XMLID_430_" class="st24" d="M594.1,473.4C591.5,473.7,595.9,473.8,594.1,473.4L594.1,473.4z"/>
						<path id="XMLID_429_" class="st24" d="M606.2,472.1l-3.4,0.8c0.8,0.3,3.8,0.1,2.7,0.4C609.1,472.7,608.3,472.4,606.2,472.1z"
							/>
						<path id="XMLID_428_" class="st24" d="M609.4,470.7l-1.8,0.4C608,471.2,608.5,471.2,609.4,470.7z"/>
						<path id="XMLID_427_" class="st24" d="M603.9,471.9l3.8-0.8c-0.5-0.2-0.6-0.6-1.7,0.3C606.2,471,605.5,471.4,603.9,471.9z"/>
						<path id="XMLID_426_" class="st24" d="M601.7,471.8c-2-0.1-4.5-0.1-1.1-0.9C594,471.7,595.1,472.6,601.7,471.8z"/>
						<path id="XMLID_425_" class="st24" d="M584.2,469.8l-2.6-0.2l-2.2,0.7C580.4,470,584.4,470.3,584.2,469.8z"/>
						<path id="XMLID_424_" class="st24" d="M627.9,471.1c0.2-0.3-1.2-0.7-1.5-1.1l-2.5,0.5C625.2,470.6,627.7,470.6,627.9,471.1z"
							/>
						<path id="XMLID_423_" class="st24" d="M626.4,470l3.8-0.8C626.8,469.4,626.2,469.7,626.4,470z"/>
						<polygon id="XMLID_422_" class="st24" points="609.9,469.1 603.7,470.7 611.2,469 						"/>
						<polygon id="XMLID_421_" class="st24" points="642.6,470.1 640.4,471 644.2,469.7 						"/>
						<path id="XMLID_420_" class="st24" d="M652.3,469.4c-1.6,0.7,2.3,0.9,0.6,1.3c2.6-0.3,4.9-0.9,6.9-1.4
							C657.6,469.7,655.3,469.7,652.3,469.4z"/>
						<path id="XMLID_419_" class="st24" d="M663.1,468.5c-1.1,0.2-2.2,0.5-3.4,0.8C660.9,469.2,662,468.9,663.1,468.5z"/>
						<path id="XMLID_418_" class="st24" d="M636.8,468.9c0.3,0.2,0.9,0.6,3.1,0.7l-1.6-0.8C637.8,468.8,637.3,468.9,636.8,468.9z"
							/>
						<path id="XMLID_417_" class="st24" d="M638.2,468.8L638.2,468.8c1.7-0.1,2.8-0.1,3.3-0.1C641.1,468.7,640.1,468.7,638.2,468.8
							z"/>
						<path id="XMLID_416_" class="st24" d="M636.4,468.9c0.1,0,0.2,0,0.4,0C636.6,468.8,636.5,468.8,636.4,468.9z"/>
						<path id="XMLID_415_" class="st24" d="M620.1,469.1c2.2-0.7,6.9-1.5,2.3-1.9C620.8,467.9,623.4,468.1,620.1,469.1z"/>
						<path id="XMLID_414_" class="st24" d="M634.4,468l-4.1,0.1c0.1,0.2,0.9,0.5-0.2,0.8L634.4,468z"/>
						<polygon id="XMLID_413_" class="st24" points="636.4,467.6 634.4,468 635.9,467.9 						"/>
						<path id="XMLID_412_" class="st24" d="M656.1,468.1c1.7-0.5,3.7-0.6,5.8-0.7c-2.3-0.1-4.8,0-7.1,0.1
							C654.6,467.7,653.6,468.2,656.1,468.1z"/>
						<path id="XMLID_411_" class="st24" d="M647.4,468.3c0.1,0,0.3-0.1,0.4-0.1C647.5,468.2,647.3,468.2,647.4,468.3z"/>
						<path id="XMLID_410_" class="st24" d="M683.3,466.6c-0.1-0.1-0.2-0.1-0.3-0.1c0,0,0,0.1-0.1,0.1L683.3,466.6z"/>
						<path id="XMLID_409_" class="st24" d="M654.5,467.3c-1.8-0.1-2.8,0.2-3.8,0.5c1.3-0.2,2.7-0.3,4.2-0.4
							C655,467.3,655,467.2,654.5,467.3z"/>
						<path id="XMLID_408_" class="st24" d="M669,467.9c-0.9-0.1-2-0.3-3.1-0.3C666.9,467.8,668.7,468.1,669,467.9z"/>
						<path id="XMLID_407_" class="st24" d="M648.4,468.4c-0.1,0-0.2,0-0.3,0.1C648.7,468.6,648.6,468.6,648.4,468.4z"/>
						<path id="XMLID_406_" class="st24" d="M648.4,468.4c0.9-0.2,1.6-0.4,2.3-0.7c-1.1,0.1-2,0.3-2.9,0.5
							C648,468.3,648.2,468.4,648.4,468.4z"/>
						<path id="XMLID_405_" class="st24" d="M689.7,460.9c-0.3,0.8-4.9,1.6-8.9,0.9c-3.9,0.7-1.3,3.2,2.2,4.6
							c0.1-0.3,0.1-0.7,4.1-1.2c-1.4-0.4-9-0.8-5.6-1.6c5.3-0.5,4.4,0.2,7,0.5c-2.2-1,6.8-1.5,5.6-3l-4.7,0.6
							C689.4,461.5,691.1,461.1,689.7,460.9z"/>
						<path id="XMLID_404_" class="st24" d="M675.3,466.6l-1.7,0.2c1.9,0.1,3.3,0.3,5.8,0.9c2.7-0.5,3.3-0.8,3.5-1l-8.2,0.1
							L675.3,466.6z"/>
						<path id="XMLID_403_" class="st24" d="M666.2,467c1.3-0.9,5.2-1.4,2.8-2.3c-4.9,0.3-3.4,0.9-6.3,1.4
							C670.5,465.5,660.4,466.7,666.2,467c-1.6,0.1-3,0.2-4.3,0.3c1.4,0,2.8,0.1,4.1,0.2c-0.1,0-0.1,0-0.2,0l0,0l0,0
							c-0.3-0.1-0.5-0.2-0.1-0.1c0,0,0.1,0,0.2,0C665.9,467.2,666.1,467.1,666.2,467c2.3,0.1,0.4,0.2-0.3,0.3c0,0-0.1,0.1-0.1,0.1
							c0,0,0,0,0,0l7.8-0.8C672,466.6,669.9,466.7,666.2,467z"/>
						<path id="XMLID_402_" class="st24" d="M626.4,465c0.3,0.1,0.2,0.1,0.3,0.2C627.2,465,627.4,465,626.4,465z"/>
						<path id="XMLID_401_" class="st24" d="M629.7,465.3c-0.6,0.2-1,0.5-2.9,0.6c-1.6-0.1,0-0.4-0.1-0.7c-1.1,0.3-3.9,0.9-0.3,1.1
							l0.5-0.2c3.2,0.1,7.3,0.9,6.8,1C632.7,466.4,631.9,465.9,629.7,465.3z"/>
						<path id="XMLID_400_" class="st24" d="M648.2,465.8l6.5-0.8l-3.4-0.6l0.2,0.4C647.8,464.9,648.6,465.4,648.2,465.8z"/>
						<polygon id="XMLID_399_" class="st24" points="684.1,467 683.3,467.9 687,466.5 						"/>
						<polygon id="XMLID_398_" class="st24" points="692.6,466.7 692.3,467.5 694.5,467 						"/>
						<path id="XMLID_397_" class="st24" d="M740.3,192.1c0,0-0.4-0.2-0.8-0.4c-0.2-0.1-0.4-0.2-0.5-0.2c-0.2-0.1-0.3-0.1-0.3-0.1
							C739.5,191.7,739.9,191.9,740.3,192.1z"/>
						<path id="XMLID_396_" class="st24" d="M755.4,196.4l0.3-0.4C755.1,196.2,754.8,196.4,755.4,196.4z"/>
						<path id="XMLID_395_" class="st24" d="M852.1,410.3c1-2.8,2.5-5.9,1.6-5.6l-1,0.8C852.7,407.4,852.4,409,852.1,410.3z"/>
						<path id="XMLID_394_" class="st24" d="M835.7,267.3c0.1,0.3,0.1,0.6,0.2,0.8c0.6,0.5,1.1,0.9,1.6,1.3
							C836.9,268.8,836.3,268,835.7,267.3z"/>
						<path id="XMLID_393_" class="st24" d="M831.6,267.4l-1.4-3.4C830.5,264.8,830.9,265.9,831.6,267.4z"/>
						<path id="XMLID_392_" class="st24" d="M668.4,184.7l-2.1,1.1C669.8,185.4,668.2,185.1,668.4,184.7z"/>
						<path id="XMLID_391_" class="st24" d="M773.2,480.2c0.9,1.1,1.6,2,2.4,2.9c0.8,0.8,1.6,1.5,2.4,2.1
							C775.5,482.7,774.3,480.3,773.2,480.2z"/>
						<path id="XMLID_390_" class="st24" d="M748.9,186.9c-0.6-0.3-1-0.3-1-0.2C748.5,187.1,748.9,187.2,748.9,186.9z"/>
						<path id="XMLID_389_" class="st24" d="M785.1,489.3c-0.4-0.3-0.9-0.5-1.3-0.8c-1-0.4-1.9-0.9-2.9-1.4c-0.9-0.6-1.9-1.2-2.9-2
							c0.9,0.9,1.9,1.8,3.1,2.5C782.3,488.4,783.6,489.1,785.1,489.3z"/>
						<path id="XMLID_388_" class="st24" d="M528.4,376.2c-0.1,0.2-0.2,0.4-0.3,0.6C528.2,376.8,528.3,376.6,528.4,376.2z"/>
						<path id="XMLID_387_" class="st24" d="M515.7,454.6c-0.3-0.8-0.7-2-1.2-3.2C514.7,452,515,453,515.7,454.6z"/>
						<path id="XMLID_386_" class="st24" d="M726.7,467.7C724.9,467.7,726.4,467.8,726.7,467.7L726.7,467.7z"/>
						<path id="XMLID_385_" class="st24" d="M718.1,463.9c0.4-0.1,0.7-0.2,0.7-0.4C718.7,463.7,718.4,463.8,718.1,463.9z"/>
						<path id="XMLID_384_" class="st24" d="M804.8,485.4c0.1,0,0.1,0,0.2,0C804.4,485.4,804.5,485.4,804.8,485.4z"/>
						<path id="XMLID_383_" class="st24" d="M724,467.2c0.7,0.1,1.4,0.3,2.3,0.4C725.9,467.5,725.2,467.4,724,467.2z"/>
						<path id="XMLID_382_" class="st24" d="M724.3,467.6c-0.6-0.1-1.1-0.1-1.6-0.2C722.5,467.6,722.7,467.7,724.3,467.6z"/>
						<path id="XMLID_381_" class="st24" d="M729.1,467.8c-1,0-2-0.1-2.9-0.3c0.3,0.1,0.5,0.1,0.4,0.2
							C727.2,467.7,727.9,467.8,729.1,467.8z"/>
						<path id="XMLID_380_" class="st24" d="M558.2,239.8c-0.1,0-0.2,0.1-0.4,0.1C556.4,241.1,557.1,240.7,558.2,239.8z"/>
						<path id="XMLID_379_" class="st24" d="M844.3,362.7c0,0.1,0,0.1,0,0.2C844.4,362.8,844.4,362.7,844.3,362.7L844.3,362.7z"/>
						<path id="XMLID_378_" class="st24" d="M843.4,356.2c1.2,2.7,1.1,4.3,1,6.4l2.4-2.2L843.4,356.2z"/>
						<path id="XMLID_371_" class="st24" d="M710.3,183.7c0,0,1.1,0.3,2.1,0.6c1.1,0.3,2.1,0.7,2.1,0.7c-2.7,0.2-5,0.3-6.1,0.3
							c-1.1,0.1-1,0.2,0.9,1c0.4-1.3,4.7-1,8.8-0.3c4.2,0.6,8.1,1.6,8.8,0.4c0,0,0.6,0.3,1.3,0.7c0.6,0.3,1.2,0.7,1.2,0.7
							c-0.7-0.3-0.9-0.2-1.7-0.4c0.6,0.3,1.1,0.6,1.6,0.8c0.5,0.2,0.8,0.3,1.2,0.4c0.7,0.1,1.3,0,2,0c0.7,0,1.4-0.1,2.3,0.1
							c0.5,0.1,1,0.2,1.6,0.4c0.6,0.3,1.2,0.6,2,1c1.1,0.6,1.8,1.3,2.1,1.7c0.3,0.4,0.2,0.6-0.5,0.3c0,0,0.3,0.1,0.7,0.3
							c0.2,0.1,0.5,0.2,0.8,0.4c0.1,0.1,0.3,0.1,0.4,0.2c0.2,0.1,0.4,0.3,0.6,0.4c1.6,1.1,3.3,2.2,3.3,2.2c0.1,0.1,0.2,0.2,0.3,0.2
							c1.7,0,1.5,0.3-0.1,0.5c-0.2-0.1-0.5-0.3-0.8-0.6c0.3,0.2,0.5,0.4,0.8,0.6c1.1-0.1,2.2-0.2,3.3-0.2l2.3-0.1c1.3,0,2.6,0,3.9,0
							l-0.1,0.1c1.2-0.4,4-0.8,5.4-0.9c2.1,0.7-1.1,0.1-0.6,0.6c0,0,1.2,0,2.4,0c1.2,0,2.4,0.1,2.4,0.1c1.7,1.1-2.2,0.9-5.4,0.5
							c2,1.6,2.9,1.6,4.5,1.5c0.8,0,1.8,0,3,0.2c1.3,0.3,2.9,0.8,4.8,1.9c0,0-0.3-0.1-0.6-0.2c-0.4-0.1-0.9-0.2-1.4-0.3
							c-1-0.2-2.1-0.4-2.1-0.4c1.1,1.1,2.4,1.8,3.9,2.5c1.5,0.7,3.1,1.6,4.5,3.1c-0.2-0.5-1.7-2-2.9-3.2c-1.2-1.2-1.8-2.1,0.5-1.5
							c1.1,0.8,2.7,1.5,5,2.5c-0.5,0.8,1.6,1.9,3.5,4l-1.1,0.7c1,0.9,1.6,1.3,2.1,1.6c0.3,0.1,0.5,0.2,0.8,0.4
							c0.1,0.1,0.3,0.2,0.4,0.3c0,0,0.1,0.1,0.1,0.1c0.1,0.1,0.1,0.1,0.2,0.2c0.1,0.1,0.2,0.3,0.4,0.5c0.3,0.8,0.9,1.3,1.3,1.9
							c0.3,0.4,0.5,0.7,0.7,1c0.4,0.6,0.6,1.1,0.8,1.6c0.3,0.9,0.3,1.5,0.3,2.2c4.4,5.2-1.9-4.6,3.6,1.3c3.4,4.6,6.4,7.2,11.3,11.9
							c2.2,3.3-1,0-0.4,1.3l3,2c0.5,0.7,0.1,0.7-0.1,0.7c2.2,2,1.2-0.6,4.4,2.7c0.9,0,2.1,2.2,3.5,4.8c1.4,2.6,3.2,5.6,5.6,7.5
							c0.6,1.3-1-0.1-1.2,0.6c2.8,2.8,3.9,4.1,5,5.1c1.1,1.1,2.1,2,4.5,4.3c0,0,0.6,1.3,1.2,2.5c0.3,0.6,0.6,1.2,0.8,1.7
							c0.2,0.5,0.3,0.8,0.3,0.8c-0.6-2-0.1-2,1.1-1.1c0.6,0.4,1.3,1.1,2.1,1.9c0.8,0.8,1.6,1.6,2.3,2.5c-0.3-1.5-0.6-2.8-0.9-3.6
							c0,0,0.3,0.4,0.7,0.9c0.4,0.5,1,1.3,1.5,2.1c1,1.6,2.1,3.1,2.1,3.1c0.2,0.9-0.5,0.4-1.6-0.4c0.3,0.4,0.7,0.8,0.9,1
							c0.6,2.6-0.6,1.6-2,0.3c-0.2-0.9-0.4-1.8-0.5-2.7c-0.8-0.6-1.5-1.2-2.2-1.5c-0.7-0.3-1.2-0.4-1.4,0c0.2,0.2,0.4,0.4,0.7,0.7
							c0.2,0.3,0.5,0.7,0.8,1.1c-0.4-0.3-0.7-0.5-0.7-0.2c0,0.3,0.6,0.8,1.4,1.6l-0.5,2.1l0.7,0.1c0,0,0.1,0.1,0.1,0.4
							c0.1,0.2,0.2,0.6,0.3,1c0.1,0.4,0.3,0.9,0.4,1.3c0.1,0.2,0.2,0.5,0.2,0.8c0.1,0.2,0.1,0.4,0.2,0.6c0,0.5,0.1,1.9,0.1,2.7
							c0.1,0.9,0.1,1.5,0.1,1.5c2.4,6.5,5.4,12.1,7.2,22.8c-1.4-2.5-1.8-0.4-3-0.4c1-3.1-1.6-8.2-2.1-13.8c0.3,2.9-0.4,2.4-0.7,1.6
							l2.5,9.7c-1-0.1-0.5,2.2-0.6,4.8c0.9-1.1,1.4,0.7,1.9,3.3c0.4,2.6,0.8,5.9,1.3,7.9c-0.6,0.3-1.4-0.6-1.8-5.5
							c-0.9,5.6,3.1,6.8,2.3,12.3c-0.1-1.2-0.1-1.9-0.5-2.3c0.9,2.8,1,9.7,0.3,8.1l-0.1-1.2c0.3,4,0.7,10.1,1.3,15.3
							c0.6,5.2,1.3,9.6,2.2,10.2c-0.2,0.1-2.1-0.9-2.5-1.4c0,0,0.4,0.9,1,2.2c0.6,1.3,1.4,3.1,2.2,4.8c1.6,3.5,3.1,7.1,3.1,7.1
							c-1.5-1.2-4.8,3.7-5.9-2.9c-0.1,1-0.1,2-0.1,3.4c0,1.3,0.1,2.9,0.4,4.9c0.2-1.3,2.1-3.3,2.2-1.5c-1.6,4.9-0.8,3.4-2.1,9.4
							c0.3-1.9,2.6,0.2,2.5,3.3c-0.3-0.5-2.3,0.2-2.5-0.9l2.1,7.7c-0.4-1.9-1.9-0.4-2.6,1.3c0.5-0.8-0.4,6.6-0.3,8.6l0.7-3.2
							c-0.7,8.6,2.6,8.7,1.7,17.3c-0.4-1.1-2.6-2.9-3.3,1.4c0.4,1,1.4,3.4,2.3,6.5c0.4,1.6,0.9,3.3,1.1,5.2c0.2,1.8,0.2,3.8,0,5.8
							l-1,1.3c0,0,0,0.4-0.1,0.9c-0.1,0.6-0.1,1.3-0.3,2.1c-0.2,1.5-0.5,3-0.5,3c-0.2-1-0.3-2.5-0.5-4.2c-0.2-1.7-0.4-3.6-0.6-5.5
							c-0.3-2-0.4-3.9-0.7-5.8c-0.3-1.9-0.5-3.6-0.6-5c-1,3.1-0.9,0.7-1.6,5.4c-0.9,1.5-0.5-2.7-0.3-4.1c0,0-0.1,0.7-0.3,1.7
							c-0.2,1-0.4,2.4-0.8,3.7c-0.3,1.3-0.7,2.7-0.9,3.6c-0.3,1-0.5,1.6-0.5,1.6c0.7-0.1,0.6,2,0.3,4.1c-0.3,2.1-0.6,4.2,0,4.2
							c0,0,0-0.2,0.1-0.5c0.1-0.3,0.1-0.8,0.2-1.4c0.2-1.1,0.5-2.6,0.7-4.1c0.2-1.5,0.4-3,0.5-4.1c0.1-1.1,0.2-1.9,0.2-1.9
							c0.7-0.1,1.3,1.8,1.3,4.7c0,0.7,0,1.5-0.1,2.4c-0.1,0.8-0.2,1.7-0.3,2.6c-0.2,0.9-0.3,1.8-0.6,2.8c-0.3,0.9-0.6,1.9-0.9,2.8
							c-1.1,1.7-1.8-2.2-2.3-2.2c0.2,1.1-1.7,7.3-2.3,7.8c0,0,0-0.2,0.1-0.5c0.1-0.3,0.1-0.7,0.2-1.1c0.1-0.8,0.2-1.7,0.2-1.7
							c-1,1.9-1.3,3.7-1.7,5.6c-0.2,0.9-0.5,1.9-0.9,2.8c-0.2,0.5-0.5,1-0.8,1.5c-0.3,0.5-0.7,1-1.2,1.5c-0.9,1.6-4.1,3.7-3.6,4.4
							c2.8-1.6,7.2,0.1,7.2,2.5c-0.1,0.1-0.6,0.7-1.2,1.5c-0.7,0.8-1.6,1.7-2.5,2.7c-0.9,1-2,1.9-2.9,2.7c-0.9,0.8-1.7,1.4-2.2,1.7
							c-1.4,0.8-1.2-0.6-1-1.9c0.2-1.3,0.4-2.7-0.8-2c0.2,0.3-0.5,1.8-0.8,2.5c-1.4,1.2-0.3-1.3-2.9,1.8c0.3,0.7-1.2,2.1-2.1,2.9
							c-0.4,0.4-0.8,0.6-0.6,0.5c0.2-0.1,0.8-0.4,2.2-1.3c-1.3,1.5-2.2,2.1-3.1,2.8c-0.5,0.3-1,0.6-1.6,1c-0.6,0.4-1.3,0.9-2.3,1.5
							c0.9,0,0.4,1.2-0.8,2.7c-0.6,0.7-1.4,1.5-2.3,2.2c-0.9,0.7-1.9,1.4-2.9,1.8c0.1-0.4-0.9-0.5-1.4-0.6
							c-4.1,1.1-7.4,1.1-10.5,0.5c-3.1-0.6-6-1.6-9.3-3.5c-0.1-0.2-0.4-0.4-0.7-0.7c-0.3-0.3-0.6-0.7-0.9-1c-0.5-0.6-0.8-1.1,0-0.9
							c-0.5-0.2-1-0.3-1.6-0.7c-0.6-0.3-1.4-0.7-2.2-1.5c-1.2-2-0.2-1.1,0.8-0.2c1.1,0.9,2.4,1.7,1.5,0.1c-0.2,0.1-0.6,0-1.2-0.3
							c-0.6-0.3-1.2-0.8-2-1.4c-0.8-0.5-1.5-1.3-2.3-2c-0.7-0.6-1.7-1.5-2.4-2.1c0,0.4,0.4,1.1,1,1.8c0.5,0.7,1.2,1.5,2,2.3
							c0.8,0.8,1.8,1.5,2.7,2.2c1,0.6,1.9,1.1,2.6,1.6c-0.3,0.3-0.8,0.5-1.6,0.3c-0.8-0.1-1.9-0.4-3-1.1c-0.6-0.3-1.2-0.7-1.9-1.1
							c-0.6-0.5-1.3-1-2-1.6c-0.3-0.3-0.7-0.7-1-0.8c-0.3-0.2-0.6-0.5-0.9-0.7c-0.7-0.4-1.4-0.9-2.3-1.3c-2.6-1.3-3.2-1.8-3.1-2.1
							c0.1-0.3,0.8-0.3,0.2-0.4c-2.7-1.3-4.8-1.7-6.5-2c-1.7-0.2-2.9-0.2-4.1-0.1c-2.4,0.1-4.4,0.2-9.3-1.2c-3.8-1.6,0.1-2.1-0.7-3
							c5.4,0.4,8,2,11.5,2.8c0,0-0.3-0.1-0.7-0.2c-0.4-0.1-0.9-0.3-1.5-0.5c-0.5-0.2-1.1-0.4-1.5-0.5c-0.4-0.1-0.7-0.2-0.7-0.2
							c0.9,0,2.2,0.1,3.5,0.3c1.3,0.2,2.7,0.6,3.6,1c-1.5-0.9-6.6-2.3-12.5-3.2c-5.9-1-12.7-1.6-17.4-2.3c-1.7,0.3-4.7,0.4-3.3,1
							l3,0c2.7,1-5.7,0.8-2,1.5c-4.1,0.4-8.6,1.1-14.3,0.5l-1-1.3c0.1,0.4,3.7,0.8,5.3,0.5c-2.4,0.4-8.7-1.9-11.3-0.3l4,0.9
							c-4.1,0.5-9.1,1.8-14.1,1.5c2.3,1.2,1.2-0.1,4.7,1.3c-1.5-0.9,1.7-0.9,4.6-0.8c3,0,5.7,0.1,3.2-0.9c3.6,1.7,6.3,0.8,11,2.4
							c-0.1-0.4-1.7-0.9,2.5-0.5c0.2-0.1,0.6-0.2,0.9-0.3c0.1,0,0.2,0,0.3,0c-0.1,0-0.1,0-0.2-0.1c0.2-0.1,0.2-0.1-0.1,0
							c-1-0.2-1.8-0.5-2.1-0.7c2.1-0.8,8.8-0.5,11.1-0.7c2.5,0.4-1.1,0.4,0.2,0.9c0,0,0.9-0.1,1.7-0.2c0.9-0.1,1.7-0.2,1.7-0.2
							c0.3,0.9,6.4,2.1,0.6,2.1c0,0,1.3,0.1,2.6,0.3c1.3,0.2,2.6,0.3,2.6,0.3c3,0.9,7.1,1.7,9.6,1.8c2.3,0.6,6.1,0.3,3.9,0.5
							c0,0,0.5,0.1,1.2,0.2c0.7,0.1,1.7,0.3,2.6,0.5c1.9,0.4,3.7,0.9,3.7,0.9l0,0.2c0.9,0.3,1.7,0.7,2.5,1c0.8,0.4,1.6,0.7,2.3,1.1
							c0.8,0.4,1.4,0.8,2,1.3c0.2,0.2,0.5,0.5,0.8,0.7c0.4,0.4,0.8,0.9,1.2,1.3c3.3,3.5,7.1,6.9,11.7,10.1c1.6,0.6,3.1,1.2,5,1.6
							c0.5,0.1,1,0.3,1.5,0.4c0.5,0.1,1.1,0.2,1.6,0.3c1.1,0.3,2.4,0.4,3.8,0.6c0,0,0.3,0.2,0.5,0.4c0.3,0.2,0.5,0.4,0.5,0.4
							c2.2-0.1,5.5-0.1,8.3-0.8c1.4-0.3,2.7-0.7,3.8-1.1c1-0.4,1.8-0.9,2.1-1.2c0.6,0,1.4-0.1,2.2-0.4c0.8-0.3,1.8-0.6,2.8-1.2
							c1-0.5,2.1-1.1,3.1-1.9c1-0.7,2.1-1.5,3.1-2.4c4-3.4,7.4-7.8,9.6-10.4l-0.7-0.8c2.9-3.7,5-7.6,7.3-12.8l-1-0.1
							c0.4-1.1,1-2.4,1.6-3.7c0.7-1.3,1.4-2.8,2.2-4.3c1.6-3.1,3.1-6.5,4.3-10.2c0.2,0.6-0.5,2.4-1.2,3.6c2.5-4,3.4-8.8,4.1-13.4
							c0.1-1.2,0.3-2.3,0.4-3.5c0.1-0.6,0.2-1.1,0.2-1.7c0.1-0.6,0.1-1.1,0.2-1.7c0.3-2.2,0.7-4.3,1.3-6.3c0-2.1,0.3-3.5,0.7-4.9
							c0,0.2,0,0.4,0,0.5c0-0.2,0.1-0.5,0.1-0.8c0.2-0.9,0.5-1.8,0.8-2.7c-0.3,0.8-0.6,1.6-0.7,2.3c0.1-1.6,0.3-3.9,0.3-6.2l1.1-0.9
							c0-0.2,0-0.3,0-0.5c0.6-2.2-0.3-1.9-1.1-0.7c0-1.2-0.2-2.2-0.4-3.1c1.6-1.7-0.2-6,1.6-8.5c-0.7-1.6-0.4-11.6-2.1-12.8
							c0.2-0.1,0.3-0.7,0.3,0.5c0.3-2.5,0.3-5.1-0.1-7.4l1.2-1.1l-1.7-5.5c0.6-3.4,1-4.8,2.1-1.5c-1.8-8-0.8-6.6-2.6-13.3l0.8,0.3
							c-0.2-2.5-1.5-6.3-0.9-7.8c0.3-1.4,0.3-3.8,0.2-6.8c-0.1-3-0.3-6.7-0.7-10.6c-0.7-7.8-1.6-16.7-1.7-23.8c-2,3,0.3-6.6-1.6-7
							c0.4-0.9,0.5-2.9,1.3-0.7c-1.5-7.1-0.6-10.9-2.8-15.6c0.4-0.9,1,1.4,1.2,0.6c-0.2-0.6-0.8-2.2-0.6-3c0.2-0.8,0.6,1,1,2.1
							c-0.1-0.9-0.3-1.7-0.5-2.4c-0.1-0.4-0.2-0.7-0.3-1c-0.1-0.3-0.2-0.5-0.3-1c-0.1-0.4-0.2-0.8-0.4-1.2c0-0.2-0.2-0.3-0.3-0.5
							c-0.1-0.1-0.2-0.3-0.3-0.4c-0.4-0.5-0.6-0.8-0.9-1c-1.1-0.9-2-0.9-2.8-0.8c-0.1-0.5-0.2-0.9-0.3-1.4c-0.1-0.4-0.3-0.8-0.4-1.1
							c-0.3-0.7-0.6-1.3-0.9-1.9c-0.7-1.1-1.5-2-2.7-2.9c-0.2-1.4-0.9-3.6,1.7,0.3c-0.7-1.1-2.5-4.7-4.6-7.7c-2-3.1-4.2-5.7-4.7-5.4
							c-0.2-0.9-2-3-2.6-3.4c-3.4-4.7-3.6-5.1-7.3-9.5l0.8,1.4c-2.6-0.8-3.2-3.5-6.2-6.9l0.2,0c-5.8-8.8-3.3-3.1-9-11.8l-0.4,1.1
							c-2.2,0.6-5.1-7.7-9.7-11.6l1,2c-0.7-0.5-1.3-1.3-1.8-2.2c-0.3-0.5-0.5-1-0.8-1.5c-0.1-0.3-0.2-0.5-0.4-0.8
							c-0.1-0.2-0.1-0.4-0.2-0.6c-0.1-0.2,0-0.4,0-0.6l0-0.3c0-0.1,0-0.3-0.1-0.5c-0.1-0.7-0.3-1.3-0.5-2c-0.1-0.3-0.2-0.6-0.3-0.9
							c-0.1-0.3-0.2-0.6-0.4-0.8c-0.3-0.5-0.5-1-0.8-1.4c-0.2-0.4,0.1-0.2,0.5,0.3c0.4,0.4,1,1.1,1.4,1.6c-1.3-2.3-2.3-3.4-2.8-3.9
							c-0.6-0.5-0.8-0.4-1-0.2c-0.2,0.2-0.3,0.4-0.8,0.4c-0.2,0-0.5-0.2-1-0.4c-0.4-0.2-1-0.6-1.7-1.1c-0.3-0.7,0.3-0.8,0.5-1.1
							c0.1-0.1,0.1-0.4-0.2-0.7c-0.3-0.3-0.8-0.9-1.9-1.6c-0.9-0.9-4.4-2.2-8.3-3.1c-3.9-0.9-8.2-1.4-11.2-2.5
							c1.3,0.7,2.5,1.5-0.6,1.4c-2.1-0.2-4.8-0.9-7.6-1.3c-1.4-0.2-2.8-0.4-4.2-0.4c-0.3,0-0.7,0-1,0c-0.1,0-0.3,0-0.4,0
							c-0.3,0-0.6,0.1-0.9,0.2c-0.3-0.1-0.6-0.2-0.9-0.2c-0.2-0.4-0.3-0.6-0.2-0.7c-0.3-0.1-0.5-0.3-0.9-0.5
							c-0.5-0.3-1.1-0.6-1.7-0.9c-0.6-0.3-1.2-0.7-1.9-1c-0.7-0.3-1.3-0.6-2-0.9c-0.7-0.3-1.3-0.5-1.9-0.8c-0.6-0.2-1.2-0.4-1.8-0.5
							c-1.1-0.3-2-0.5-2.6-0.5c-0.5-1-2.1-2-4.3-2.7c-1.1-0.3-2.3-0.6-3.6-0.9c-1.3-0.2-2.6-0.4-3.9-0.6c-5.1-0.6-9.8-0.7-9.6-2.2
							c0,0-0.7-0.1-1.7-0.2c-1-0.1-2.4-0.2-3.8-0.3c-1.4-0.1-2.7-0.1-3.8-0.2c-1-0.1-1.7-0.1-1.7-0.1l0.3-0.3
							c-3.5-0.3-5.8-0.2-7.6,0c-1.8,0.2-3,0.6-4.2,1c-1.6-0.2-0.4-0.5-0.3-0.7c-5.1-0.3-7.9-0.3-10.4,0c-2.6,0.3-4.9,0.8-9.1,1.9
							l-1-0.9c-1.1,0.4-4.8,0.3-9.4,0.5c-4.6,0.2-10.1,0.6-15,1.9c0.1-0.1,0.3-0.3,1-0.6c-2.6,0.7-5.6,1.1-8.6,1.5
							c-1.5,0.2-3,0.3-4.5,0.5l-1.1,0.1l-0.7,0.1l-0.8,0.1c-1.1,0.2-2.3,0.3-3.4,0.6c-0.7,0.9-1.4,1.8-2.2,2.7
							c-0.3,0.3-0.5,0.5-0.7,0.8c-0.2,0.2-0.4,0.4-0.7,0.6c-0.8,0.8-1.7,1.6-2.4,2.4c-1.5,1.6-2.5,3-2.7,4.4c0,0-1.2,1.3-2.5,2.6
							c-1.3,1.3-2.5,2.6-2.5,2.6c7.5-5.6-0.1,2.1,3.3,0.2c-2.8,2.5-8.2,5-4.7,2.1l0.7-0.3c0.1-1.3-2.3,0.4-4.8,2.1
							c-2.5,1.8-5.2,3.6-5.4,3.1c-7.4,5.4-15.1,10.3-22.7,15c-7.6,4.7-15.2,9.1-22.6,13.4l2.4,0.3c0,0-1.3,0.7-2.6,1.5
							c-1.3,0.7-2.6,1.5-2.6,1.5c-1.5,0.5-2.4,0,1.3-2c-2.3,0.4-5.8,4.1-5.8,4.4c-1,0.4-1.5,0.6-2.1,0.8c-0.6,0.2-0.9,0.3-1,0.2
							c-0.1,0,0-0.2,0.2-0.4c0.1-0.1,0.2-0.2,0.4-0.4c0.1-0.1,0.3-0.3,0.5-0.4c1.1-0.9,2.9-2.2,1.8-1.7l-3.1,1.7c0,0,1-0.4,1-0.3
							c-0.7,0.6-1.3,1-1.8,1.5c-0.4,0.5-0.8,0.9-1.3,1.4c-0.8,1-2,2-3.9,4.2c-2.5,2.6-1.9,0.9-2.8,2c-0.1-0.1-0.4,0.3-1.3,1.8
							c0,0-0.3,0.4-0.7,1.1c-0.4,0.7-1,1.5-1.5,2.4c-1,1.8-2,3.6-2,3.6s0.6-0.6,1.2-1.2c0.6-0.6,1.3-1.1,1.3-1.1
							c-1.2,3.4-3.3,6.7-0.6,3.9c-1,1-2.4,3.1-3.6,5.9c-1.2,2.8-2.4,6.2-3.3,9.6c-1.9,6.8-2.5,13.6-3,15.2c0.3,4.9,0,9.7,0.1,15.6
							c0.2-1.5,1.4-2.4,1.5,2.7c-0.7-0.4-1.1,0-1.3,0.8c-0.2,0.9-0.2,2.2-0.1,3.8c0.1,1.6,0.3,3.3,0.4,4.9c0.1,0.8,0.1,1.6,0.1,2.3
							c0,0.7-0.1,1.3-0.3,1.8c0.3-1.8,1.1,1.4,1.5,4.5c0.4,3.1,0.6,6,1.5,3.3c-0.1,4-1,0.3-1.6,3.3c0.5,4.7,0,10.1-1,15.6
							c-1,5.5-2.5,11.3-3.7,17.1c0.3,0.3,1.3-1.6,1.2,1.1c0,0-0.8,1.4-1.6,2.9c-0.8,1.4-1.7,2.9-1.7,2.9c-0.5,2.3,1.4,2.7-1,6.5
							c0.5-0.5,1.1-1.3,0.8,0.3c-1.5,4-2.9,8.1-4.4,12.1c-0.7,2-1.5,4.1-2.2,6.1l-1.1,3.1l-0.6,1.5l-0.7,1.9
							c-0.3,2.1-0.5,4.2-0.8,6.3l-0.2,1.5c0,0.5,0,1-0.1,1.5l-0.1,3.1l-0.1,3.1l0.1,3.1c0.1,2,0,4.1,0.2,6.1
							c0.5,8.1,1.8,16.2,3.2,24.2c-0.2-1.7-0.1-2.1,0.2-1.6c0.2,0.4,0.6,1.6,1.1,2.8c-0.4-1.7,0.8-0.2,1.2-0.7c0,0,0.1,0.6,0.3,1.6
							c0.2,1,0.4,2.3,0.8,3.5c0.3,1.3,0.6,2.6,0.9,3.5c0.3,1,0.5,1.6,0.5,1.6c0.5,0.3,1,1.1,1.6,2.1c0.6,1,1.2,2.2,1.8,3.5
							c1.2,2.4,2.5,4.7,3.4,4.9c0,0-0.5-0.7-0.9-1.4c-0.4-0.7-0.9-1.4-0.9-1.4c1.7,1.6,1.7-0.2,1.6-2.3c-0.1-2.2-0.3-4.7,0.7-4.8
							c-0.9-0.9-1.5-2.1-2-3.5c-0.5-1.4-0.8-3.1-1.2-4.8c-0.4-1.7-0.7-3.5-1.3-5.3c-0.5-1.8-1.2-3.6-2.3-5.3c-0.1-1.7,1,1.2,1.2,0.2
							c-0.7-0.8-1.1-1.8-1.5-3.1c-0.2-0.7-0.4-1.4-0.5-2.2c-0.1-0.4-0.2-0.9-0.2-1.4c0-0.5-0.1-1-0.1-1.5l0.3,0.4
							c-0.3-1.5-0.5-2.9-0.7-4.2c-0.2-1.3-0.2-2.6-0.4-3.8c-0.1-1.2-0.1-2.4-0.2-3.5c0-1.1,0.1-2.3,0.1-3.4c0-1.1,0.1-2.3,0.1-3.4
							c0.1-1.2,0.3-2.4,0.4-3.7c0.1-0.6,0.1-1.3,0.2-2c0-0.3,0.1-0.7,0.1-1c0.1-0.3,0.1-0.7,0.2-1.1c0.3-1.4,0.6-3,0.9-4.6l-1.1,0.8
							c0.1-0.5,0.2-1,0.3-1.3c0.1-0.3,0.1-0.5,0.2-0.6c0.1-0.1,0.2-0.2,0.3-0.3c0.1-0.1,0.2-0.4,0.3-0.5c0.2-0.4,0.4-0.7,0.7-1.1
							c0-1-0.2-0.9-0.5-0.4c-0.2,0.3-0.3,0.7-0.5,1.1c-0.2,0.3-0.3,0.7-0.5,1.1c-0.1,0.4-0.1,0.8-0.2,1.2c-0.1,0.4-0.2,0.8-0.3,1.1
							c-0.2,0.6-0.4,0.7-0.7-0.1c0.2-0.3,0.4-0.6,0.5-1c0.1-0.3,0.3-0.7,0.4-1.2c0.1-0.1,0.1-0.2,0.2-0.3c0-0.1,0.1-0.1,0.1-0.2
							l0.1-0.3c0.2-0.4,0.4-0.8,0.6-1.3c0.4-0.9,0.8-1.9,1.2-2.9c0.8-2,1.6-4.2,2.3-6.2c1.5-4.1,2.8-7.7,4-8.5
							c1.4-4.5-1.4,1-0.1-3.5l0.9-1l-0.4-1.4c1-2.9,2.1-4.3,2.6-4.2c-0.3,0.7-0.4,2.1-0.6,2.9c1.8-3.7,2.7-11.1,3.2-12.4
							c0,0-0.3,1.1-0.7,2.2c-0.4,1.1-0.7,2.2-0.7,2.2c1.3-6.4,2.8-13.4,3.8-20.6c0.5-3.6,0.8-7.2,0.9-10.7c0.1-3.5,0-7-0.5-10.2
							l-0.4,1c-0.6-4.9-0.8-6.8-0.9-8.9c-0.1-1-0.2-2.2-0.4-3.5c-0.2-1.3-0.5-3.1-0.9-5.5l0.1,0.3c-0.7-1.9-1.2-4.6-1.2-7.3
							c0.3,1.3,0.5,0,0.7-1c0.2-1.1,0.5-2.1,0.8-0.4c-0.5-4.9-0.5-6.1-0.8-6.9c-0.2-0.8-0.6-1.2-1.2-4.6l0.9-1.4
							c-0.2-1.1-0.4-1.8-0.5-2.8c-0.1-1,0-2.3,0.3-4.8c-0.1,4.2,1.7-3,1.7,1.7c1.7-5,2.2-8.8,2.8-11.9c0.6-3.1,1.3-5.5,3.2-7.3
							c0-2.6-1.2-0.6-2.2,1.7c-1,2.3-1.7,5.1-1.5,3.7c-0.7,1-0.7-0.1-0.5-1.8c0.3-1.7,1-4,1.7-5.5c0.3-0.8,0.8-1.4,1.4-2.1
							c0.6-0.7,1.2-1.3,2-2.1c1.5-1.5,3.3-3.6,5.6-6.7c-0.5,0.6-0.4,0.8-0.8,1.4c1.1-1.1,1.8-2.3,2.7-3.5c0.9-1.2,2-2.3,3.5-2.8
							c0.2-0.5,0.5-0.9,0.8-1.1l0.3-0.2c0.1-0.1,0.3-0.2,0.4-0.2c0.3-0.1,0.5-0.3,0.8-0.4c1-0.5,1.8-1,1.7-1.9c0,0-0.4,0.3-1.1,0.6
							c-0.3,0.2-0.7,0.4-1.2,0.7c-0.2,0.1-0.4,0.2-0.7,0.4l-0.3,0.2l-0.3,0.2c-0.7,0.4-1.3,0.9-1.8,1.3c-0.5,0.4-0.8,0.7-0.8,0.7
							c0.7-0.7,1.3-1.4,2-2.1c0.2-0.2,0.4-0.3,0.6-0.5c0.2-0.2,0.5-0.4,0.7-0.6c0.5-0.4,1-0.8,1.5-1.2c2.1-1.6,4.5-3.2,8-4.7
							c-0.3,0.6-2.1,2.1-3.3,3c2.2-0.7,3.5-2.4,5.7-3.1c0.1,0.8-1.9,2.2-4.5,3.7c-1.3,0.8-2.7,1.6-4.1,2.4c-0.7,0.4-1.3,0.8-2,1.2
							c-0.6,0.4-1.4,0.9-1.5,1.2c0.3,0,1.3-0.5,2.1-0.9c0.8-0.5,1.7-1.1,2.4-1.6c1.5-1,2.4-1.6,1.7-0.2c2-3.6,7.7-4.1,11.9-8.6
							l0.2,1c0.7-0.6,2.1-2,3.6-2.9l-2,2.7c3.5-3.4,8.3-4.1,11.9-7.1c-8.1,5.2-2.4,0.2-6.2,1.8c4.7-3.7,6.4-4.1,8.4-4.6
							c2-0.4,4.2-0.9,9.6-4.8c-1.4,1.1-5.9,3.3-3.8,1.4c2.2-1.2,5.2-2.8,6.8-3.3c7.2-5.2-1.7,0,1.1-2.6c3.1-0.8,3.3-2.9,6.2-5.4
							l0.6,0.8c8.5-5.4,1-3.2,8.7-8l-2.3,3.4l3.6-3.1l-0.1,1.5c3.6-3.8,5-4.6,9.2-7.7c-0.7,0.1-0.8-0.3-0.4-1.2
							c0.4-0.8,1.5-2.1,3.1-3.7c1.3-0.9,1.2-0.4,1.3-0.3c0.1,0.1,0.4,0,2.7-2.7c-0.6,1.6-1.3,3.4-4,4.7c0,0.4-0.7,1.4-0.7,1.9
							c1.4-0.8,2.9-2.2,4.3-3.7c0.3-0.4,0.7-0.8,1-1.1c0.2-0.2,0.3-0.4,0.5-0.6l0.2-0.3l0-0.1c0.1-0.2,0.2-0.4,0.3-0.6
							c0,0,0.1,0,0.1,0c0,0-0.1,0-0.1,0c-0.2,0.2-0.3,0.3-0.5,0.4c0.1-0.2,0.1-0.5,0.2-0.8c0.1-0.2,0.3-0.3,0.5-0.4l0.3-0.2
							c0.1,0,0.1-0.1,0.2-0.1l0.4-0.1l3.3-1.1c1.5,0.1,0.4,0.6-0.6,1.1c1.8-0.4,2.9-1.1,5.6-1.6c-0.6,0.9-0.3,1.6-3.9,2.6
							c0,0,2.1-0.6,4.1-1.1c2.1-0.5,4.1-1.1,4.1-1.1c0.6,0.2,4.5,0.3,3.4,0.7c4.7-0.2,11.3-3,17.6-2.9c0.3-0.2,0.9-0.4,2.3-0.6
							c5.9-0.3,11.1,0.3,18-0.8l3.9,1.4c5.4-0.3-5.3-1.8,3.7-2.3c6.4-0.3,2.3,1.3,4.6,1.7c1.6-0.3,3.8-0.7,6.3-0.8
							c1.3,0,2.6,0,4,0.2c1.4,0.1,2.8,0.5,4.2,1C713.6,184.2,712.1,183.8,710.3,183.7z M774.2,199.9c-1.2-0.3-3.6-0.5-4.3-1.3
							C771.6,197.9,772.5,198.8,774.2,199.9z M837.9,276.7c-0.1-0.3-0.2-0.4-0.3-0.7c0-0.1-0.1-0.2-0.1-0.4c0-0.1-0.1-0.2-0.1-0.4
							c0-0.1-0.1-0.3-0.1-0.4c0-0.2-0.1-0.4-0.2-0.5c-0.1-0.4-0.2-0.8-0.3-1.2c0.3,0.5,0.6,1.1,0.8,1.7c0.1,0.3,0.2,0.5,0.2,0.8
							C837.9,276,837.9,276.2,837.9,276.7z M746.1,468.8c0.1,0,0.1,0,0.1,0C749,469.6,748,469.3,746.1,468.8z M740.2,467.6
							c-0.6,0.1-0.6,0.2-0.3,0.4c0.4-0.2,1.8-0.1,3.3,0.2C742.8,467.9,742,467.6,740.2,467.6z M538.6,246.8l1-0.9
							c-0.8,1.3-1.1,1.7-1.1,1.7C538.3,247.6,538.4,247.2,538.6,246.8z"/>
						<path id="XMLID_370_" class="st24" d="M832.1,267.4c-0.1-0.4,0-0.6,0.2-0.7C831.9,266.3,831.7,266.4,832.1,267.4z"/>
						<path id="XMLID_369_" class="st24" d="M668.8,184.5l-0.2,0c-0.1,0.1-0.2,0.1-0.2,0.2L668.8,184.5z"/>
						<path id="XMLID_368_" class="st24" d="M821.6,469.1c0.9-0.8,1.4-1.2,1.8-1.5C823.3,467.4,822.8,467.7,821.6,469.1z"/>
						<path id="XMLID_367_" class="st24" d="M708.1,467.5l3.9-0.2c-1.9,0-2.6-0.2-3.5-0.4C708.6,467.2,709.3,467.5,708.1,467.5z"/>
						<path id="XMLID_366_" class="st24" d="M674,462c-0.6,0.1-1.2,0.1-1.8,0.2l0.2,0.4C674.9,462.5,676.6,462.1,674,462z"/>
						<path id="XMLID_365_" class="st24" d="M704.5,464.3c-0.3-0.8-2.8-0.6-5.5-0.4c0.2,0,0.3,0,0.5,0
							C698.7,465,701.6,464.6,704.5,464.3z"/>
						<path id="XMLID_364_" class="st24" d="M698.4,463.9c-0.8,0-1.7,0.1-2.5,0C695.5,464.4,696.9,464,698.4,463.9z"/>
						<path id="XMLID_363_" class="st24" d="M732.5,467.5c-1.3-0.3-0.9,1-1.6,0.6C729.5,469,739.6,467.5,732.5,467.5z"/>
						<polygon id="XMLID_362_" class="st24" points="702.3,461.6 703.3,462.6 704.8,461.8 						"/>
						<path id="XMLID_361_" class="st24" d="M724,462.9c0,0-1.1-0.1-2.2-0.2c-1.1-0.1-2.2-0.2-2.2-0.2c0.1,0.2-0.5,0.2-1.2,0.3
							C721.2,462.8,724.1,463.2,724,462.9z"/>
						<path id="XMLID_360_" class="st24" d="M718.5,462.7c-1.4-0.1-2.8-0.1-3.5,0.1C715.7,462.8,717.3,462.8,718.5,462.7z"/>
						<polygon id="XMLID_359_" class="st24" points="708.3,461.4 709.6,461.6 712.7,461.7 						"/>
						<path id="XMLID_358_" class="st24" d="M769.7,471.7c0,0,0.3,0.1,0.6,0.3c0.4,0.2,0.9,0.5,1.3,0.8c0.5,0.3,1,0.6,1.2,1
							c0.3,0.3,0.5,0.5,0.5,0.5c0.3,0.1,0.3-0.2,0-0.6c-0.1-0.2-0.3-0.5-0.6-0.7c-0.3-0.2-0.6-0.5-1-0.7c-0.5-0.3-1.2-0.6-1.6-0.7
							C769.8,471.4,769.5,471.4,769.7,471.7z"/>
						<path id="XMLID_357_" class="st24" d="M757,464.2c1.2,0.5,1.3,0.8,1.9,1.3l0.5-1.2c0,0-0.6,0-1.2-0.1
							C757.6,464.2,757,464.2,757,464.2z"/>
						<path id="XMLID_356_" class="st24" d="M770.8,468.8c0.2,0,0.7,0.2,1.3,0.5c0.3,0.1,0.6,0.3,0.9,0.4c0.3,0.2,0.6,0.3,0.8,0.5
							c0.5,0.3,0.8,0.4,0.6,0.2c-0.2-0.2-0.8-0.9-2.3-1.7c-0.2,0-0.6-0.2-1.1-0.4c-0.5-0.2-1-0.3-1.4-0.5
							C768.9,467.5,768.8,467.6,770.8,468.8z"/>
						<path id="XMLID_355_" class="st24" d="M828.7,465.4c0,0-0.2,0.3-0.3,0.5c-0.2,0.3-0.3,0.5-0.3,0.5l1.8,1c0,0-0.3-0.5-0.5-1
							C828.9,465.9,828.7,465.4,828.7,465.4z"/>
						<path id="XMLID_354_" class="st24" d="M842.2,404.9c-1,5.5,1.1,1.4,0,6.4c0.3,1.4,0.9-4,1.2-2.7
							C843.2,405.2,843.7,403.5,842.2,404.9z"/>
						<path id="XMLID_353_" class="st24" d="M843.4,408.6c0,0.5,0.1,1.1,0.1,1.7C843.5,409.4,843.5,408.9,843.4,408.6z"/>
						<polygon id="XMLID_352_" class="st24" points="520.2,467.8 521.7,471.4 521.1,468.9 						"/>
						<path id="XMLID_351_" class="st24" d="M525.1,473.5l-0.6,1.5l2.3,1.4C526.2,475.6,525.2,474.2,525.1,473.5z"/>
						<path id="XMLID_350_" class="st24" d="M779.7,206.4l0.4-0.1c-0.1-0.5-0.5-1-1.5-1.8C778.6,204.5,779.8,206.4,779.7,206.4z"/>
						<path id="XMLID_349_" class="st24" d="M736.1,191.2l0.6,0.4c0,0-0.2-0.4-0.4-0.8c-0.2-0.4-0.4-0.9-0.4-0.9s0,0.3,0,0.7
							C736.1,190.9,736.1,191.2,736.1,191.2z"/>
						<path id="XMLID_348_" class="st24" d="M697.9,185.4c1.6,0.1,3.6-0.1,5.2,0.1C699.6,185.5,697.5,184,697.9,185.4z"/>
					</g>
				</g>
			</g>
		</g>
	</g>
	<path id="XMLID_115_" class="st37" d="M507,490c0,0,39-16,57-39c0,0-24-53-7-69c0,0,17,13,26,13c0,0-6-37,15-50c0,0-38-38,0-59
		c0,0,26-24,58.5-38S768,265,778,288c0,0,26,49.5,15,79.3c0,0-7,56.8-3,63.8s-64,129-68,129s-176,0-176,0S488.5,499,507,490z"/>
	<path id="XMLID_114_" class="st38" d="M418.3,560c0,0,11-35,29-40c0,0,44-60,64-69c0,0-3,51,42,109H418.3z"/>
	<path id="XMLID_117_" d="M626,350c0,0,15-21,40,0C666,350,645,375,626,350z"/>
	<path id="XMLID_118_" d="M720,361.1c0,0,29-18.1,41,13.9C761,375,732,385.2,720,361.1z"/>
	<path id="XMLID_119_" d="M656.5,432.3c-11,14.6-27.5,42-25.5,73.2c0,0,30.7,43.9,63-5.5c0,0,15-48.7-12.1-70.9
		C674.1,422.8,662.5,424.3,656.5,432.3z"/>
	<path id="XMLID_120_" class="st39" d="M621,350.9c0,0,5.7-36.6,35.5-25.2c29.8,11.3,3.2,1.3,3.2,1.3s8.7,0.7,6.3,18.7s0,4.3,0,4.3
		s7.7-1,9.7-22.3c2-21.3-31.3-17.3-36.7-16C633.7,313,613.7,337.4,621,350.9z"/>
	<path id="XMLID_89_" class="st40" d="M568.3,402.3c0,0-4.2,2.5-10.7,3.4c-6.4,0.9,2.7,16,10.7,16
		C568.3,421.7,580.3,407.5,568.3,402.3z"/>
	<path id="XMLID_123_" class="st41" d="M555.5,396.3c0,0-0.2-4.2,5.5-6c5.7-1.8,8,6,8,6S562.6,401.7,555.5,396.3z"/>
	<path id="XMLID_122_" d="M659,394.4c0,0,10.9-18.7,21.8-14.1c0,0,0.4,18.1-5,18.4S664.3,399.8,659,394.4z"/>
	<path id="XMLID_125_" d="M688.5,383c0,0-5.5,10.1-1.5,15.7s15.3,3.5,15.3,3.5S703.9,385.4,688.5,383z"/>
	<path id="XMLID_126_" class="st42" d="M647.6,560c0,0-45.2-30.8-67.9-99c0,0,4.7,60.7,25.3,99H647.6z"/>
	<path id="XMLID_124_" class="st43" d="M724.3,332.3c0,0,5.3-4.6,12.7-4.6c0,0,21.3,6,30.7,19.3c9.3,13.3,6.7,14.1,6.7,14.1
		S745.7,339.5,724.3,332.3z"/>
	<path id="XMLID_128_" class="st44" d="M626,280c0,0,28.5-11,49.8-19c0,0,27.9,0.3,44.2,9.5c0,0,21.4,4.5,29.5,6.5
		s25.2,36.7,25.2,36.7s-25.4-26.7-34.2-30c-8.8-3.3-47.3-14-59.7-14C668.3,269.7,642.3,277.7,626,280z"/>
	<path id="XMLID_127_" class="st44" d="M646,290.3c0,0,21.9-6.7,34.8-6.7S720,293,720,293s19.7,6,25,6s20,16.7,22.7,22
		c0,0-26.7-18-36-18.7c-9.3-0.7-39.6-11.3-46.1-12C679,289.7,646,290.3,646,290.3z"/>
	<path id="XMLID_130_" class="st44" d="M675.8,302.3c0,0,13.2-4.7,18.2,0c5,4.7,6.4,16,6.4,16S693.2,307,675.8,302.3z"/>
	<path id="XMLID_131_" class="st44" d="M706.8,332.7c0,0,10.2-23.4,17.5-22.2c7.3,1.2,16.2,3.2,16.2,3.2S721.3,317.8,706.8,332.7z"
		/>
	<path id="XMLID_132_" d="M653.7,383c0,0,1.1-15.8,16.2-21.9C669.9,361.1,652.3,359.7,653.7,383z"/>
	<g id="Warstwa_7">
		<path id="XMLID_133_" class="st45" d="M638.9,341.4c0,0-15.6,6.1,0,18.8C654.5,372.8,676.9,339.1,638.9,341.4z"/>
		<path id="XMLID_136_" class="st45" d="M626,356c0,0-2.5,4-1.9,10.6c0,0-24.5,10.6-27.1,23.5s-3.3,34.3,0,47.6
			c3.3,13.3-16.5,36.3,6.1,72.8C625.7,547,641,565.7,659,560h56.7c0,0,55.3-75,52-97c-3.3-22-11.3-69.4-4-81c0,0-40.7,0.2-49.3-15.4
			c0,0-14.7,5.7-1.3,36S698.1,451,698.1,451s0.9,37.3-3.1,45.3s-31,53.3-64.2,10c0,0-1.8-79.3,22.8-123.3c24.7-44,0.6-3.4,0.6-3.4
			s3.9-9.3-0.7-16.6C653.6,363,629.8,366,626,356z"/>
		<path id="XMLID_135_" class="st46" d="M619.4,363c0,0,11.3,11.4,30.1,9.1C649.5,372,627.1,389,619.4,363z"/>
		<path id="XMLID_134_" class="st46" d="M754,390.2c0,0-15.7,3.7-30.4-8.2C723.7,382,733.7,408.2,754,390.2z"/>
		<path id="XMLID_137_" class="st45" d="M733.5,355.8c0,0-15.6,6.1,0,18.8C749.1,387.2,771.5,353.6,733.5,355.8z"/>
		<path id="XMLID_139_" class="st47" d="M547,251c0,0,19.3-3.3,32.7-14.7c0,0,5.3-1.3,0-5.3c-5.3-4.1,10.7-4,18-8
			c7.3-4,26-9.2,21.7-16.7c-4.2-7.5,14.3-5.3,19.6-6c5.3-0.7,22.3-10,20.8-13.3s16.4,0.7,20.2,7.3c3.7,6.7,37.7-7.1,35.7-8.5
			c-2-1.5,10,16.5,18,18.5s30-7.3,38-1.3c0,0-14.7,4-10.7,10.7c4,6.7,34.7,14,34.7,14S789,235,785,235s34.9,27.1,40.7,26
			c5.7-1.1-15.9,4-30-4.7c-14-8.7-18-26.7-18-26.7s-30.6-15.3-28.2-21.3c0,0-35.5,6.4-42.7-12c0,0-29.5,14-42.4-4
			c0,0-34.9,26.7-50.9,28.7c0,0-19,20.5-29.3,20C584.3,241,543.7,261,547,251z"/>
		<path id="XMLID_140_" class="st48" d="M537.7,332.7c0,0,4-10.6,12.7-11.1C550.3,321.6,539,328.4,537.7,332.7z"/>
		<path id="XMLID_141_" class="st48" d="M530.3,377.2c0,0,1.6-14.1,16.5-21.1L530.3,377.2z"/>
		<path id="XMLID_138_" class="st48" d="M519.7,429c0,0,2-7.4,10.7-17c0,0-0.7,18.4,0,25c0.7,6.7-0.7-6.7-0.7-6.7s7-1.2,14.3-12
			c0,0-3,26-6.3,30c0,0,9.3,8,15.7,0c0,0-19.4,13.9-27.7,6.7c0,0,6.8-10.3,10.8-12.7C540.5,440,516.7,435.5,519.7,429z"/>
		<path id="XMLID_143_" class="st49" d="M653.6,389.3c0,0-20.9,28.9-27.6,57.7C626,447,622.9,393.9,653.6,389.3z"/>
		<path id="XMLID_142_" class="st50" d="M710.4,402.5c0,0,7.3,34.9,1.5,64C711.9,466.5,736.4,419.3,710.4,402.5z"/>
	</g>
	<path id="XMLID_145_" class="st51" d="M544,498.3c0,0-8.1,8,2.8,30.7c10.9,22.7,28.2,30.7,36.2,25.3C591,549,549.7,493.7,544,498.3
		z"/>
	<path id="XMLID_146_" class="st51" d="M597.7,318.3c0,0,7.2-29.3,16-31c8.7-1.7,21.4,6.9,18.4,12.9
		C629,306.3,597.3,350.7,597.7,318.3z"/>
	<path id="XMLID_147_" class="st51" d="M669.9,366.6c0,0,0.4,7.2,10.1,5.5c9.7-1.7,14-50.5,14-50.5S688.8,308.8,669.9,366.6z"/>
</g>
</svg>
